<svg xmlns="http://www.w3.org/2000/svg" width="204" height="168" viewBox="0 0 204 168"><defs><linearGradient id="ilwaa" x1="181.76" x2="163.98" y1="27" y2="193.16" gradientUnits="userSpaceOnUse"><stop offset="0" stop-color="#ffd84f"/><stop offset=".22" stop-color="#faf7ca"/><stop offset=".65" stop-color="#bb8d31"/><stop offset=".84" stop-color="#e6cf85"/><stop offset="1" stop-color="#e9c037"/></linearGradient><linearGradient id="ilwab" x1="39.76" x2="21.98" y1="27" y2="193.16" gradientUnits="userSpaceOnUse"><stop offset="0" stop-color="#ffd84f"/><stop offset=".22" stop-color="#faf7ca"/><stop offset=".65" stop-color="#bb8d31"/><stop offset=".84" stop-color="#e6cf85"/><stop offset="1" stop-color="#e9c037"/></linearGradient><linearGradient id="ilwac" x1="116.32" x2="59.87" y1="1" y2="39.34" gradientUnits="userSpaceOnUse"><stop offset="0" stop-color="#ffd84f"/><stop offset=".22" stop-color="#faf7ca"/><stop offset=".65" stop-color="#bb8d31"/><stop offset=".84" stop-color="#e6cf85"/><stop offset="1" stop-color="#e9c037"/></linearGradient><linearGradient id="ilwad" x1="119.12" x2="51.29" y1="70.91" y2="95.59" gradientUnits="userSpaceOnUse"><stop offset="0" stop-color="#ffd84f"/><stop offset=".22" stop-color="#faf7ca"/><stop offset=".65" stop-color="#bb8d31"/><stop offset=".84" stop-color="#e6cf85"/><stop offset="1" stop-color="#e9c037"/></linearGradient><linearGradient id="ilwae" x1="119.75" x2="51.96" y1="99.9" y2="117.37" gradientUnits="userSpaceOnUse"><stop offset="0" stop-color="#ffd84f"/><stop offset=".22" stop-color="#faf7ca"/><stop offset=".65" stop-color="#bb8d31"/><stop offset=".84" stop-color="#e6cf85"/><stop offset="1" stop-color="#e9c037"/></linearGradient></defs><g><g><g><path fill="url(#ilwaa)" d="M152.183 159.045c1.602 3.388 3.84 5.902 6.64 7.135 3.092 1.359 6.47.982 9.76-.784-1.633-3.922-4.02-6.84-7.113-8.199a9.725 9.725 0 0 0-4.485-.805 48.51 48.51 0 0 0 4.838-2.649c2.36 3.22 5.27 5.245 8.483 5.59 3.288.348 6.468-1.07 9.263-3.806-2.36-3.288-5.304-5.36-8.566-5.707-1.54-.163-3.034.058-4.52.621a55.668 55.668 0 0 0 4.72-4.166c2.859 2.426 6.006 3.573 9.155 3.045 3.265-.54 6.115-2.78 8.36-6.206-2.915-2.566-6.147-3.796-9.409-3.255-1.258.209-2.452.669-3.585 1.351a62.825 62.825 0 0 0 2.91-3.924c3.212 1.754 6.498 2.167 9.557.907 3.089-1.288 5.539-4.148 7.232-8.034-3.272-1.84-6.644-2.297-9.766-1.011-1.31.546-2.503 1.376-3.582 2.446a56.304 56.304 0 0 0 2.414-4.97c3.354.914 6.566.543 9.302-1.346 2.883-1.974 4.834-5.342 5.886-9.54-3.495-1.067-6.882-.748-9.733 1.224a12.575 12.575 0 0 0-2.831 2.77c.586-1.83 1.138-3.707 1.577-5.63.028-.072.028-.143.058-.216 3.437.506 6.675-.282 9.266-2.555 2.652-2.34 4.318-5.952 4.986-10.264-3.556-.598-6.878.17-9.561 2.51-1.572 1.396-2.828 3.245-3.702 5.425.439-2.48.729-4.96.906-7.432 3.378-.358 6.344-1.887 8.482-4.673 2.245-2.927 3.286-6.86 3.26-11.25-3.583.255-6.73 1.793-8.97 4.72-1.172 1.523-2.014 3.317-2.54 5.309 0-1.73-.09-3.448-.21-5.158 3.273-1.446 5.83-3.913 7.294-7.354 1.515-3.558 1.662-7.693.698-11.911-3.41 1.425-6.123 3.94-7.634 7.498a16.461 16.461 0 0 0-1.17 4.487 69.437 69.437 0 0 0-1.22-5.979c3.204-1.714 5.65-4.404 6.934-7.986 1.31-3.677 1.223-7.815 0-11.94-3.324 1.707-5.854 4.442-7.164 8.116-.879 2.457-1.147 5.118-.822 7.845-.64-2.042-1.367-4.017-1.981-6.055 2.712-2.465 4.602-5.655 5.221-9.396.664-3.929-.119-7.956-2.012-11.68-2.979 2.51-4.987 5.83-5.655 9.76a17.192 17.192 0 0 0 .2 6.57 60.433 60.433 0 0 0-2.735-5.037c2.24-3.353 3.416-7.185 3.174-11.123-.23-4.01-1.892-7.616-4.544-10.572-2.27 3.384-3.502 7.251-3.234 11.254a16.003 16.003 0 0 0 1.161 5.254 57.749 57.749 0 0 0-3.407-4.212c1.724-3.794 2.304-7.806 1.509-11.646-.805-3.877-2.964-7.075-5.995-9.411-1.783 3.833-2.394 7.9-1.571 11.789a15.344 15.344 0 0 0 2.152 5.252c-.61-.557-1.22-1.1-1.864-1.628-.817-3.89-2.452-7.121-4.952-9.239-2.711-2.278-6.063-2.97-9.618-2.29.762 4.297 2.447 7.868 5.159 10.148 2.683 2.259 6 2.958 9.5 2.306a55.617 55.617 0 0 1 4.57 4.409 9.741 9.741 0 0 0-1.511-.857c-3.059-1.416-6.442-1.1-9.761.604 1.57 3.953 3.931 6.915 6.995 8.33 2.276 1.044 4.745 1.298 7.193.567.99-.3 1.925-.767 2.829-1.33a65.43 65.43 0 0 1 3.41 5.67c-2.536-2.43-5.77-3.397-9.27-3.063.436 4.352 1.93 8.077 4.49 10.608 2.535 2.525 5.795 3.533 9.378 3.197 1.195 3.546 1.931 6.422 2.597 10.197-.666-3.41-1.632-5.295-3.96-7.607-2.336-2.312-5.855-3.536-9.418-3.196.442 4.352 1.925 8.076 4.464 10.606 2.562 2.53 5.85 3.536 9.436 3.197-.03-.157.823 8.826.789 11.356-.292-2.715-1.074-5.198-2.444-7.287-2.046-3.139-5.104-4.985-8.656-5.593-.295 4.373.468 8.397 2.534 11.536 2.01 3.077 4.956 4.91 8.422 5.554-.209 4.329-.874 8.651-1.833 12.822.522-2.945.436-5.865-.406-8.584-1.172-3.748-3.616-6.63-6.855-8.53-1.367 4.05-1.627 8.177-.463 11.924 1.108 3.511 3.145 6.72 6.207 8.244.205.108.43.205.643.295a58.555 58.555 0 0 1-1.991 6.061c-.346.723-.637 1.49-.896 2.293a84.905 84.905 0 0 1-1.372 3.05c.935-2.374 1.372-4.894 1.224-7.463-.266-4-1.92-7.606-4.572-10.55-2.278 3.404-3.471 7.275-3.235 11.273.23 3.516 1.54 6.73 3.67 9.454.615.802.582.775.904 1.172-1.807 3.212-3.818 6.19-6.038 8.911a16.201 16.201 0 0 0 2.513-6.622c.584-3.95-.293-7.946-2.276-11.602-2.91 2.61-4.835 6-5.423 9.952-.552 3.937.33 7.923 2.304 11.572a58.092 58.092 0 0 1-6.52 5.88 14.763 14.763 0 0 0 2.3-3.918c1.43-3.614 1.485-7.752.375-11.93-3.378 1.553-6.003 4.168-7.433 7.78-1.364 3.506-1.451 7.508-.436 11.561a46.456 46.456 0 0 1-7.25 3.454 11.905 11.905 0 0 0 3.29-3.223c2.15-3.046 3.058-7.031 2.887-11.416-3.586.45-6.68 2.156-8.804 5.203-2.012 2.857-2.944 6.542-2.888 10.607-.394.057-4.33.127-4.719.2.026.66-.2 1.05 0 1.365 1.72-.336 7.351-.447 9.1-.426z"/><path fill="none" stroke="#b3711e" stroke-miterlimit="20" stroke-width=".75" d="M152.183 159.045c1.602 3.388 3.84 5.902 6.64 7.135 3.092 1.359 6.47.982 9.76-.784-1.633-3.922-4.02-6.84-7.113-8.199a9.725 9.725 0 0 0-4.485-.805 48.51 48.51 0 0 0 4.838-2.649c2.36 3.22 5.27 5.245 8.483 5.59 3.288.348 6.468-1.07 9.263-3.806-2.36-3.288-5.304-5.36-8.566-5.707-1.54-.163-3.034.058-4.52.621a55.668 55.668 0 0 0 4.72-4.166c2.859 2.426 6.006 3.573 9.155 3.045 3.265-.54 6.115-2.78 8.36-6.206-2.915-2.566-6.147-3.796-9.409-3.255-1.258.209-2.452.669-3.585 1.351a62.825 62.825 0 0 0 2.91-3.924c3.212 1.754 6.498 2.167 9.557.907 3.089-1.288 5.539-4.148 7.232-8.034-3.272-1.84-6.644-2.297-9.766-1.011-1.31.546-2.503 1.376-3.582 2.446a56.304 56.304 0 0 0 2.414-4.97c3.354.914 6.566.543 9.302-1.346 2.883-1.974 4.834-5.342 5.886-9.54-3.495-1.067-6.882-.748-9.733 1.224a12.575 12.575 0 0 0-2.831 2.77c.586-1.83 1.138-3.707 1.577-5.63.028-.072.028-.143.058-.216 3.437.506 6.675-.282 9.266-2.555 2.652-2.34 4.318-5.952 4.986-10.264-3.556-.598-6.878.17-9.561 2.51-1.572 1.396-2.828 3.245-3.702 5.425.439-2.48.729-4.96.906-7.432 3.378-.358 6.344-1.887 8.482-4.673 2.245-2.927 3.286-6.86 3.26-11.25-3.583.255-6.73 1.793-8.97 4.72-1.172 1.523-2.014 3.317-2.54 5.309 0-1.73-.09-3.448-.21-5.158 3.273-1.446 5.83-3.913 7.294-7.354 1.515-3.558 1.662-7.693.698-11.911-3.41 1.425-6.123 3.94-7.634 7.498a16.461 16.461 0 0 0-1.17 4.487 69.437 69.437 0 0 0-1.22-5.979c3.204-1.714 5.65-4.404 6.934-7.986 1.31-3.677 1.223-7.815 0-11.94-3.324 1.707-5.854 4.442-7.164 8.116-.879 2.457-1.147 5.118-.822 7.845-.64-2.042-1.367-4.017-1.981-6.055 2.712-2.465 4.602-5.655 5.221-9.396.664-3.929-.119-7.956-2.012-11.68-2.979 2.51-4.987 5.83-5.655 9.76a17.192 17.192 0 0 0 .2 6.57 60.433 60.433 0 0 0-2.735-5.037c2.24-3.353 3.416-7.185 3.174-11.123-.23-4.01-1.892-7.616-4.544-10.572-2.27 3.384-3.502 7.251-3.234 11.254a16.003 16.003 0 0 0 1.161 5.254 57.749 57.749 0 0 0-3.407-4.212c1.724-3.794 2.304-7.806 1.509-11.646-.805-3.877-2.964-7.075-5.995-9.411-1.783 3.833-2.394 7.9-1.571 11.789a15.344 15.344 0 0 0 2.152 5.252c-.61-.557-1.22-1.1-1.864-1.628-.817-3.89-2.452-7.121-4.952-9.239-2.711-2.278-6.063-2.97-9.618-2.29.762 4.297 2.447 7.868 5.159 10.148 2.683 2.259 6 2.958 9.5 2.306a55.617 55.617 0 0 1 4.57 4.409 9.741 9.741 0 0 0-1.511-.857c-3.059-1.416-6.442-1.1-9.761.604 1.57 3.953 3.931 6.915 6.995 8.33 2.276 1.044 4.745 1.298 7.193.567.99-.3 1.925-.767 2.829-1.33a65.43 65.43 0 0 1 3.41 5.67c-2.536-2.43-5.77-3.397-9.27-3.063.436 4.352 1.93 8.077 4.49 10.608 2.535 2.525 5.795 3.533 9.378 3.197 1.195 3.546 1.931 6.422 2.597 10.197-.666-3.41-1.632-5.295-3.96-7.607-2.336-2.312-5.855-3.536-9.418-3.196.442 4.352 1.925 8.076 4.464 10.606 2.562 2.53 5.85 3.536 9.436 3.197-.03-.157.823 8.826.789 11.356-.292-2.715-1.074-5.198-2.444-7.287-2.046-3.139-5.104-4.985-8.656-5.593-.295 4.373.468 8.397 2.534 11.536 2.01 3.077 4.956 4.91 8.422 5.554-.209 4.329-.874 8.651-1.833 12.822.522-2.945.436-5.865-.406-8.584-1.172-3.748-3.616-6.63-6.855-8.53-1.367 4.05-1.627 8.177-.463 11.924 1.108 3.511 3.145 6.72 6.207 8.244.205.108.43.205.643.295a58.555 58.555 0 0 1-1.991 6.061c-.346.723-.637 1.49-.896 2.293a84.905 84.905 0 0 1-1.372 3.05c.935-2.374 1.372-4.894 1.224-7.463-.266-4-1.92-7.606-4.572-10.55-2.278 3.404-3.471 7.275-3.235 11.273.23 3.516 1.54 6.73 3.67 9.454.615.802.582.775.904 1.172-1.807 3.212-3.818 6.19-6.038 8.911a16.201 16.201 0 0 0 2.513-6.622c.584-3.95-.293-7.946-2.276-11.602-2.91 2.61-4.835 6-5.423 9.952-.552 3.937.33 7.923 2.304 11.572a58.092 58.092 0 0 1-6.52 5.88 14.763 14.763 0 0 0 2.3-3.918c1.43-3.614 1.485-7.752.375-11.93-3.378 1.553-6.003 4.168-7.433 7.78-1.364 3.506-1.451 7.508-.436 11.561a46.456 46.456 0 0 1-7.25 3.454 11.905 11.905 0 0 0 3.29-3.223c2.15-3.046 3.058-7.031 2.887-11.416-3.586.45-6.68 2.156-8.804 5.203-2.012 2.857-2.944 6.542-2.888 10.607-.394.057-4.33.127-4.719.2.026.66-.2 1.05 0 1.365 1.72-.336 7.351-.447 9.1-.426z"/></g><g><path fill="url(#ilwab)" d="M51.817 159.045c-1.602 3.388-3.84 5.902-6.64 7.135-3.092 1.359-6.47.982-9.76-.784 1.633-3.922 4.02-6.84 7.113-8.199a9.725 9.725 0 0 1 4.485-.805 48.51 48.51 0 0 1-4.838-2.649c-2.36 3.22-5.27 5.245-8.483 5.59-3.288.348-6.468-1.07-9.263-3.806 2.36-3.288 5.304-5.36 8.566-5.707 1.54-.163 3.034.058 4.52.621a55.668 55.668 0 0 1-4.72-4.166c-2.859 2.426-6.006 3.573-9.155 3.045-3.265-.54-6.115-2.78-8.36-6.206 2.915-2.566 6.147-3.796 9.409-3.255 1.258.209 2.452.669 3.585 1.351a62.825 62.825 0 0 1-2.91-3.924c-3.212 1.754-6.498 2.167-9.557.907-3.089-1.288-5.539-4.148-7.232-8.034 3.272-1.84 6.644-2.297 9.766-1.011 1.31.546 2.503 1.376 3.582 2.446a56.304 56.304 0 0 1-2.414-4.97c-3.354.914-6.566.543-9.302-1.346-2.883-1.974-4.834-5.342-5.886-9.54 3.495-1.067 6.882-.748 9.733 1.224a12.575 12.575 0 0 1 2.831 2.77c-.586-1.83-1.138-3.707-1.577-5.63-.028-.072-.028-.143-.058-.216-3.437.506-6.675-.282-9.266-2.555-2.652-2.34-4.318-5.952-4.986-10.264 3.556-.598 6.878.17 9.561 2.51 1.572 1.396 2.828 3.245 3.702 5.425a72.318 72.318 0 0 1-.906-7.432c-3.378-.358-6.344-1.887-8.482-4.673-2.245-2.927-3.286-6.86-3.26-11.25 3.583.255 6.73 1.793 8.97 4.72 1.172 1.523 2.014 3.317 2.54 5.309 0-1.73.09-3.448.21-5.158-3.273-1.446-5.83-3.913-7.294-7.354-1.515-3.558-1.662-7.693-.698-11.911 3.41 1.425 6.123 3.94 7.634 7.498a16.461 16.461 0 0 1 1.17 4.487 69.437 69.437 0 0 1 1.22-5.979c-3.204-1.714-5.65-4.404-6.934-7.986-1.31-3.677-1.223-7.815 0-11.94 3.324 1.707 5.854 4.442 7.164 8.116.879 2.457 1.147 5.118.822 7.845.64-2.042 1.367-4.017 1.981-6.055-2.712-2.465-4.602-5.655-5.22-9.396-.665-3.929.118-7.956 2.01-11.68 2.98 2.51 4.988 5.83 5.656 9.76.35 2.182.296 4.395-.2 6.57a60.433 60.433 0 0 1 2.735-5.037c-2.24-3.353-3.416-7.185-3.174-11.123.23-4.01 1.892-7.616 4.544-10.572 2.27 3.384 3.502 7.251 3.234 11.254a16.003 16.003 0 0 1-1.161 5.254 57.749 57.749 0 0 1 3.407-4.212c-1.724-3.794-2.304-7.806-1.509-11.646.805-3.877 2.964-7.075 5.995-9.411 1.783 3.833 2.394 7.9 1.571 11.789a15.344 15.344 0 0 1-2.152 5.252c.61-.557 1.22-1.1 1.864-1.628.817-3.89 2.452-7.121 4.952-9.239 2.711-2.278 6.063-2.97 9.618-2.29-.762 4.297-2.447 7.868-5.159 10.148-2.683 2.259-6 2.958-9.5 2.306a55.617 55.617 0 0 0-4.57 4.409 9.741 9.741 0 0 1 1.511-.857c3.059-1.416 6.442-1.1 9.761.604-1.57 3.953-3.931 6.915-6.995 8.33-2.276 1.044-4.745 1.298-7.193.567-.99-.3-1.925-.767-2.829-1.33a65.43 65.43 0 0 0-3.41 5.67c2.536-2.43 5.77-3.397 9.27-3.063-.436 4.352-1.93 8.077-4.49 10.608-2.535 2.525-5.795 3.533-9.378 3.197-1.195 3.546-1.931 6.422-2.597 10.197.666-3.41 1.632-5.295 3.96-7.607 2.336-2.312 5.855-3.536 9.418-3.196-.442 4.352-1.925 8.076-4.464 10.606-2.562 2.53-5.85 3.536-9.436 3.197.03-.157-.823 8.826-.789 11.356.292-2.715 1.074-5.198 2.444-7.287 2.046-3.139 5.104-4.985 8.656-5.593.295 4.373-.468 8.397-2.534 11.536-2.01 3.077-4.956 4.91-8.422 5.554.209 4.329.874 8.651 1.833 12.822-.522-2.945-.436-5.865.406-8.584 1.172-3.748 3.616-6.63 6.855-8.53 1.367 4.05 1.627 8.177.463 11.924-1.108 3.511-3.145 6.72-6.207 8.244-.205.108-.43.205-.643.295a58.555 58.555 0 0 0 1.991 6.061c.346.723.637 1.49.896 2.293a84.905 84.905 0 0 0 1.372 3.05c-.935-2.374-1.372-4.894-1.224-7.463.266-4 1.92-7.606 4.572-10.55 2.278 3.404 3.471 7.275 3.235 11.273-.23 3.516-1.54 6.73-3.67 9.454-.615.802-.582.775-.904 1.172 1.807 3.212 3.818 6.19 6.038 8.911a16.201 16.201 0 0 1-2.513-6.622c-.584-3.95.293-7.946 2.276-11.602 2.91 2.61 4.835 6 5.423 9.952.552 3.937-.33 7.923-2.304 11.572a58.092 58.092 0 0 0 6.52 5.88 14.763 14.763 0 0 1-2.3-3.918c-1.43-3.614-1.485-7.752-.375-11.93 3.378 1.553 6.003 4.168 7.433 7.78 1.364 3.506 1.451 7.508.436 11.561a46.456 46.456 0 0 0 7.25 3.454 11.905 11.905 0 0 1-3.29-3.223c-2.15-3.046-3.058-7.031-2.887-11.416 3.586.45 6.68 2.156 8.804 5.203 2.012 2.857 2.944 6.542 2.888 10.607.394.057 4.33.127 4.719.2-.026.66.2 1.05 0 1.365-1.72-.336-7.351-.447-9.1-.426z"/><path fill="none" stroke="#b3711e" stroke-miterlimit="20" stroke-width=".75" d="M51.817 159.045c-1.602 3.388-3.84 5.902-6.64 7.135-3.092 1.359-6.47.982-9.76-.784 1.633-3.922 4.02-6.84 7.113-8.199a9.725 9.725 0 0 1 4.485-.805 48.51 48.51 0 0 1-4.838-2.649c-2.36 3.22-5.27 5.245-8.483 5.59-3.288.348-6.468-1.07-9.263-3.806 2.36-3.288 5.304-5.36 8.566-5.707 1.54-.163 3.034.058 4.52.621a55.668 55.668 0 0 1-4.72-4.166c-2.859 2.426-6.006 3.573-9.155 3.045-3.265-.54-6.115-2.78-8.36-6.206 2.915-2.566 6.147-3.796 9.409-3.255 1.258.209 2.452.669 3.585 1.351a62.825 62.825 0 0 1-2.91-3.924c-3.212 1.754-6.498 2.167-9.557.907-3.089-1.288-5.539-4.148-7.232-8.034 3.272-1.84 6.644-2.297 9.766-1.011 1.31.546 2.503 1.376 3.582 2.446a56.304 56.304 0 0 1-2.414-4.97c-3.354.914-6.566.543-9.302-1.346-2.883-1.974-4.834-5.342-5.886-9.54 3.495-1.067 6.882-.748 9.733 1.224a12.575 12.575 0 0 1 2.831 2.77c-.586-1.83-1.138-3.707-1.577-5.63-.028-.072-.028-.143-.058-.216-3.437.506-6.675-.282-9.266-2.555-2.652-2.34-4.318-5.952-4.986-10.264 3.556-.598 6.878.17 9.561 2.51 1.572 1.396 2.828 3.245 3.702 5.425a72.318 72.318 0 0 1-.906-7.432c-3.378-.358-6.344-1.887-8.482-4.673-2.245-2.927-3.286-6.86-3.26-11.25 3.583.255 6.73 1.793 8.97 4.72 1.172 1.523 2.014 3.317 2.54 5.309 0-1.73.09-3.448.21-5.158-3.273-1.446-5.83-3.913-7.294-7.354-1.515-3.558-1.662-7.693-.698-11.911 3.41 1.425 6.123 3.94 7.634 7.498a16.461 16.461 0 0 1 1.17 4.487 69.437 69.437 0 0 1 1.22-5.979c-3.204-1.714-5.65-4.404-6.934-7.986-1.31-3.677-1.223-7.815 0-11.94 3.324 1.707 5.854 4.442 7.164 8.116.879 2.457 1.147 5.118.822 7.845.64-2.042 1.367-4.017 1.981-6.055-2.712-2.465-4.602-5.655-5.22-9.396-.665-3.929.118-7.956 2.01-11.68 2.98 2.51 4.988 5.83 5.656 9.76.35 2.182.296 4.395-.2 6.57a60.433 60.433 0 0 1 2.735-5.037c-2.24-3.353-3.416-7.185-3.174-11.123.23-4.01 1.892-7.616 4.544-10.572 2.27 3.384 3.502 7.251 3.234 11.254a16.003 16.003 0 0 1-1.161 5.254 57.749 57.749 0 0 1 3.407-4.212c-1.724-3.794-2.304-7.806-1.509-11.646.805-3.877 2.964-7.075 5.995-9.411 1.783 3.833 2.394 7.9 1.571 11.789a15.344 15.344 0 0 1-2.152 5.252c.61-.557 1.22-1.1 1.864-1.628.817-3.89 2.452-7.121 4.952-9.239 2.711-2.278 6.063-2.97 9.618-2.29-.762 4.297-2.447 7.868-5.159 10.148-2.683 2.259-6 2.958-9.5 2.306a55.617 55.617 0 0 0-4.57 4.409 9.741 9.741 0 0 1 1.511-.857c3.059-1.416 6.442-1.1 9.761.604-1.57 3.953-3.931 6.915-6.995 8.33-2.276 1.044-4.745 1.298-7.193.567-.99-.3-1.925-.767-2.829-1.33a65.43 65.43 0 0 0-3.41 5.67c2.536-2.43 5.77-3.397 9.27-3.063-.436 4.352-1.93 8.077-4.49 10.608-2.535 2.525-5.795 3.533-9.378 3.197-1.195 3.546-1.931 6.422-2.597 10.197.666-3.41 1.632-5.295 3.96-7.607 2.336-2.312 5.855-3.536 9.418-3.196-.442 4.352-1.925 8.076-4.464 10.606-2.562 2.53-5.85 3.536-9.436 3.197.03-.157-.823 8.826-.789 11.356.292-2.715 1.074-5.198 2.444-7.287 2.046-3.139 5.104-4.985 8.656-5.593.295 4.373-.468 8.397-2.534 11.536-2.01 3.077-4.956 4.91-8.422 5.554.209 4.329.874 8.651 1.833 12.822-.522-2.945-.436-5.865.406-8.584 1.172-3.748 3.616-6.63 6.855-8.53 1.367 4.05 1.627 8.177.463 11.924-1.108 3.511-3.145 6.72-6.207 8.244-.205.108-.43.205-.643.295a58.555 58.555 0 0 0 1.991 6.061c.346.723.637 1.49.896 2.293a84.905 84.905 0 0 0 1.372 3.05c-.935-2.374-1.372-4.894-1.224-7.463.266-4 1.92-7.606 4.572-10.55 2.278 3.404 3.471 7.275 3.235 11.273-.23 3.516-1.54 6.73-3.67 9.454-.615.802-.582.775-.904 1.172 1.807 3.212 3.818 6.19 6.038 8.911a16.201 16.201 0 0 1-2.513-6.622c-.584-3.95.293-7.946 2.276-11.602 2.91 2.61 4.835 6 5.423 9.952.552 3.937-.33 7.923-2.304 11.572a58.092 58.092 0 0 0 6.52 5.88 14.763 14.763 0 0 1-2.3-3.918c-1.43-3.614-1.485-7.752-.375-11.93 3.378 1.553 6.003 4.168 7.433 7.78 1.364 3.506 1.451 7.508.436 11.561a46.456 46.456 0 0 0 7.25 3.454 11.905 11.905 0 0 1-3.29-3.223c-2.15-3.046-3.058-7.031-2.887-11.416 3.586.45 6.68 2.156 8.804 5.203 2.012 2.857 2.944 6.542 2.888 10.607.394.057 4.33.127 4.719.2-.026.66.2 1.05 0 1.365-1.72-.336-7.351-.447-9.1-.426z"/></g><g><path fill="url(#ilwac)" d="M67.12 28a.716.716 0 0 1-.419-.136l-4.7-3.388-4.7 3.388a.716.716 0 0 1-.84 0 .705.705 0 0 1-.26-.791l1.796-5.483-4.702-3.388a.705.705 0 0 1-.26-.792.714.714 0 0 1 .68-.49h5.81l1.796-5.482c.191-.584 1.166-.584 1.358 0l1.795 5.482h5.811c.31 0 .584.198.68.49a.703.703 0 0 1-.26.792l-4.7 3.388 1.795 5.483a.703.703 0 0 1-.26.791.716.716 0 0 1-.42.136zm80 0a.716.716 0 0 1-.419-.136l-4.7-3.388-4.7 3.388a.716.716 0 0 1-.84 0 .705.705 0 0 1-.26-.791l1.796-5.483-4.702-3.388a.705.705 0 0 1-.26-.792.714.714 0 0 1 .68-.49h5.81l1.796-5.482c.191-.584 1.166-.584 1.358 0l1.795 5.482h5.811c.31 0 .584.198.68.49a.703.703 0 0 1-.26.792l-4.7 3.388 1.795 5.483a.703.703 0 0 1-.26.791.716.716 0 0 1-.42.136zm-20-6a.716.716 0 0 1-.419-.136l-4.7-3.388-4.7 3.388a.716.716 0 0 1-.84 0 .705.705 0 0 1-.26-.791l1.796-5.483-4.702-3.388a.705.705 0 0 1-.26-.792.714.714 0 0 1 .68-.49h5.81l1.796-5.482c.191-.584 1.166-.584 1.358 0l1.795 5.482h5.811c.31 0 .584.198.68.49a.703.703 0 0 1-.26.792l-4.7 3.388 1.795 5.483a.703.703 0 0 1-.26.791.716.716 0 0 1-.42.136zm-40 0a.716.716 0 0 1-.419-.136l-4.7-3.388-4.7 3.388a.716.716 0 0 1-.84 0 .705.705 0 0 1-.26-.791l1.796-5.483-4.702-3.388a.705.705 0 0 1-.26-.792.714.714 0 0 1 .68-.49h5.81l1.796-5.482c.191-.584 1.166-.584 1.358 0l1.795 5.482h5.811c.31 0 .584.198.68.49a.703.703 0 0 1-.26.792l-4.7 3.388 1.795 5.483a.703.703 0 0 1-.26.791.716.716 0 0 1-.42.136zm20-4a.716.716 0 0 1-.419-.136l-4.7-3.388-4.7 3.388a.716.716 0 0 1-.84 0 .705.705 0 0 1-.26-.791l1.796-5.483-4.702-3.388a.705.705 0 0 1-.26-.792.714.714 0 0 1 .68-.49h5.81l1.796-5.482c.191-.584 1.166-.584 1.358 0l1.795 5.482h5.811c.31 0 .584.198.68.49a.703.703 0 0 1-.26.792l-4.7 3.388 1.795 5.483a.703.703 0 0 1-.26.791.716.716 0 0 1-.42.136z"/><path fill="none" stroke="#b3711e" stroke-miterlimit="20" stroke-width=".75" d="M67.12 28a.716.716 0 0 1-.419-.136l-4.7-3.388-4.7 3.388a.716.716 0 0 1-.84 0 .705.705 0 0 1-.26-.791l1.796-5.483-4.702-3.388a.705.705 0 0 1-.26-.792.714.714 0 0 1 .68-.49h5.81l1.796-5.482c.191-.584 1.166-.584 1.358 0l1.795 5.482h5.811c.31 0 .584.198.68.49a.703.703 0 0 1-.26.792l-4.7 3.388 1.795 5.483a.703.703 0 0 1-.26.791.716.716 0 0 1-.42.136zm80 0a.716.716 0 0 1-.419-.136l-4.7-3.388-4.7 3.388a.716.716 0 0 1-.84 0 .705.705 0 0 1-.26-.791l1.796-5.483-4.702-3.388a.705.705 0 0 1-.26-.792.714.714 0 0 1 .68-.49h5.81l1.796-5.482c.191-.584 1.166-.584 1.358 0l1.795 5.482h5.811c.31 0 .584.198.68.49a.703.703 0 0 1-.26.792l-4.7 3.388 1.795 5.483a.703.703 0 0 1-.26.791.716.716 0 0 1-.42.136zm-20-6a.716.716 0 0 1-.419-.136l-4.7-3.388-4.7 3.388a.716.716 0 0 1-.84 0 .705.705 0 0 1-.26-.791l1.796-5.483-4.702-3.388a.705.705 0 0 1-.26-.792.714.714 0 0 1 .68-.49h5.81l1.796-5.482c.191-.584 1.166-.584 1.358 0l1.795 5.482h5.811c.31 0 .584.198.68.49a.703.703 0 0 1-.26.792l-4.7 3.388 1.795 5.483a.703.703 0 0 1-.26.791.716.716 0 0 1-.42.136zm-40 0a.716.716 0 0 1-.419-.136l-4.7-3.388-4.7 3.388a.716.716 0 0 1-.84 0 .705.705 0 0 1-.26-.791l1.796-5.483-4.702-3.388a.705.705 0 0 1-.26-.792.714.714 0 0 1 .68-.49h5.81l1.796-5.482c.191-.584 1.166-.584 1.358 0l1.795 5.482h5.811c.31 0 .584.198.68.49a.703.703 0 0 1-.26.792l-4.7 3.388 1.795 5.483a.703.703 0 0 1-.26.791.716.716 0 0 1-.42.136zm20-4a.716.716 0 0 1-.419-.136l-4.7-3.388-4.7 3.388a.716.716 0 0 1-.84 0 .705.705 0 0 1-.26-.791l1.796-5.483-4.702-3.388a.705.705 0 0 1-.26-.792.714.714 0 0 1 .68-.49h5.81l1.796-5.482c.191-.584 1.166-.584 1.358 0l1.795 5.482h5.811c.31 0 .584.198.68.49a.703.703 0 0 1-.26.792l-4.7 3.388 1.795 5.483a.703.703 0 0 1-.26.791.716.716 0 0 1-.42.136z"/></g><g><path fill="#252529" d="M147.79 87.998v-16.8h12.696v3.12h-8.832v3.648h7.8v3.024h-7.8v3.888h9.144v3.12zm-11.352 0V74.366h-5.376v-3.168h14.64v3.168h-5.376v13.632zm-11.352 0v-16.8h3.878v16.8zm-13.644-.252c-1.24-.36-2.236-.828-2.988-1.404l1.32-2.928c.72.528 1.576.952 2.568 1.272.992.32 1.984.48 2.976.48 1.104 0 1.92-.164 2.448-.492.528-.328.792-.764.792-1.308 0-.4-.156-.732-.468-.996-.312-.264-.712-.476-1.2-.636a23.886 23.886 0 0 0-1.98-.528c-1.28-.304-2.328-.608-3.144-.912a5.108 5.108 0 0 1-2.1-1.464c-.584-.672-.876-1.568-.876-2.688 0-.976.264-1.86.792-2.652s1.324-1.42 2.388-1.884c1.064-.464 2.364-.696 3.9-.696 1.072 0 2.12.128 3.144.384s1.92.624 2.688 1.104l-1.2 2.952c-1.552-.88-3.104-1.32-4.656-1.32-1.088 0-1.892.176-2.412.528-.52.352-.78.816-.78 1.392s.3 1.004.9 1.284c.6.28 1.516.556 2.748.828 1.28.304 2.328.608 3.144.912a5.206 5.206 0 0 1 2.1 1.44c.584.656.876 1.544.876 2.664 0 .96-.268 1.836-.804 2.628s-1.34 1.42-2.412 1.884c-1.072.464-2.376.696-3.912.696-1.328 0-2.612-.18-3.852-.54zm-31.38.252v-16.8h3.216l6.288 10.44 6.192-10.44h3.192l.048 16.8H95.35l-.024-10.08-4.944 8.304H88.63l-4.92-8.088v9.864zM68.854 75.014l-2.664 6.442h5.328zM59.47 87.998l7.488-16.8h3.84l7.512 16.8h-4.08l-1.488-3.6h-7.8l-1.488 3.6zm-11.988-.828a8.329 8.329 0 0 1-3.264-3.096c-.792-1.32-1.188-2.812-1.188-4.476 0-1.664.396-3.156 1.188-4.476a8.329 8.329 0 0 1 3.264-3.096c1.384-.744 2.94-1.116 4.668-1.116 1.456 0 2.772.256 3.948.768a7.908 7.908 0 0 1 2.964 2.208l-2.496 2.304c-1.136-1.312-2.544-1.968-4.224-1.968-1.04 0-1.968.228-2.784.684a4.862 4.862 0 0 0-1.908 1.908c-.456.816-.684 1.744-.684 2.784 0 1.04.228 1.968.684 2.784a4.862 4.862 0 0 0 1.908 1.908c.816.456 1.744.684 2.784.684 1.68 0 3.088-.664 4.224-1.992l2.496 2.304a7.78 7.78 0 0 1-2.976 2.232c-1.184.512-2.504.768-3.96.768-1.712 0-3.26-.372-4.644-1.116z"/><path fill="url(#ilwad)" d="M147.79 87.998v-16.8h12.696v3.12h-8.832v3.648h7.8v3.024h-7.8v3.888h9.144v3.12zm-11.352 0V74.366h-5.376v-3.168h14.64v3.168h-5.376v13.632zm-11.352 0v-16.8h3.878v16.8zm-13.644-.252c-1.24-.36-2.236-.828-2.988-1.404l1.32-2.928c.72.528 1.576.952 2.568 1.272.992.32 1.984.48 2.976.48 1.104 0 1.92-.164 2.448-.492.528-.328.792-.764.792-1.308 0-.4-.156-.732-.468-.996-.312-.264-.712-.476-1.2-.636a23.886 23.886 0 0 0-1.98-.528c-1.28-.304-2.328-.608-3.144-.912a5.108 5.108 0 0 1-2.1-1.464c-.584-.672-.876-1.568-.876-2.688 0-.976.264-1.86.792-2.652s1.324-1.42 2.388-1.884c1.064-.464 2.364-.696 3.9-.696 1.072 0 2.12.128 3.144.384s1.92.624 2.688 1.104l-1.2 2.952c-1.552-.88-3.104-1.32-4.656-1.32-1.088 0-1.892.176-2.412.528-.52.352-.78.816-.78 1.392s.3 1.004.9 1.284c.6.28 1.516.556 2.748.828 1.28.304 2.328.608 3.144.912a5.206 5.206 0 0 1 2.1 1.44c.584.656.876 1.544.876 2.664 0 .96-.268 1.836-.804 2.628s-1.34 1.42-2.412 1.884c-1.072.464-2.376.696-3.912.696-1.328 0-2.612-.18-3.852-.54zm-31.38.252v-16.8h3.216l6.288 10.44 6.192-10.44h3.192l.048 16.8H95.35l-.024-10.08-4.944 8.304H88.63l-4.92-8.088v9.864zM68.854 75.014l-2.664 6.442h5.328zM59.47 87.998l7.488-16.8h3.84l7.512 16.8h-4.08l-1.488-3.6h-7.8l-1.488 3.6zm-11.988-.828a8.329 8.329 0 0 1-3.264-3.096c-.792-1.32-1.188-2.812-1.188-4.476 0-1.664.396-3.156 1.188-4.476a8.329 8.329 0 0 1 3.264-3.096c1.384-.744 2.94-1.116 4.668-1.116 1.456 0 2.772.256 3.948.768a7.908 7.908 0 0 1 2.964 2.208l-2.496 2.304c-1.136-1.312-2.544-1.968-4.224-1.968-1.04 0-1.968.228-2.784.684a4.862 4.862 0 0 0-1.908 1.908c-.456.816-.684 1.744-.684 2.784 0 1.04.228 1.968.684 2.784a4.862 4.862 0 0 0 1.908 1.908c.816.456 1.744.684 2.784.684 1.68 0 3.088-.664 4.224-1.992l2.496 2.304a7.78 7.78 0 0 1-2.976 2.232c-1.184.512-2.504.768-3.96.768-1.712 0-3.26-.372-4.644-1.116z"/><path fill="none" stroke="#b3711e" stroke-miterlimit="20" stroke-width=".75" d="M147.79 87.998v-16.8h12.696v3.12h-8.832v3.648h7.8v3.024h-7.8v3.888h9.144v3.12zm-11.352 0V74.366h-5.376v-3.168h14.64v3.168h-5.376v13.632zm-11.352 0v-16.8h3.878v16.8zm-13.644-.252c-1.24-.36-2.236-.828-2.988-1.404l1.32-2.928c.72.528 1.576.952 2.568 1.272.992.32 1.984.48 2.976.48 1.104 0 1.92-.164 2.448-.492.528-.328.792-.764.792-1.308 0-.4-.156-.732-.468-.996-.312-.264-.712-.476-1.2-.636a23.886 23.886 0 0 0-1.98-.528c-1.28-.304-2.328-.608-3.144-.912a5.108 5.108 0 0 1-2.1-1.464c-.584-.672-.876-1.568-.876-2.688 0-.976.264-1.86.792-2.652s1.324-1.42 2.388-1.884c1.064-.464 2.364-.696 3.9-.696 1.072 0 2.12.128 3.144.384s1.92.624 2.688 1.104l-1.2 2.952c-1.552-.88-3.104-1.32-4.656-1.32-1.088 0-1.892.176-2.412.528-.52.352-.78.816-.78 1.392s.3 1.004.9 1.284c.6.28 1.516.556 2.748.828 1.28.304 2.328.608 3.144.912a5.206 5.206 0 0 1 2.1 1.44c.584.656.876 1.544.876 2.664 0 .96-.268 1.836-.804 2.628s-1.34 1.42-2.412 1.884c-1.072.464-2.376.696-3.912.696-1.328 0-2.612-.18-3.852-.54zm-31.38.252v-16.8h3.216l6.288 10.44 6.192-10.44h3.192l.048 16.8H95.35l-.024-10.08-4.944 8.304H88.63l-4.92-8.088v9.864zM68.854 75.014l-2.664 6.442h5.328zM59.47 87.998l7.488-16.8h3.84l7.512 16.8h-4.08l-1.488-3.6h-7.8l-1.488 3.6zm-11.988-.828a8.329 8.329 0 0 1-3.264-3.096c-.792-1.32-1.188-2.812-1.188-4.476 0-1.664.396-3.156 1.188-4.476a8.329 8.329 0 0 1 3.264-3.096c1.384-.744 2.94-1.116 4.668-1.116 1.456 0 2.772.256 3.948.768a7.908 7.908 0 0 1 2.964 2.208l-2.496 2.304c-1.136-1.312-2.544-1.968-4.224-1.968-1.04 0-1.968.228-2.784.684a4.862 4.862 0 0 0-1.908 1.908c-.456.816-.684 1.744-.684 2.784 0 1.04.228 1.968.684 2.784a4.862 4.862 0 0 0 1.908 1.908c.816.456 1.744.684 2.784.684 1.68 0 3.088-.664 4.224-1.992l2.496 2.304a7.78 7.78 0 0 1-2.976 2.232c-1.184.512-2.504.768-3.96.768-1.712 0-3.26-.372-4.644-1.116z"/></g><g><path fill="#252529" d="M153.624 106.5v-4.154h2.235c.824 0 1.45.179 1.88.536.428.358.643.872.643 1.541 0 .659-.215 1.17-.644 1.533-.428.363-1.055.545-1.879.545zm-.002 5.504v-3.315h2.53l2.294 3.315h2.955l-2.667-3.825c.782-.34 1.385-.83 1.81-1.47.424-.64.636-1.403.636-2.287 0-.884-.21-1.65-.628-2.295-.42-.646-1.017-1.145-1.792-1.496-.776-.351-1.69-.527-2.743-.527h-5.147v11.9zm-8.814-4.647h-3.765l1.882-4.552zm-5.707 4.647l1.052-2.55h5.518l1.052 2.55h2.886l-5.313-11.9h-2.717l-5.296 11.9zm-3.447 0v-2.21h-6.478v-2.754h5.526v-2.142h-5.526v-2.584h6.257v-2.21h-8.994v11.9zm-14.995 0v-4.216l4.624-7.684h-2.703l-3.18 5.287-3.179-5.287h-2.924l4.607 7.65v4.25zm-12.718 0v-2.21h-6.477v-2.754h5.525v-2.142h-5.525v-2.584h6.256v-2.21h-8.993v11.9zm-20.2 0v-4.879h5.402v4.88h2.751v-11.901h-2.751v4.692H87.74v-4.692H84.99v11.9zm-8.045 0v-9.656H83.5v-2.244H73.14v2.244h3.804v9.656zm-18.138 0v-4.335h5.503v-2.21h-5.503v-3.145h6.233v-2.21h-8.984v11.9zm-11.346-2.15c-.701 0-1.334-.161-1.9-.484a3.471 3.471 0 0 1-1.33-1.35c-.323-.578-.484-1.235-.484-1.971s.161-1.393.483-1.97a3.471 3.471 0 0 1 1.332-1.35 3.761 3.761 0 0 1 1.899-.485c.7 0 1.333.161 1.899.484a3.471 3.471 0 0 1 1.33 1.35c.323.578.484 1.235.484 1.971s-.161 1.393-.483 1.97a3.471 3.471 0 0 1-1.331 1.35 3.761 3.761 0 0 1-1.9.485zm.005 2.354c1.234 0 2.344-.266 3.33-.799a6.005 6.005 0 0 0 2.327-2.202c.566-.935.85-1.986.85-3.153s-.284-2.219-.85-3.154a6.005 6.005 0 0 0-2.328-2.201c-.985-.533-2.095-.799-3.33-.799-1.234 0-2.347.266-3.338.799a5.928 5.928 0 0 0-2.327 2.201c-.56.935-.841 1.987-.841 3.154 0 1.167.28 2.218.84 3.153a5.928 5.928 0 0 0 2.328 2.202c.991.533 2.104.799 3.339.799z"/><path fill="url(#ilwae)" d="M153.624 106.5v-4.154h2.235c.824 0 1.45.179 1.88.536.428.358.643.872.643 1.541 0 .659-.215 1.17-.644 1.533-.428.363-1.055.545-1.879.545zm-.002 5.504v-3.315h2.53l2.294 3.315h2.955l-2.667-3.825c.782-.34 1.385-.83 1.81-1.47.424-.64.636-1.403.636-2.287 0-.884-.21-1.65-.628-2.295-.42-.646-1.017-1.145-1.792-1.496-.776-.351-1.69-.527-2.743-.527h-5.147v11.9zm-8.814-4.647h-3.765l1.882-4.552zm-5.707 4.647l1.052-2.55h5.518l1.052 2.55h2.886l-5.313-11.9h-2.717l-5.296 11.9zm-3.447 0v-2.21h-6.478v-2.754h5.526v-2.142h-5.526v-2.584h6.257v-2.21h-8.994v11.9zm-14.995 0v-4.216l4.624-7.684h-2.703l-3.18 5.287-3.179-5.287h-2.924l4.607 7.65v4.25zm-12.718 0v-2.21h-6.477v-2.754h5.525v-2.142h-5.525v-2.584h6.256v-2.21h-8.993v11.9zm-20.2 0v-4.879h5.402v4.88h2.751v-11.901h-2.751v4.692H87.74v-4.692H84.99v11.9zm-8.045 0v-9.656H83.5v-2.244H73.14v2.244h3.804v9.656zm-18.138 0v-4.335h5.503v-2.21h-5.503v-3.145h6.233v-2.21h-8.984v11.9zm-11.346-2.15c-.701 0-1.334-.161-1.9-.484a3.471 3.471 0 0 1-1.33-1.35c-.323-.578-.484-1.235-.484-1.971s.161-1.393.483-1.97a3.471 3.471 0 0 1 1.332-1.35 3.761 3.761 0 0 1 1.899-.485c.7 0 1.333.161 1.899.484a3.471 3.471 0 0 1 1.33 1.35c.323.578.484 1.235.484 1.971s-.161 1.393-.483 1.97a3.471 3.471 0 0 1-1.331 1.35 3.761 3.761 0 0 1-1.9.485zm.005 2.354c1.234 0 2.344-.266 3.33-.799a6.005 6.005 0 0 0 2.327-2.202c.566-.935.85-1.986.85-3.153s-.284-2.219-.85-3.154a6.005 6.005 0 0 0-2.328-2.201c-.985-.533-2.095-.799-3.33-.799-1.234 0-2.347.266-3.338.799a5.928 5.928 0 0 0-2.327 2.201c-.56.935-.841 1.987-.841 3.154 0 1.167.28 2.218.84 3.153a5.928 5.928 0 0 0 2.328 2.202c.991.533 2.104.799 3.339.799z"/><path fill="none" stroke="#b3711e" stroke-miterlimit="20" stroke-width=".75" d="M153.624 106.5v-4.154h2.235c.824 0 1.45.179 1.88.536.428.358.643.872.643 1.541 0 .659-.215 1.17-.644 1.533-.428.363-1.055.545-1.879.545zm-.002 5.504v-3.315h2.53l2.294 3.315h2.955l-2.667-3.825c.782-.34 1.385-.83 1.81-1.47.424-.64.636-1.403.636-2.287 0-.884-.21-1.65-.628-2.295-.42-.646-1.017-1.145-1.792-1.496-.776-.351-1.69-.527-2.743-.527h-5.147v11.9zm-8.814-4.647h-3.765l1.882-4.552zm-5.707 4.647l1.052-2.55h5.518l1.052 2.55h2.886l-5.313-11.9h-2.717l-5.296 11.9zm-3.447 0v-2.21h-6.478v-2.754h5.526v-2.142h-5.526v-2.584h6.257v-2.21h-8.994v11.9zm-14.995 0v-4.216l4.624-7.684h-2.703l-3.18 5.287-3.179-5.287h-2.924l4.607 7.65v4.25zm-12.718 0v-2.21h-6.477v-2.754h5.525v-2.142h-5.525v-2.584h6.256v-2.21h-8.993v11.9zm-20.2 0v-4.879h5.402v4.88h2.751v-11.901h-2.751v4.692H87.74v-4.692H84.99v11.9zm-8.045 0v-9.656H83.5v-2.244H73.14v2.244h3.804v9.656zm-18.138 0v-4.335h5.503v-2.21h-5.503v-3.145h6.233v-2.21h-8.984v11.9zm-11.346-2.15c-.701 0-1.334-.161-1.9-.484a3.471 3.471 0 0 1-1.33-1.35c-.323-.578-.484-1.235-.484-1.971s.161-1.393.483-1.97a3.471 3.471 0 0 1 1.332-1.35 3.761 3.761 0 0 1 1.899-.485c.7 0 1.333.161 1.899.484a3.471 3.471 0 0 1 1.33 1.35c.323.578.484 1.235.484 1.971s-.161 1.393-.483 1.97a3.471 3.471 0 0 1-1.331 1.35 3.761 3.761 0 0 1-1.9.485zm.005 2.354c1.234 0 2.344-.266 3.33-.799a6.005 6.005 0 0 0 2.327-2.202c.566-.935.85-1.986.85-3.153s-.284-2.219-.85-3.154a6.005 6.005 0 0 0-2.328-2.201c-.985-.533-2.095-.799-3.33-.799-1.234 0-2.347.266-3.338.799a5.928 5.928 0 0 0-2.327 2.201c-.56.935-.841 1.987-.841 3.154 0 1.167.28 2.218.84 3.153a5.928 5.928 0 0 0 2.328 2.202c.991.533 2.104.799 3.339.799z"/></g><g><path fill="#eec670" d="M121.044 144.478c.341-.513.512-1.307.512-2.38s-.17-1.867-.512-2.38c-.342-.513-.812-.77-1.411-.77-.59 0-1.055.257-1.397.77-.341.513-.512 1.307-.512 2.38s.17 1.867.512 2.38c.342.513.807.77 1.397.77.599 0 1.07-.257 1.41-.77zm-3.586 2.086c-.635-.401-1.132-.982-1.491-1.743-.36-.76-.539-1.668-.539-2.723s.18-1.962.539-2.723c.36-.76.856-1.342 1.491-1.743.635-.401 1.358-.602 2.17-.602.812 0 1.535.2 2.17.602.635.401 1.132.982 1.491 1.743.36.76.539 1.668.539 2.723s-.18 1.962-.539 2.723c-.36.76-.856 1.342-1.491 1.743-.635.401-1.358.602-2.17.602-.812 0-1.535-.2-2.17-.602zm-15.345.434v-1.47l3.784-3.57c.402-.383.673-.712.813-.987.14-.275.21-.548.21-.819 0-.392-.132-.693-.399-.903-.266-.21-.656-.315-1.17-.315-.43 0-.818.082-1.164.245a2.227 2.227 0 0 0-.869.735l-1.654-1.064c.383-.57.911-1.015 1.584-1.337.673-.322 1.444-.483 2.313-.483.729 0 1.367.119 1.913.357.547.238.972.574 1.276 1.008.304.434.456.945.456 1.533 0 .532-.113 1.031-.337 1.498-.224.467-.659.999-1.303 1.596l-2.257 2.128h4.219v1.848zm-8.732-2.52c.34-.513.511-1.307.511-2.38s-.17-1.867-.511-2.38c-.34-.513-.81-.77-1.407-.77-.588 0-1.052.257-1.393.77-.34.513-.511 1.307-.511 2.38s.17 1.867.511 2.38c.34.513.805.77 1.393.77.597 0 1.066-.257 1.407-.77zm-3.577 2.086c-.635-.401-1.132-.982-1.491-1.743-.36-.76-.539-1.668-.539-2.723s.18-1.962.539-2.723c.36-.76.856-1.342 1.491-1.743.635-.401 1.358-.602 2.17-.602.812 0 1.535.2 2.17.602.635.401 1.132.982 1.491 1.743.36.76.539 1.668.539 2.723s-.18 1.962-.539 2.723c-.36.76-.856 1.342-1.491 1.743-.635.401-1.358.602-2.17.602-.812 0-1.535-.2-2.17-.602zm-15.346.434v-1.47l3.78-3.57c.401-.383.672-.712.812-.987s.21-.548.21-.819c0-.392-.133-.693-.399-.903-.266-.21-.656-.315-1.169-.315-.43 0-.817.082-1.162.245a2.225 2.225 0 0 0-.868.735l-1.652-1.064c.383-.57.91-1.015 1.582-1.337.672-.322 1.442-.483 2.31-.483.728 0 1.365.119 1.911.357s.97.574 1.274 1.008c.303.434.455.945.455 1.533 0 .532-.112 1.031-.336 1.498-.224.467-.658.999-1.302 1.596l-2.254 2.128h4.214v1.848z"/></g></g></g></svg>