<svg xmlns="http://www.w3.org/2000/svg" width="204" height="168" viewBox="0 0 204 168"><defs><linearGradient id="zbx1a" x1="181.76" x2="163.98" y1="27" y2="193.16" gradientUnits="userSpaceOnUse"><stop offset="0" stop-color="#ffd84f"/><stop offset=".22" stop-color="#faf7ca"/><stop offset=".65" stop-color="#bb8d31"/><stop offset=".84" stop-color="#e6cf85"/><stop offset="1" stop-color="#e9c037"/></linearGradient><linearGradient id="zbx1b" x1="39.76" x2="21.98" y1="27" y2="193.16" gradientUnits="userSpaceOnUse"><stop offset="0" stop-color="#ffd84f"/><stop offset=".22" stop-color="#faf7ca"/><stop offset=".65" stop-color="#bb8d31"/><stop offset=".84" stop-color="#e6cf85"/><stop offset="1" stop-color="#e9c037"/></linearGradient><linearGradient id="zbx1c" x1="116.32" x2="59.87" y1="1" y2="39.34" gradientUnits="userSpaceOnUse"><stop offset="0" stop-color="#ffd84f"/><stop offset=".22" stop-color="#faf7ca"/><stop offset=".65" stop-color="#bb8d31"/><stop offset=".84" stop-color="#e6cf85"/><stop offset="1" stop-color="#e9c037"/></linearGradient><linearGradient id="zbx1d" x1="118.57" x2="53.23" y1="52.36" y2="93.94" gradientUnits="userSpaceOnUse"><stop offset="0" stop-color="#ffd84f"/><stop offset=".22" stop-color="#faf7ca"/><stop offset=".65" stop-color="#bb8d31"/><stop offset=".84" stop-color="#e6cf85"/><stop offset="1" stop-color="#e9c037"/></linearGradient><linearGradient id="zbx1e" x1="117.91" x2="52.9" y1="109.62" y2="133.28" gradientUnits="userSpaceOnUse"><stop offset="0" stop-color="#ffd84f"/><stop offset=".22" stop-color="#faf7ca"/><stop offset=".65" stop-color="#bb8d31"/><stop offset=".84" stop-color="#e6cf85"/><stop offset="1" stop-color="#e9c037"/></linearGradient><linearGradient id="zbx1f" x1="117.73" x2="53.72" y1="88.47" y2="108.01" gradientUnits="userSpaceOnUse"><stop offset="0" stop-color="#ffd84f"/><stop offset=".22" stop-color="#faf7ca"/><stop offset=".65" stop-color="#bb8d31"/><stop offset=".84" stop-color="#e6cf85"/><stop offset="1" stop-color="#e9c037"/></linearGradient></defs><g><g><g><path fill="url(#zbx1a)" d="M152.183 159.045c1.602 3.388 3.84 5.902 6.64 7.135 3.092 1.359 6.47.982 9.76-.784-1.633-3.922-4.02-6.84-7.113-8.199a9.725 9.725 0 0 0-4.485-.805 48.51 48.51 0 0 0 4.838-2.649c2.36 3.22 5.27 5.245 8.483 5.59 3.288.348 6.468-1.07 9.263-3.806-2.36-3.288-5.304-5.36-8.566-5.707-1.54-.163-3.034.058-4.52.621a55.668 55.668 0 0 0 4.72-4.166c2.859 2.426 6.006 3.573 9.155 3.045 3.265-.54 6.115-2.78 8.36-6.206-2.915-2.566-6.147-3.796-9.409-3.255-1.258.209-2.452.669-3.585 1.351a62.825 62.825 0 0 0 2.91-3.924c3.212 1.754 6.498 2.167 9.557.907 3.089-1.288 5.539-4.148 7.232-8.034-3.272-1.84-6.644-2.297-9.766-1.011-1.31.546-2.503 1.376-3.582 2.446a56.304 56.304 0 0 0 2.414-4.97c3.354.914 6.566.543 9.302-1.346 2.883-1.974 4.834-5.342 5.886-9.54-3.495-1.067-6.882-.748-9.733 1.224a12.575 12.575 0 0 0-2.831 2.77c.586-1.83 1.138-3.707 1.577-5.63.028-.072.028-.143.058-.216 3.437.506 6.675-.282 9.266-2.555 2.652-2.34 4.318-5.952 4.986-10.264-3.556-.598-6.878.17-9.561 2.51-1.572 1.396-2.828 3.245-3.702 5.425.439-2.48.729-4.96.906-7.432 3.378-.358 6.344-1.887 8.482-4.673 2.245-2.927 3.286-6.86 3.26-11.25-3.583.255-6.73 1.793-8.97 4.72-1.172 1.523-2.014 3.317-2.54 5.309 0-1.73-.09-3.448-.21-5.158 3.273-1.446 5.83-3.913 7.294-7.354 1.515-3.558 1.662-7.693.698-11.911-3.41 1.425-6.123 3.94-7.634 7.498a16.461 16.461 0 0 0-1.17 4.487 69.437 69.437 0 0 0-1.22-5.979c3.204-1.714 5.65-4.404 6.934-7.986 1.31-3.677 1.223-7.815 0-11.94-3.324 1.707-5.854 4.442-7.164 8.116-.879 2.457-1.147 5.118-.822 7.845-.64-2.042-1.367-4.017-1.981-6.055 2.712-2.465 4.602-5.655 5.221-9.396.664-3.929-.119-7.956-2.012-11.68-2.979 2.51-4.987 5.83-5.655 9.76a17.192 17.192 0 0 0 .2 6.57 60.433 60.433 0 0 0-2.735-5.037c2.24-3.353 3.416-7.185 3.174-11.123-.23-4.01-1.892-7.616-4.544-10.572-2.27 3.384-3.502 7.251-3.234 11.254a16.003 16.003 0 0 0 1.161 5.254 57.749 57.749 0 0 0-3.407-4.212c1.724-3.794 2.304-7.806 1.509-11.646-.805-3.877-2.964-7.075-5.995-9.411-1.783 3.833-2.394 7.9-1.571 11.789a15.344 15.344 0 0 0 2.152 5.252c-.61-.557-1.22-1.1-1.864-1.628-.817-3.89-2.452-7.121-4.952-9.239-2.711-2.278-6.063-2.97-9.618-2.29.762 4.297 2.447 7.868 5.159 10.148 2.683 2.259 6 2.958 9.5 2.306a55.617 55.617 0 0 1 4.57 4.409 9.741 9.741 0 0 0-1.511-.857c-3.059-1.416-6.442-1.1-9.761.604 1.57 3.953 3.931 6.915 6.995 8.33 2.276 1.044 4.745 1.298 7.193.567.99-.3 1.925-.767 2.829-1.33a65.43 65.43 0 0 1 3.41 5.67c-2.536-2.43-5.77-3.397-9.27-3.063.436 4.352 1.93 8.077 4.49 10.608 2.535 2.525 5.795 3.533 9.378 3.197 1.195 3.546 1.931 6.422 2.597 10.197-.666-3.41-1.632-5.295-3.96-7.607-2.336-2.312-5.855-3.536-9.418-3.196.442 4.352 1.925 8.076 4.464 10.606 2.562 2.53 5.85 3.536 9.436 3.197-.03-.157.823 8.826.789 11.356-.292-2.715-1.074-5.198-2.444-7.287-2.046-3.139-5.104-4.985-8.656-5.593-.295 4.373.468 8.397 2.534 11.536 2.01 3.077 4.956 4.91 8.422 5.554-.209 4.329-.874 8.651-1.833 12.822.522-2.945.436-5.865-.406-8.584-1.172-3.748-3.616-6.63-6.855-8.53-1.367 4.05-1.627 8.177-.463 11.924 1.108 3.511 3.145 6.72 6.207 8.244.205.108.43.205.643.295a58.555 58.555 0 0 1-1.991 6.061c-.346.723-.637 1.49-.896 2.293a84.905 84.905 0 0 1-1.372 3.05c.935-2.374 1.372-4.894 1.224-7.463-.266-4-1.92-7.606-4.572-10.55-2.278 3.404-3.471 7.275-3.235 11.273.23 3.516 1.54 6.73 3.67 9.454.615.802.582.775.904 1.172-1.807 3.212-3.818 6.19-6.038 8.911a16.201 16.201 0 0 0 2.513-6.622c.584-3.95-.293-7.946-2.276-11.602-2.91 2.61-4.835 6-5.423 9.952-.552 3.937.33 7.923 2.304 11.572a58.092 58.092 0 0 1-6.52 5.88 14.763 14.763 0 0 0 2.3-3.918c1.43-3.614 1.485-7.752.375-11.93-3.378 1.553-6.003 4.168-7.433 7.78-1.364 3.506-1.451 7.508-.436 11.561a46.456 46.456 0 0 1-7.25 3.454 11.905 11.905 0 0 0 3.29-3.223c2.15-3.046 3.058-7.031 2.887-11.416-3.586.45-6.68 2.156-8.804 5.203-2.012 2.857-2.944 6.542-2.888 10.607-.394.057-4.33.127-4.719.2.026.66-.2 1.05 0 1.365 1.72-.336 7.351-.447 9.1-.426z"/><path fill="none" stroke="#b3711e" stroke-miterlimit="20" stroke-width=".75" d="M152.183 159.045c1.602 3.388 3.84 5.902 6.64 7.135 3.092 1.359 6.47.982 9.76-.784-1.633-3.922-4.02-6.84-7.113-8.199a9.725 9.725 0 0 0-4.485-.805 48.51 48.51 0 0 0 4.838-2.649c2.36 3.22 5.27 5.245 8.483 5.59 3.288.348 6.468-1.07 9.263-3.806-2.36-3.288-5.304-5.36-8.566-5.707-1.54-.163-3.034.058-4.52.621a55.668 55.668 0 0 0 4.72-4.166c2.859 2.426 6.006 3.573 9.155 3.045 3.265-.54 6.115-2.78 8.36-6.206-2.915-2.566-6.147-3.796-9.409-3.255-1.258.209-2.452.669-3.585 1.351a62.825 62.825 0 0 0 2.91-3.924c3.212 1.754 6.498 2.167 9.557.907 3.089-1.288 5.539-4.148 7.232-8.034-3.272-1.84-6.644-2.297-9.766-1.011-1.31.546-2.503 1.376-3.582 2.446a56.304 56.304 0 0 0 2.414-4.97c3.354.914 6.566.543 9.302-1.346 2.883-1.974 4.834-5.342 5.886-9.54-3.495-1.067-6.882-.748-9.733 1.224a12.575 12.575 0 0 0-2.831 2.77c.586-1.83 1.138-3.707 1.577-5.63.028-.072.028-.143.058-.216 3.437.506 6.675-.282 9.266-2.555 2.652-2.34 4.318-5.952 4.986-10.264-3.556-.598-6.878.17-9.561 2.51-1.572 1.396-2.828 3.245-3.702 5.425.439-2.48.729-4.96.906-7.432 3.378-.358 6.344-1.887 8.482-4.673 2.245-2.927 3.286-6.86 3.26-11.25-3.583.255-6.73 1.793-8.97 4.72-1.172 1.523-2.014 3.317-2.54 5.309 0-1.73-.09-3.448-.21-5.158 3.273-1.446 5.83-3.913 7.294-7.354 1.515-3.558 1.662-7.693.698-11.911-3.41 1.425-6.123 3.94-7.634 7.498a16.461 16.461 0 0 0-1.17 4.487 69.437 69.437 0 0 0-1.22-5.979c3.204-1.714 5.65-4.404 6.934-7.986 1.31-3.677 1.223-7.815 0-11.94-3.324 1.707-5.854 4.442-7.164 8.116-.879 2.457-1.147 5.118-.822 7.845-.64-2.042-1.367-4.017-1.981-6.055 2.712-2.465 4.602-5.655 5.221-9.396.664-3.929-.119-7.956-2.012-11.68-2.979 2.51-4.987 5.83-5.655 9.76a17.192 17.192 0 0 0 .2 6.57 60.433 60.433 0 0 0-2.735-5.037c2.24-3.353 3.416-7.185 3.174-11.123-.23-4.01-1.892-7.616-4.544-10.572-2.27 3.384-3.502 7.251-3.234 11.254a16.003 16.003 0 0 0 1.161 5.254 57.749 57.749 0 0 0-3.407-4.212c1.724-3.794 2.304-7.806 1.509-11.646-.805-3.877-2.964-7.075-5.995-9.411-1.783 3.833-2.394 7.9-1.571 11.789a15.344 15.344 0 0 0 2.152 5.252c-.61-.557-1.22-1.1-1.864-1.628-.817-3.89-2.452-7.121-4.952-9.239-2.711-2.278-6.063-2.97-9.618-2.29.762 4.297 2.447 7.868 5.159 10.148 2.683 2.259 6 2.958 9.5 2.306a55.617 55.617 0 0 1 4.57 4.409 9.741 9.741 0 0 0-1.511-.857c-3.059-1.416-6.442-1.1-9.761.604 1.57 3.953 3.931 6.915 6.995 8.33 2.276 1.044 4.745 1.298 7.193.567.99-.3 1.925-.767 2.829-1.33a65.43 65.43 0 0 1 3.41 5.67c-2.536-2.43-5.77-3.397-9.27-3.063.436 4.352 1.93 8.077 4.49 10.608 2.535 2.525 5.795 3.533 9.378 3.197 1.195 3.546 1.931 6.422 2.597 10.197-.666-3.41-1.632-5.295-3.96-7.607-2.336-2.312-5.855-3.536-9.418-3.196.442 4.352 1.925 8.076 4.464 10.606 2.562 2.53 5.85 3.536 9.436 3.197-.03-.157.823 8.826.789 11.356-.292-2.715-1.074-5.198-2.444-7.287-2.046-3.139-5.104-4.985-8.656-5.593-.295 4.373.468 8.397 2.534 11.536 2.01 3.077 4.956 4.91 8.422 5.554-.209 4.329-.874 8.651-1.833 12.822.522-2.945.436-5.865-.406-8.584-1.172-3.748-3.616-6.63-6.855-8.53-1.367 4.05-1.627 8.177-.463 11.924 1.108 3.511 3.145 6.72 6.207 8.244.205.108.43.205.643.295a58.555 58.555 0 0 1-1.991 6.061c-.346.723-.637 1.49-.896 2.293a84.905 84.905 0 0 1-1.372 3.05c.935-2.374 1.372-4.894 1.224-7.463-.266-4-1.92-7.606-4.572-10.55-2.278 3.404-3.471 7.275-3.235 11.273.23 3.516 1.54 6.73 3.67 9.454.615.802.582.775.904 1.172-1.807 3.212-3.818 6.19-6.038 8.911a16.201 16.201 0 0 0 2.513-6.622c.584-3.95-.293-7.946-2.276-11.602-2.91 2.61-4.835 6-5.423 9.952-.552 3.937.33 7.923 2.304 11.572a58.092 58.092 0 0 1-6.52 5.88 14.763 14.763 0 0 0 2.3-3.918c1.43-3.614 1.485-7.752.375-11.93-3.378 1.553-6.003 4.168-7.433 7.78-1.364 3.506-1.451 7.508-.436 11.561a46.456 46.456 0 0 1-7.25 3.454 11.905 11.905 0 0 0 3.29-3.223c2.15-3.046 3.058-7.031 2.887-11.416-3.586.45-6.68 2.156-8.804 5.203-2.012 2.857-2.944 6.542-2.888 10.607-.394.057-4.33.127-4.719.2.026.66-.2 1.05 0 1.365 1.72-.336 7.351-.447 9.1-.426z"/></g><g><path fill="url(#zbx1b)" d="M51.817 159.045c-1.602 3.388-3.84 5.902-6.64 7.135-3.092 1.359-6.47.982-9.76-.784 1.633-3.922 4.02-6.84 7.113-8.199a9.725 9.725 0 0 1 4.485-.805 48.51 48.51 0 0 1-4.838-2.649c-2.36 3.22-5.27 5.245-8.483 5.59-3.288.348-6.468-1.07-9.263-3.806 2.36-3.288 5.304-5.36 8.566-5.707 1.54-.163 3.034.058 4.52.621a55.668 55.668 0 0 1-4.72-4.166c-2.859 2.426-6.006 3.573-9.155 3.045-3.265-.54-6.115-2.78-8.36-6.206 2.915-2.566 6.147-3.796 9.409-3.255 1.258.209 2.452.669 3.585 1.351a62.825 62.825 0 0 1-2.91-3.924c-3.212 1.754-6.498 2.167-9.557.907-3.089-1.288-5.539-4.148-7.232-8.034 3.272-1.84 6.644-2.297 9.766-1.011 1.31.546 2.503 1.376 3.582 2.446a56.304 56.304 0 0 1-2.414-4.97c-3.354.914-6.566.543-9.302-1.346-2.883-1.974-4.834-5.342-5.886-9.54 3.495-1.067 6.882-.748 9.733 1.224a12.575 12.575 0 0 1 2.831 2.77c-.586-1.83-1.138-3.707-1.577-5.63-.028-.072-.028-.143-.058-.216-3.437.506-6.675-.282-9.266-2.555-2.652-2.34-4.318-5.952-4.986-10.264 3.556-.598 6.878.17 9.561 2.51 1.572 1.396 2.828 3.245 3.702 5.425a72.318 72.318 0 0 1-.906-7.432c-3.378-.358-6.344-1.887-8.482-4.673-2.245-2.927-3.286-6.86-3.26-11.25 3.583.255 6.73 1.793 8.97 4.72 1.172 1.523 2.014 3.317 2.54 5.309 0-1.73.09-3.448.21-5.158-3.273-1.446-5.83-3.913-7.294-7.354-1.515-3.558-1.662-7.693-.698-11.911 3.41 1.425 6.123 3.94 7.634 7.498a16.461 16.461 0 0 1 1.17 4.487 69.437 69.437 0 0 1 1.22-5.979c-3.204-1.714-5.65-4.404-6.934-7.986-1.31-3.677-1.223-7.815 0-11.94 3.324 1.707 5.854 4.442 7.164 8.116.879 2.457 1.147 5.118.822 7.845.64-2.042 1.367-4.017 1.981-6.055-2.712-2.465-4.602-5.655-5.22-9.396-.665-3.929.118-7.956 2.01-11.68 2.98 2.51 4.988 5.83 5.656 9.76.35 2.182.296 4.395-.2 6.57a60.433 60.433 0 0 1 2.735-5.037c-2.24-3.353-3.416-7.185-3.174-11.123.23-4.01 1.892-7.616 4.544-10.572 2.27 3.384 3.502 7.251 3.234 11.254a16.003 16.003 0 0 1-1.161 5.254 57.749 57.749 0 0 1 3.407-4.212c-1.724-3.794-2.304-7.806-1.509-11.646.805-3.877 2.964-7.075 5.995-9.411 1.783 3.833 2.394 7.9 1.571 11.789a15.344 15.344 0 0 1-2.152 5.252c.61-.557 1.22-1.1 1.864-1.628.817-3.89 2.452-7.121 4.952-9.239 2.711-2.278 6.063-2.97 9.618-2.29-.762 4.297-2.447 7.868-5.159 10.148-2.683 2.259-6 2.958-9.5 2.306a55.617 55.617 0 0 0-4.57 4.409 9.741 9.741 0 0 1 1.511-.857c3.059-1.416 6.442-1.1 9.761.604-1.57 3.953-3.931 6.915-6.995 8.33-2.276 1.044-4.745 1.298-7.193.567-.99-.3-1.925-.767-2.829-1.33a65.43 65.43 0 0 0-3.41 5.67c2.536-2.43 5.77-3.397 9.27-3.063-.436 4.352-1.93 8.077-4.49 10.608-2.535 2.525-5.795 3.533-9.378 3.197-1.195 3.546-1.931 6.422-2.597 10.197.666-3.41 1.632-5.295 3.96-7.607 2.336-2.312 5.855-3.536 9.418-3.196-.442 4.352-1.925 8.076-4.464 10.606-2.562 2.53-5.85 3.536-9.436 3.197.03-.157-.823 8.826-.789 11.356.292-2.715 1.074-5.198 2.444-7.287 2.046-3.139 5.104-4.985 8.656-5.593.295 4.373-.468 8.397-2.534 11.536-2.01 3.077-4.956 4.91-8.422 5.554.209 4.329.874 8.651 1.833 12.822-.522-2.945-.436-5.865.406-8.584 1.172-3.748 3.616-6.63 6.855-8.53 1.367 4.05 1.627 8.177.463 11.924-1.108 3.511-3.145 6.72-6.207 8.244-.205.108-.43.205-.643.295a58.555 58.555 0 0 0 1.991 6.061c.346.723.637 1.49.896 2.293a84.905 84.905 0 0 0 1.372 3.05c-.935-2.374-1.372-4.894-1.224-7.463.266-4 1.92-7.606 4.572-10.55 2.278 3.404 3.471 7.275 3.235 11.273-.23 3.516-1.54 6.73-3.67 9.454-.615.802-.582.775-.904 1.172 1.807 3.212 3.818 6.19 6.038 8.911a16.201 16.201 0 0 1-2.513-6.622c-.584-3.95.293-7.946 2.276-11.602 2.91 2.61 4.835 6 5.423 9.952.552 3.937-.33 7.923-2.304 11.572a58.092 58.092 0 0 0 6.52 5.88 14.763 14.763 0 0 1-2.3-3.918c-1.43-3.614-1.485-7.752-.375-11.93 3.378 1.553 6.003 4.168 7.433 7.78 1.364 3.506 1.451 7.508.436 11.561a46.456 46.456 0 0 0 7.25 3.454 11.905 11.905 0 0 1-3.29-3.223c-2.15-3.046-3.058-7.031-2.887-11.416 3.586.45 6.68 2.156 8.804 5.203 2.012 2.857 2.944 6.542 2.888 10.607.394.057 4.33.127 4.719.2-.026.66.2 1.05 0 1.365-1.72-.336-7.351-.447-9.1-.426z"/><path fill="none" stroke="#b3711e" stroke-miterlimit="20" stroke-width=".75" d="M51.817 159.045c-1.602 3.388-3.84 5.902-6.64 7.135-3.092 1.359-6.47.982-9.76-.784 1.633-3.922 4.02-6.84 7.113-8.199a9.725 9.725 0 0 1 4.485-.805 48.51 48.51 0 0 1-4.838-2.649c-2.36 3.22-5.27 5.245-8.483 5.59-3.288.348-6.468-1.07-9.263-3.806 2.36-3.288 5.304-5.36 8.566-5.707 1.54-.163 3.034.058 4.52.621a55.668 55.668 0 0 1-4.72-4.166c-2.859 2.426-6.006 3.573-9.155 3.045-3.265-.54-6.115-2.78-8.36-6.206 2.915-2.566 6.147-3.796 9.409-3.255 1.258.209 2.452.669 3.585 1.351a62.825 62.825 0 0 1-2.91-3.924c-3.212 1.754-6.498 2.167-9.557.907-3.089-1.288-5.539-4.148-7.232-8.034 3.272-1.84 6.644-2.297 9.766-1.011 1.31.546 2.503 1.376 3.582 2.446a56.304 56.304 0 0 1-2.414-4.97c-3.354.914-6.566.543-9.302-1.346-2.883-1.974-4.834-5.342-5.886-9.54 3.495-1.067 6.882-.748 9.733 1.224a12.575 12.575 0 0 1 2.831 2.77c-.586-1.83-1.138-3.707-1.577-5.63-.028-.072-.028-.143-.058-.216-3.437.506-6.675-.282-9.266-2.555-2.652-2.34-4.318-5.952-4.986-10.264 3.556-.598 6.878.17 9.561 2.51 1.572 1.396 2.828 3.245 3.702 5.425a72.318 72.318 0 0 1-.906-7.432c-3.378-.358-6.344-1.887-8.482-4.673-2.245-2.927-3.286-6.86-3.26-11.25 3.583.255 6.73 1.793 8.97 4.72 1.172 1.523 2.014 3.317 2.54 5.309 0-1.73.09-3.448.21-5.158-3.273-1.446-5.83-3.913-7.294-7.354-1.515-3.558-1.662-7.693-.698-11.911 3.41 1.425 6.123 3.94 7.634 7.498a16.461 16.461 0 0 1 1.17 4.487 69.437 69.437 0 0 1 1.22-5.979c-3.204-1.714-5.65-4.404-6.934-7.986-1.31-3.677-1.223-7.815 0-11.94 3.324 1.707 5.854 4.442 7.164 8.116.879 2.457 1.147 5.118.822 7.845.64-2.042 1.367-4.017 1.981-6.055-2.712-2.465-4.602-5.655-5.22-9.396-.665-3.929.118-7.956 2.01-11.68 2.98 2.51 4.988 5.83 5.656 9.76.35 2.182.296 4.395-.2 6.57a60.433 60.433 0 0 1 2.735-5.037c-2.24-3.353-3.416-7.185-3.174-11.123.23-4.01 1.892-7.616 4.544-10.572 2.27 3.384 3.502 7.251 3.234 11.254a16.003 16.003 0 0 1-1.161 5.254 57.749 57.749 0 0 1 3.407-4.212c-1.724-3.794-2.304-7.806-1.509-11.646.805-3.877 2.964-7.075 5.995-9.411 1.783 3.833 2.394 7.9 1.571 11.789a15.344 15.344 0 0 1-2.152 5.252c.61-.557 1.22-1.1 1.864-1.628.817-3.89 2.452-7.121 4.952-9.239 2.711-2.278 6.063-2.97 9.618-2.29-.762 4.297-2.447 7.868-5.159 10.148-2.683 2.259-6 2.958-9.5 2.306a55.617 55.617 0 0 0-4.57 4.409 9.741 9.741 0 0 1 1.511-.857c3.059-1.416 6.442-1.1 9.761.604-1.57 3.953-3.931 6.915-6.995 8.33-2.276 1.044-4.745 1.298-7.193.567-.99-.3-1.925-.767-2.829-1.33a65.43 65.43 0 0 0-3.41 5.67c2.536-2.43 5.77-3.397 9.27-3.063-.436 4.352-1.93 8.077-4.49 10.608-2.535 2.525-5.795 3.533-9.378 3.197-1.195 3.546-1.931 6.422-2.597 10.197.666-3.41 1.632-5.295 3.96-7.607 2.336-2.312 5.855-3.536 9.418-3.196-.442 4.352-1.925 8.076-4.464 10.606-2.562 2.53-5.85 3.536-9.436 3.197.03-.157-.823 8.826-.789 11.356.292-2.715 1.074-5.198 2.444-7.287 2.046-3.139 5.104-4.985 8.656-5.593.295 4.373-.468 8.397-2.534 11.536-2.01 3.077-4.956 4.91-8.422 5.554.209 4.329.874 8.651 1.833 12.822-.522-2.945-.436-5.865.406-8.584 1.172-3.748 3.616-6.63 6.855-8.53 1.367 4.05 1.627 8.177.463 11.924-1.108 3.511-3.145 6.72-6.207 8.244-.205.108-.43.205-.643.295a58.555 58.555 0 0 0 1.991 6.061c.346.723.637 1.49.896 2.293a84.905 84.905 0 0 0 1.372 3.05c-.935-2.374-1.372-4.894-1.224-7.463.266-4 1.92-7.606 4.572-10.55 2.278 3.404 3.471 7.275 3.235 11.273-.23 3.516-1.54 6.73-3.67 9.454-.615.802-.582.775-.904 1.172 1.807 3.212 3.818 6.19 6.038 8.911a16.201 16.201 0 0 1-2.513-6.622c-.584-3.95.293-7.946 2.276-11.602 2.91 2.61 4.835 6 5.423 9.952.552 3.937-.33 7.923-2.304 11.572a58.092 58.092 0 0 0 6.52 5.88 14.763 14.763 0 0 1-2.3-3.918c-1.43-3.614-1.485-7.752-.375-11.93 3.378 1.553 6.003 4.168 7.433 7.78 1.364 3.506 1.451 7.508.436 11.561a46.456 46.456 0 0 0 7.25 3.454 11.905 11.905 0 0 1-3.29-3.223c-2.15-3.046-3.058-7.031-2.887-11.416 3.586.45 6.68 2.156 8.804 5.203 2.012 2.857 2.944 6.542 2.888 10.607.394.057 4.33.127 4.719.2-.026.66.2 1.05 0 1.365-1.72-.336-7.351-.447-9.1-.426z"/></g><g><path fill="url(#zbx1c)" d="M67.12 28a.716.716 0 0 1-.419-.136l-4.7-3.388-4.7 3.388a.716.716 0 0 1-.84 0 .705.705 0 0 1-.26-.791l1.796-5.483-4.702-3.388a.705.705 0 0 1-.26-.792.714.714 0 0 1 .68-.49h5.81l1.796-5.482c.191-.584 1.166-.584 1.358 0l1.795 5.482h5.811c.31 0 .584.198.68.49a.703.703 0 0 1-.26.792l-4.7 3.388 1.795 5.483a.703.703 0 0 1-.26.791.716.716 0 0 1-.42.136zm80 0a.716.716 0 0 1-.419-.136l-4.7-3.388-4.7 3.388a.716.716 0 0 1-.84 0 .705.705 0 0 1-.26-.791l1.796-5.483-4.702-3.388a.705.705 0 0 1-.26-.792.714.714 0 0 1 .68-.49h5.81l1.796-5.482c.191-.584 1.166-.584 1.358 0l1.795 5.482h5.811c.31 0 .584.198.68.49a.703.703 0 0 1-.26.792l-4.7 3.388 1.795 5.483a.703.703 0 0 1-.26.791.716.716 0 0 1-.42.136zm-20-6a.716.716 0 0 1-.419-.136l-4.7-3.388-4.7 3.388a.716.716 0 0 1-.84 0 .705.705 0 0 1-.26-.791l1.796-5.483-4.702-3.388a.705.705 0 0 1-.26-.792.714.714 0 0 1 .68-.49h5.81l1.796-5.482c.191-.584 1.166-.584 1.358 0l1.795 5.482h5.811c.31 0 .584.198.68.49a.703.703 0 0 1-.26.792l-4.7 3.388 1.795 5.483a.703.703 0 0 1-.26.791.716.716 0 0 1-.42.136zm-40 0a.716.716 0 0 1-.419-.136l-4.7-3.388-4.7 3.388a.716.716 0 0 1-.84 0 .705.705 0 0 1-.26-.791l1.796-5.483-4.702-3.388a.705.705 0 0 1-.26-.792.714.714 0 0 1 .68-.49h5.81l1.796-5.482c.191-.584 1.166-.584 1.358 0l1.795 5.482h5.811c.31 0 .584.198.68.49a.703.703 0 0 1-.26.792l-4.7 3.388 1.795 5.483a.703.703 0 0 1-.26.791.716.716 0 0 1-.42.136zm20-4a.716.716 0 0 1-.419-.136l-4.7-3.388-4.7 3.388a.716.716 0 0 1-.84 0 .705.705 0 0 1-.26-.791l1.796-5.483-4.702-3.388a.705.705 0 0 1-.26-.792.714.714 0 0 1 .68-.49h5.81l1.796-5.482c.191-.584 1.166-.584 1.358 0l1.795 5.482h5.811c.31 0 .584.198.68.49a.703.703 0 0 1-.26.792l-4.7 3.388 1.795 5.483a.703.703 0 0 1-.26.791.716.716 0 0 1-.42.136z"/><path fill="none" stroke="#b3711e" stroke-miterlimit="20" stroke-width=".75" d="M67.12 28a.716.716 0 0 1-.419-.136l-4.7-3.388-4.7 3.388a.716.716 0 0 1-.84 0 .705.705 0 0 1-.26-.791l1.796-5.483-4.702-3.388a.705.705 0 0 1-.26-.792.714.714 0 0 1 .68-.49h5.81l1.796-5.482c.191-.584 1.166-.584 1.358 0l1.795 5.482h5.811c.31 0 .584.198.68.49a.703.703 0 0 1-.26.792l-4.7 3.388 1.795 5.483a.703.703 0 0 1-.26.791.716.716 0 0 1-.42.136zm80 0a.716.716 0 0 1-.419-.136l-4.7-3.388-4.7 3.388a.716.716 0 0 1-.84 0 .705.705 0 0 1-.26-.791l1.796-5.483-4.702-3.388a.705.705 0 0 1-.26-.792.714.714 0 0 1 .68-.49h5.81l1.796-5.482c.191-.584 1.166-.584 1.358 0l1.795 5.482h5.811c.31 0 .584.198.68.49a.703.703 0 0 1-.26.792l-4.7 3.388 1.795 5.483a.703.703 0 0 1-.26.791.716.716 0 0 1-.42.136zm-20-6a.716.716 0 0 1-.419-.136l-4.7-3.388-4.7 3.388a.716.716 0 0 1-.84 0 .705.705 0 0 1-.26-.791l1.796-5.483-4.702-3.388a.705.705 0 0 1-.26-.792.714.714 0 0 1 .68-.49h5.81l1.796-5.482c.191-.584 1.166-.584 1.358 0l1.795 5.482h5.811c.31 0 .584.198.68.49a.703.703 0 0 1-.26.792l-4.7 3.388 1.795 5.483a.703.703 0 0 1-.26.791.716.716 0 0 1-.42.136zm-40 0a.716.716 0 0 1-.419-.136l-4.7-3.388-4.7 3.388a.716.716 0 0 1-.84 0 .705.705 0 0 1-.26-.791l1.796-5.483-4.702-3.388a.705.705 0 0 1-.26-.792.714.714 0 0 1 .68-.49h5.81l1.796-5.482c.191-.584 1.166-.584 1.358 0l1.795 5.482h5.811c.31 0 .584.198.68.49a.703.703 0 0 1-.26.792l-4.7 3.388 1.795 5.483a.703.703 0 0 1-.26.791.716.716 0 0 1-.42.136zm20-4a.716.716 0 0 1-.419-.136l-4.7-3.388-4.7 3.388a.716.716 0 0 1-.84 0 .705.705 0 0 1-.26-.791l1.796-5.483-4.702-3.388a.705.705 0 0 1-.26-.792.714.714 0 0 1 .68-.49h5.81l1.796-5.482c.191-.584 1.166-.584 1.358 0l1.795 5.482h5.811c.31 0 .584.198.68.49a.703.703 0 0 1-.26.792l-4.7 3.388 1.795 5.483a.703.703 0 0 1-.26.791.716.716 0 0 1-.42.136z"/></g><g><path fill="#252529" d="M150.52 81V60.32h8.2V53h-25.84v7.32h8.2V81zm-32.96.64c2.8 0 5.18-.42 7.14-1.26 1.96-.84 3.433-1.973 4.42-3.4.987-1.427 1.48-3.02 1.48-4.78 0-2.027-.54-3.627-1.62-4.8a9.394 9.394 0 0 0-3.82-2.54c-1.467-.52-3.267-.98-5.4-1.38-1.653-.32-2.84-.62-3.56-.9-.72-.28-1.08-.7-1.08-1.26 0-1.173 1.213-1.76 3.64-1.76 2.453 0 5.053.693 7.8 2.08l2.84-6.84c-1.413-.8-3.047-1.407-4.9-1.82a25.923 25.923 0 0 0-5.66-.62c-2.8 0-5.18.413-7.14 1.24s-3.433 1.96-4.42 3.4a8.303 8.303 0 0 0-1.48 4.8c0 2.027.533 3.633 1.6 4.82 1.067 1.187 2.32 2.04 3.76 2.56s3.24 1.007 5.4 1.46c1.68.347 2.887.667 3.62.96.733.293 1.1.733 1.1 1.32 0 .507-.28.887-.84 1.14-.56.253-1.493.38-2.8.38-1.52 0-3.107-.233-4.76-.7-1.653-.467-3.147-1.087-4.48-1.86l-3.04 6.88c1.413.88 3.22 1.58 5.42 2.1 2.2.52 4.46.78 6.78.78zM101.48 81v-7.12h-14V70.2h11.84v-6.8H87.48v-3.28h13.48V53H78.2v28zm-46.92-6.6V70h5.68c2.08 0 3.12.733 3.12 2.2s-1.04 2.2-3.12 2.2zm0-10.64V59.6h4.4c2.053 0 3.08.693 3.08 2.08s-1.027 2.08-3.08 2.08zM61.04 81c3.84 0 6.773-.673 8.8-2.02 2.027-1.347 3.04-3.247 3.04-5.7 0-1.653-.453-3.067-1.36-4.24s-2.187-2.067-3.84-2.68c1.28-.64 2.247-1.48 2.9-2.52s.98-2.213.98-3.52c0-2.213-.953-3.987-2.86-5.32-1.907-1.333-4.727-2-8.46-2H45.28v28z"/><path fill="url(#zbx1d)" d="M150.52 81V60.32h8.2V53h-25.84v7.32h8.2V81zm-32.96.64c2.8 0 5.18-.42 7.14-1.26 1.96-.84 3.433-1.973 4.42-3.4.987-1.427 1.48-3.02 1.48-4.78 0-2.027-.54-3.627-1.62-4.8a9.394 9.394 0 0 0-3.82-2.54c-1.467-.52-3.267-.98-5.4-1.38-1.653-.32-2.84-.62-3.56-.9-.72-.28-1.08-.7-1.08-1.26 0-1.173 1.213-1.76 3.64-1.76 2.453 0 5.053.693 7.8 2.08l2.84-6.84c-1.413-.8-3.047-1.407-4.9-1.82a25.923 25.923 0 0 0-5.66-.62c-2.8 0-5.18.413-7.14 1.24s-3.433 1.96-4.42 3.4a8.303 8.303 0 0 0-1.48 4.8c0 2.027.533 3.633 1.6 4.82 1.067 1.187 2.32 2.04 3.76 2.56s3.24 1.007 5.4 1.46c1.68.347 2.887.667 3.62.96.733.293 1.1.733 1.1 1.32 0 .507-.28.887-.84 1.14-.56.253-1.493.38-2.8.38-1.52 0-3.107-.233-4.76-.7-1.653-.467-3.147-1.087-4.48-1.86l-3.04 6.88c1.413.88 3.22 1.58 5.42 2.1 2.2.52 4.46.78 6.78.78zM101.48 81v-7.12h-14V70.2h11.84v-6.8H87.48v-3.28h13.48V53H78.2v28zm-46.92-6.6V70h5.68c2.08 0 3.12.733 3.12 2.2s-1.04 2.2-3.12 2.2zm0-10.64V59.6h4.4c2.053 0 3.08.693 3.08 2.08s-1.027 2.08-3.08 2.08zM61.04 81c3.84 0 6.773-.673 8.8-2.02 2.027-1.347 3.04-3.247 3.04-5.7 0-1.653-.453-3.067-1.36-4.24s-2.187-2.067-3.84-2.68c1.28-.64 2.247-1.48 2.9-2.52s.98-2.213.98-3.52c0-2.213-.953-3.987-2.86-5.32-1.907-1.333-4.727-2-8.46-2H45.28v28z"/><path fill="none" stroke="#b3711e" stroke-miterlimit="20" stroke-width=".75" d="M150.52 81V60.32h8.2V53h-25.84v7.32h8.2V81zm-32.96.64c2.8 0 5.18-.42 7.14-1.26 1.96-.84 3.433-1.973 4.42-3.4.987-1.427 1.48-3.02 1.48-4.78 0-2.027-.54-3.627-1.62-4.8a9.394 9.394 0 0 0-3.82-2.54c-1.467-.52-3.267-.98-5.4-1.38-1.653-.32-2.84-.62-3.56-.9-.72-.28-1.08-.7-1.08-1.26 0-1.173 1.213-1.76 3.64-1.76 2.453 0 5.053.693 7.8 2.08l2.84-6.84c-1.413-.8-3.047-1.407-4.9-1.82a25.923 25.923 0 0 0-5.66-.62c-2.8 0-5.18.413-7.14 1.24s-3.433 1.96-4.42 3.4a8.303 8.303 0 0 0-1.48 4.8c0 2.027.533 3.633 1.6 4.82 1.067 1.187 2.32 2.04 3.76 2.56s3.24 1.007 5.4 1.46c1.68.347 2.887.667 3.62.96.733.293 1.1.733 1.1 1.32 0 .507-.28.887-.84 1.14-.56.253-1.493.38-2.8.38-1.52 0-3.107-.233-4.76-.7-1.653-.467-3.147-1.087-4.48-1.86l-3.04 6.88c1.413.88 3.22 1.58 5.42 2.1 2.2.52 4.46.78 6.78.78zM101.48 81v-7.12h-14V70.2h11.84v-6.8H87.48v-3.28h13.48V53H78.2v28zm-46.92-6.6V70h5.68c2.08 0 3.12.733 3.12 2.2s-1.04 2.2-3.12 2.2zm0-10.64V59.6h4.4c2.053 0 3.08.693 3.08 2.08s-1.027 2.08-3.08 2.08zM61.04 81c3.84 0 6.773-.673 8.8-2.02 2.027-1.347 3.04-3.247 3.04-5.7 0-1.653-.453-3.067-1.36-4.24s-2.187-2.067-3.84-2.68c1.28-.64 2.247-1.48 2.9-2.52s.98-2.213.98-3.52c0-2.213-.953-3.987-2.86-5.32-1.907-1.333-4.727-2-8.46-2H45.28v28z"/></g><g><path fill="#252529" d="M145.385 125.996v-16.1h12.157v2.99h-8.457v3.496h7.469v2.898h-7.469v3.726h8.756v2.99zm-10.879 0v-13.064h-5.152v-3.036h14.03v3.036h-5.152v13.064zm-10.879 0v-16.1h3.716v16.1zm-13.078-.242c-1.187-.345-2.14-.793-2.861-1.345l1.264-2.806c.69.506 1.51.912 2.46 1.219.95.307 1.9.46 2.85.46 1.056 0 1.838-.157 2.343-.472.506-.314.759-.732.759-1.253 0-.383-.15-.702-.448-.955-.3-.253-.682-.456-1.15-.609-.467-.153-1.099-.322-1.896-.506-1.225-.291-2.229-.583-3.01-.874a4.892 4.892 0 0 1-2.011-1.403c-.56-.644-.84-1.503-.84-2.576 0-.935.254-1.783.76-2.542.505-.759 1.267-1.36 2.286-1.805 1.019-.445 2.264-.667 3.735-.667 1.026 0 2.03.123 3.01.368.981.245 1.84.598 2.575 1.058l-1.15 2.829c-1.486-.843-2.972-1.265-4.458-1.265-1.042 0-1.812.169-2.31.506-.498.337-.747.782-.747 1.334s.287.962.862 1.23c.574.269 1.452.533 2.631.794 1.226.291 2.23.583 3.011.874a4.986 4.986 0 0 1 2.011 1.38c.56.629.839 1.48.839 2.553 0 .92-.257 1.76-.77 2.518-.513.76-1.283 1.361-2.31 1.806-1.026.445-2.275.667-3.746.667-1.272 0-2.501-.173-3.689-.518zm-30.07.242v-16.1h3.082l6.026 10.005 5.934-10.005h3.059l.046 16.1H95.13l-.023-9.66-4.738 7.958H88.69l-4.715-7.751v9.453zm-10.746-12.44l-2.548 6.167h5.096zm-8.988 12.44l7.172-16.1h3.678l7.195 16.1h-3.908l-1.425-3.45h-7.47l-1.426 3.45zm-11.488-.794a7.982 7.982 0 0 1-3.128-2.967c-.76-1.265-1.139-2.694-1.139-4.289 0-1.595.38-3.025 1.139-4.29a7.982 7.982 0 0 1 3.128-2.967c1.326-.713 2.817-1.069 4.473-1.069 1.395 0 2.657.245 3.784.736a7.578 7.578 0 0 1 2.84 2.116l-2.392 2.208c-1.089-1.257-2.438-1.886-4.048-1.886-.997 0-1.886.218-2.668.655a4.66 4.66 0 0 0-1.829 1.829c-.436.782-.655 1.671-.655 2.668 0 .997.218 1.886.655 2.668a4.66 4.66 0 0 0 1.829 1.828c.782.437 1.671.656 2.668.656 1.61 0 2.96-.636 4.048-1.909l2.392 2.208a7.456 7.456 0 0 1-2.852 2.139c-1.135.49-2.4.736-3.795.736-1.64 0-3.124-.357-4.45-1.07z"/><path fill="url(#zbx1e)" d="M145.385 125.996v-16.1h12.157v2.99h-8.457v3.496h7.469v2.898h-7.469v3.726h8.756v2.99zm-10.879 0v-13.064h-5.152v-3.036h14.03v3.036h-5.152v13.064zm-10.879 0v-16.1h3.716v16.1zm-13.078-.242c-1.187-.345-2.14-.793-2.861-1.345l1.264-2.806c.69.506 1.51.912 2.46 1.219.95.307 1.9.46 2.85.46 1.056 0 1.838-.157 2.343-.472.506-.314.759-.732.759-1.253 0-.383-.15-.702-.448-.955-.3-.253-.682-.456-1.15-.609-.467-.153-1.099-.322-1.896-.506-1.225-.291-2.229-.583-3.01-.874a4.892 4.892 0 0 1-2.011-1.403c-.56-.644-.84-1.503-.84-2.576 0-.935.254-1.783.76-2.542.505-.759 1.267-1.36 2.286-1.805 1.019-.445 2.264-.667 3.735-.667 1.026 0 2.03.123 3.01.368.981.245 1.84.598 2.575 1.058l-1.15 2.829c-1.486-.843-2.972-1.265-4.458-1.265-1.042 0-1.812.169-2.31.506-.498.337-.747.782-.747 1.334s.287.962.862 1.23c.574.269 1.452.533 2.631.794 1.226.291 2.23.583 3.011.874a4.986 4.986 0 0 1 2.011 1.38c.56.629.839 1.48.839 2.553 0 .92-.257 1.76-.77 2.518-.513.76-1.283 1.361-2.31 1.806-1.026.445-2.275.667-3.746.667-1.272 0-2.501-.173-3.689-.518zm-30.07.242v-16.1h3.082l6.026 10.005 5.934-10.005h3.059l.046 16.1H95.13l-.023-9.66-4.738 7.958H88.69l-4.715-7.751v9.453zm-10.746-12.44l-2.548 6.167h5.096zm-8.988 12.44l7.172-16.1h3.678l7.195 16.1h-3.908l-1.425-3.45h-7.47l-1.426 3.45zm-11.488-.794a7.982 7.982 0 0 1-3.128-2.967c-.76-1.265-1.139-2.694-1.139-4.289 0-1.595.38-3.025 1.139-4.29a7.982 7.982 0 0 1 3.128-2.967c1.326-.713 2.817-1.069 4.473-1.069 1.395 0 2.657.245 3.784.736a7.578 7.578 0 0 1 2.84 2.116l-2.392 2.208c-1.089-1.257-2.438-1.886-4.048-1.886-.997 0-1.886.218-2.668.655a4.66 4.66 0 0 0-1.829 1.829c-.436.782-.655 1.671-.655 2.668 0 .997.218 1.886.655 2.668a4.66 4.66 0 0 0 1.829 1.828c.782.437 1.671.656 2.668.656 1.61 0 2.96-.636 4.048-1.909l2.392 2.208a7.456 7.456 0 0 1-2.852 2.139c-1.135.49-2.4.736-3.795.736-1.64 0-3.124-.357-4.45-1.07z"/><path fill="none" stroke="#b3711e" stroke-miterlimit="20" stroke-width=".75" d="M145.385 125.996v-16.1h12.157v2.99h-8.457v3.496h7.469v2.898h-7.469v3.726h8.756v2.99zm-10.879 0v-13.064h-5.152v-3.036h14.03v3.036h-5.152v13.064zm-10.879 0v-16.1h3.716v16.1zm-13.078-.242c-1.187-.345-2.14-.793-2.861-1.345l1.264-2.806c.69.506 1.51.912 2.46 1.219.95.307 1.9.46 2.85.46 1.056 0 1.838-.157 2.343-.472.506-.314.759-.732.759-1.253 0-.383-.15-.702-.448-.955-.3-.253-.682-.456-1.15-.609-.467-.153-1.099-.322-1.896-.506-1.225-.291-2.229-.583-3.01-.874a4.892 4.892 0 0 1-2.011-1.403c-.56-.644-.84-1.503-.84-2.576 0-.935.254-1.783.76-2.542.505-.759 1.267-1.36 2.286-1.805 1.019-.445 2.264-.667 3.735-.667 1.026 0 2.03.123 3.01.368.981.245 1.84.598 2.575 1.058l-1.15 2.829c-1.486-.843-2.972-1.265-4.458-1.265-1.042 0-1.812.169-2.31.506-.498.337-.747.782-.747 1.334s.287.962.862 1.23c.574.269 1.452.533 2.631.794 1.226.291 2.23.583 3.011.874a4.986 4.986 0 0 1 2.011 1.38c.56.629.839 1.48.839 2.553 0 .92-.257 1.76-.77 2.518-.513.76-1.283 1.361-2.31 1.806-1.026.445-2.275.667-3.746.667-1.272 0-2.501-.173-3.689-.518zm-30.07.242v-16.1h3.082l6.026 10.005 5.934-10.005h3.059l.046 16.1H95.13l-.023-9.66-4.738 7.958H88.69l-4.715-7.751v9.453zm-10.746-12.44l-2.548 6.167h5.096zm-8.988 12.44l7.172-16.1h3.678l7.195 16.1h-3.908l-1.425-3.45h-7.47l-1.426 3.45zm-11.488-.794a7.982 7.982 0 0 1-3.128-2.967c-.76-1.265-1.139-2.694-1.139-4.289 0-1.595.38-3.025 1.139-4.29a7.982 7.982 0 0 1 3.128-2.967c1.326-.713 2.817-1.069 4.473-1.069 1.395 0 2.657.245 3.784.736a7.578 7.578 0 0 1 2.84 2.116l-2.392 2.208c-1.089-1.257-2.438-1.886-4.048-1.886-.997 0-1.886.218-2.668.655a4.66 4.66 0 0 0-1.829 1.829c-.436.782-.655 1.671-.655 2.668 0 .997.218 1.886.655 2.668a4.66 4.66 0 0 0 1.829 1.828c.782.437 1.671.656 2.668.656 1.61 0 2.96-.636 4.048-1.909l2.392 2.208a7.456 7.456 0 0 1-2.852 2.139c-1.135.49-2.4.736-3.795.736-1.64 0-3.124-.357-4.45-1.07z"/></g><g><path fill="#252529" d="M144.872 101.998v-13.3h2.544l6.607 8.075v-8.075h3.038v13.3h-2.525l-6.626-8.075v8.075zm-8.879-10.279l-2.104 5.092h4.208zm-7.425 10.279l5.929-13.3h3.04l5.948 13.3h-3.23l-1.179-2.85h-6.175l-1.178 2.85zm-11.002 0v-13.3h10.043v2.47h-6.986v2.888h6.17v2.394h-6.17v3.078h7.232v2.47zm-8.327-6.185c.923 0 1.625-.2 2.105-.597.48-.398.721-.964.721-1.697 0-.746-.24-1.318-.72-1.716-.481-.398-1.183-.597-2.106-.597h-2.504v4.607zm-5.582 6.185v-13.3h5.758c1.178 0 2.2.196 3.068.589.868.393 1.536.95 2.005 1.672.469.722.703 1.577.703 2.565 0 .975-.234 1.827-.703 2.555-.469.729-1.137 1.286-2.005 1.673-.867.386-1.89.579-3.068.579h-2.68v3.667zm-7.475-2.936a3.884 3.884 0 0 0 1.49-1.51c.36-.646.54-1.38.54-2.204 0-.823-.18-1.558-.54-2.204a3.884 3.884 0 0 0-1.49-1.51c-.633-.361-1.341-.542-2.126-.542-.784 0-1.493.18-2.125.542a3.884 3.884 0 0 0-1.49 1.51c-.36.646-.541 1.38-.541 2.204 0 .823.18 1.558.54 2.204.361.646.858 1.15 1.49 1.51.633.362 1.342.542 2.126.542.785 0 1.493-.18 2.126-.541zm-5.857 2.271a6.626 6.626 0 0 1-2.601-2.46c-.627-1.046-.94-2.22-.94-3.525 0-1.305.313-2.48.94-3.525a6.626 6.626 0 0 1 2.601-2.46c1.108-.595 2.351-.893 3.731-.893s2.62.298 3.722.893a6.711 6.711 0 0 1 2.602 2.46c.633 1.046.949 2.22.949 3.525 0 1.305-.316 2.48-.95 3.525a6.711 6.711 0 0 1-2.6 2.46c-1.102.595-2.343.893-3.723.893s-2.623-.298-3.73-.893zm-11.09-5.501c.923 0 1.625-.202 2.106-.607.48-.404.72-.973.72-1.706 0-.746-.24-1.318-.72-1.716-.48-.398-1.183-.597-2.106-.597h-2.503v4.626zm-5.582 6.166v-13.3h5.753c1.177 0 2.2.196 3.066.589.867.393 1.535.95 2.003 1.672.469.722.703 1.577.703 2.565s-.238 1.84-.712 2.555c-.475.716-1.149 1.264-2.022 1.644l2.98 4.275h-3.303l-2.563-3.705h-2.829v3.705zm-13.503-1.349c-1.056-1.051-1.584-2.552-1.584-4.503v-7.448h3.073v7.334c0 2.381.987 3.572 2.96 3.572.96 0 1.694-.288 2.2-.864.506-.577.759-1.48.759-2.708v-7.334h3.035v7.448c0 1.95-.528 3.452-1.584 4.503-1.056 1.051-2.532 1.577-4.43 1.577-1.896 0-3.373-.526-4.429-1.577zm-14.22 1.349v-13.3h10.042v2.47h-6.986v2.888h6.17v2.394h-6.17v3.078h7.233v2.47z"/><path fill="url(#zbx1f)" d="M144.872 101.998v-13.3h2.544l6.607 8.075v-8.075h3.038v13.3h-2.525l-6.626-8.075v8.075zm-8.879-10.279l-2.104 5.092h4.208zm-7.425 10.279l5.929-13.3h3.04l5.948 13.3h-3.23l-1.179-2.85h-6.175l-1.178 2.85zm-11.002 0v-13.3h10.043v2.47h-6.986v2.888h6.17v2.394h-6.17v3.078h7.232v2.47zm-8.327-6.185c.923 0 1.625-.2 2.105-.597.48-.398.721-.964.721-1.697 0-.746-.24-1.318-.72-1.716-.481-.398-1.183-.597-2.106-.597h-2.504v4.607zm-5.582 6.185v-13.3h5.758c1.178 0 2.2.196 3.068.589.868.393 1.536.95 2.005 1.672.469.722.703 1.577.703 2.565 0 .975-.234 1.827-.703 2.555-.469.729-1.137 1.286-2.005 1.673-.867.386-1.89.579-3.068.579h-2.68v3.667zm-7.475-2.936a3.884 3.884 0 0 0 1.49-1.51c.36-.646.54-1.38.54-2.204 0-.823-.18-1.558-.54-2.204a3.884 3.884 0 0 0-1.49-1.51c-.633-.361-1.341-.542-2.126-.542-.784 0-1.493.18-2.125.542a3.884 3.884 0 0 0-1.49 1.51c-.36.646-.541 1.38-.541 2.204 0 .823.18 1.558.54 2.204.361.646.858 1.15 1.49 1.51.633.362 1.342.542 2.126.542.785 0 1.493-.18 2.126-.541zm-5.857 2.271a6.626 6.626 0 0 1-2.601-2.46c-.627-1.046-.94-2.22-.94-3.525 0-1.305.313-2.48.94-3.525a6.626 6.626 0 0 1 2.601-2.46c1.108-.595 2.351-.893 3.731-.893s2.62.298 3.722.893a6.711 6.711 0 0 1 2.602 2.46c.633 1.046.949 2.22.949 3.525 0 1.305-.316 2.48-.95 3.525a6.711 6.711 0 0 1-2.6 2.46c-1.102.595-2.343.893-3.723.893s-2.623-.298-3.73-.893zm-11.09-5.501c.923 0 1.625-.202 2.106-.607.48-.404.72-.973.72-1.706 0-.746-.24-1.318-.72-1.716-.48-.398-1.183-.597-2.106-.597h-2.503v4.626zm-5.582 6.166v-13.3h5.753c1.177 0 2.2.196 3.066.589.867.393 1.535.95 2.003 1.672.469.722.703 1.577.703 2.565s-.238 1.84-.712 2.555c-.475.716-1.149 1.264-2.022 1.644l2.98 4.275h-3.303l-2.563-3.705h-2.829v3.705zm-13.503-1.349c-1.056-1.051-1.584-2.552-1.584-4.503v-7.448h3.073v7.334c0 2.381.987 3.572 2.96 3.572.96 0 1.694-.288 2.2-.864.506-.577.759-1.48.759-2.708v-7.334h3.035v7.448c0 1.95-.528 3.452-1.584 4.503-1.056 1.051-2.532 1.577-4.43 1.577-1.896 0-3.373-.526-4.429-1.577zm-14.22 1.349v-13.3h10.042v2.47h-6.986v2.888h6.17v2.394h-6.17v3.078h7.233v2.47z"/><path fill="none" stroke="#b3711e" stroke-miterlimit="20" stroke-width=".75" d="M144.872 101.998v-13.3h2.544l6.607 8.075v-8.075h3.038v13.3h-2.525l-6.626-8.075v8.075zm-8.879-10.279l-2.104 5.092h4.208zm-7.425 10.279l5.929-13.3h3.04l5.948 13.3h-3.23l-1.179-2.85h-6.175l-1.178 2.85zm-11.002 0v-13.3h10.043v2.47h-6.986v2.888h6.17v2.394h-6.17v3.078h7.232v2.47zm-8.327-6.185c.923 0 1.625-.2 2.105-.597.48-.398.721-.964.721-1.697 0-.746-.24-1.318-.72-1.716-.481-.398-1.183-.597-2.106-.597h-2.504v4.607zm-5.582 6.185v-13.3h5.758c1.178 0 2.2.196 3.068.589.868.393 1.536.95 2.005 1.672.469.722.703 1.577.703 2.565 0 .975-.234 1.827-.703 2.555-.469.729-1.137 1.286-2.005 1.673-.867.386-1.89.579-3.068.579h-2.68v3.667zm-7.475-2.936a3.884 3.884 0 0 0 1.49-1.51c.36-.646.54-1.38.54-2.204 0-.823-.18-1.558-.54-2.204a3.884 3.884 0 0 0-1.49-1.51c-.633-.361-1.341-.542-2.126-.542-.784 0-1.493.18-2.125.542a3.884 3.884 0 0 0-1.49 1.51c-.36.646-.541 1.38-.541 2.204 0 .823.18 1.558.54 2.204.361.646.858 1.15 1.49 1.51.633.362 1.342.542 2.126.542.785 0 1.493-.18 2.126-.541zm-5.857 2.271a6.626 6.626 0 0 1-2.601-2.46c-.627-1.046-.94-2.22-.94-3.525 0-1.305.313-2.48.94-3.525a6.626 6.626 0 0 1 2.601-2.46c1.108-.595 2.351-.893 3.731-.893s2.62.298 3.722.893a6.711 6.711 0 0 1 2.602 2.46c.633 1.046.949 2.22.949 3.525 0 1.305-.316 2.48-.95 3.525a6.711 6.711 0 0 1-2.6 2.46c-1.102.595-2.343.893-3.723.893s-2.623-.298-3.73-.893zm-11.09-5.501c.923 0 1.625-.202 2.106-.607.48-.404.72-.973.72-1.706 0-.746-.24-1.318-.72-1.716-.48-.398-1.183-.597-2.106-.597h-2.503v4.626zm-5.582 6.166v-13.3h5.753c1.177 0 2.2.196 3.066.589.867.393 1.535.95 2.003 1.672.469.722.703 1.577.703 2.565s-.238 1.84-.712 2.555c-.475.716-1.149 1.264-2.022 1.644l2.98 4.275h-3.303l-2.563-3.705h-2.829v3.705zm-13.503-1.349c-1.056-1.051-1.584-2.552-1.584-4.503v-7.448h3.073v7.334c0 2.381.987 3.572 2.96 3.572.96 0 1.694-.288 2.2-.864.506-.577.759-1.48.759-2.708v-7.334h3.035v7.448c0 1.95-.528 3.452-1.584 4.503-1.056 1.051-2.532 1.577-4.43 1.577-1.896 0-3.373-.526-4.429-1.577zm-14.22 1.349v-13.3h10.042v2.47h-6.986v2.888h6.17v2.394h-6.17v3.078h7.233v2.47z"/></g><g><path fill="#eec670" d="M121.044 148.478c.341-.513.512-1.307.512-2.38s-.17-1.867-.512-2.38c-.342-.513-.812-.77-1.411-.77-.59 0-1.055.257-1.397.77-.341.513-.512 1.307-.512 2.38s.17 1.867.512 2.38c.342.513.807.77 1.397.77.599 0 1.07-.257 1.41-.77zm-3.586 2.086c-.635-.401-1.132-.982-1.491-1.743-.36-.76-.539-1.668-.539-2.723s.18-1.962.539-2.723c.36-.76.856-1.342 1.491-1.743.635-.401 1.358-.602 2.17-.602.812 0 1.535.2 2.17.602.635.401 1.132.982 1.491 1.743.36.76.539 1.668.539 2.723s-.18 1.962-.539 2.723c-.36.76-.856 1.342-1.491 1.743-.635.401-1.358.602-2.17.602-.812 0-1.535-.2-2.17-.602zm-15.345.434v-1.47l3.784-3.57c.402-.383.673-.712.813-.987.14-.275.21-.548.21-.819 0-.392-.132-.693-.399-.903-.266-.21-.656-.315-1.17-.315-.43 0-.818.082-1.164.245a2.227 2.227 0 0 0-.869.735l-1.654-1.064c.383-.57.911-1.015 1.584-1.337.673-.322 1.444-.483 2.313-.483.729 0 1.367.119 1.913.357.547.238.972.574 1.276 1.008.304.434.456.945.456 1.533 0 .532-.113 1.031-.337 1.498-.224.467-.659.999-1.303 1.596l-2.257 2.128h4.219v1.848zm-8.732-2.52c.34-.513.511-1.307.511-2.38s-.17-1.867-.511-2.38c-.34-.513-.81-.77-1.407-.77-.588 0-1.052.257-1.393.77-.34.513-.511 1.307-.511 2.38s.17 1.867.511 2.38c.34.513.805.77 1.393.77.597 0 1.066-.257 1.407-.77zm-3.577 2.086c-.635-.401-1.132-.982-1.491-1.743-.36-.76-.539-1.668-.539-2.723s.18-1.962.539-2.723c.36-.76.856-1.342 1.491-1.743.635-.401 1.358-.602 2.17-.602.812 0 1.535.2 2.17.602.635.401 1.132.982 1.491 1.743.36.76.539 1.668.539 2.723s-.18 1.962-.539 2.723c-.36.76-.856 1.342-1.491 1.743-.635.401-1.358.602-2.17.602-.812 0-1.535-.2-2.17-.602zm-15.346.434v-1.47l3.78-3.57c.401-.383.672-.712.812-.987s.21-.548.21-.819c0-.392-.133-.693-.399-.903-.266-.21-.656-.315-1.169-.315-.43 0-.817.082-1.162.245a2.225 2.225 0 0 0-.868.735l-1.652-1.064c.383-.57.91-1.015 1.582-1.337.672-.322 1.442-.483 2.31-.483.728 0 1.365.119 1.911.357s.97.574 1.274 1.008c.303.434.455.945.455 1.533 0 .532-.112 1.031-.336 1.498-.224.467-.658.999-1.302 1.596l-2.254 2.128h4.214v1.848z"/></g></g></g></svg>