<svg xmlns="http://www.w3.org/2000/svg" width="204" height="168" viewBox="0 0 204 168"><defs><linearGradient id="ghnoa" x1="181.76" x2="163.98" y1="27" y2="193.16" gradientUnits="userSpaceOnUse"><stop offset="0" stop-color="#ffd84f"/><stop offset=".22" stop-color="#faf7ca"/><stop offset=".65" stop-color="#bb8d31"/><stop offset=".84" stop-color="#e6cf85"/><stop offset="1" stop-color="#e9c037"/></linearGradient><linearGradient id="ghnob" x1="39.76" x2="21.98" y1="27" y2="193.16" gradientUnits="userSpaceOnUse"><stop offset="0" stop-color="#ffd84f"/><stop offset=".22" stop-color="#faf7ca"/><stop offset=".65" stop-color="#bb8d31"/><stop offset=".84" stop-color="#e6cf85"/><stop offset="1" stop-color="#e9c037"/></linearGradient><linearGradient id="ghnoc" x1="116.32" x2="59.87" y1="1" y2="39.34" gradientUnits="userSpaceOnUse"><stop offset="0" stop-color="#ffd84f"/><stop offset=".22" stop-color="#faf7ca"/><stop offset=".65" stop-color="#bb8d31"/><stop offset=".84" stop-color="#e6cf85"/><stop offset="1" stop-color="#e9c037"/></linearGradient><linearGradient id="ghnod" x1="118.57" x2="53.23" y1="52.36" y2="93.94" gradientUnits="userSpaceOnUse"><stop offset="0" stop-color="#ffd84f"/><stop offset=".22" stop-color="#faf7ca"/><stop offset=".65" stop-color="#bb8d31"/><stop offset=".84" stop-color="#e6cf85"/><stop offset="1" stop-color="#e9c037"/></linearGradient><linearGradient id="ghnoe" x1="117.89" x2="55.24" y1="110.76" y2="131.32" gradientUnits="userSpaceOnUse"><stop offset="0" stop-color="#ffd84f"/><stop offset=".22" stop-color="#faf7ca"/><stop offset=".65" stop-color="#bb8d31"/><stop offset=".84" stop-color="#e6cf85"/><stop offset="1" stop-color="#e9c037"/></linearGradient><linearGradient id="ghnof" x1="118.16" x2="54.65" y1="88.76" y2="109.32" gradientUnits="userSpaceOnUse"><stop offset="0" stop-color="#ffd84f"/><stop offset=".22" stop-color="#faf7ca"/><stop offset=".65" stop-color="#bb8d31"/><stop offset=".84" stop-color="#e6cf85"/><stop offset="1" stop-color="#e9c037"/></linearGradient></defs><g><g><g><path fill="url(#ghnoa)" d="M152.183 159.045c1.602 3.388 3.84 5.902 6.64 7.135 3.092 1.359 6.47.982 9.76-.784-1.633-3.922-4.02-6.84-7.113-8.199a9.725 9.725 0 0 0-4.485-.805 48.51 48.51 0 0 0 4.838-2.649c2.36 3.22 5.27 5.245 8.483 5.59 3.288.348 6.468-1.07 9.263-3.806-2.36-3.288-5.304-5.36-8.566-5.707-1.54-.163-3.034.058-4.52.621a55.668 55.668 0 0 0 4.72-4.166c2.859 2.426 6.006 3.573 9.155 3.045 3.265-.54 6.115-2.78 8.36-6.206-2.915-2.566-6.147-3.796-9.409-3.255-1.258.209-2.452.669-3.585 1.351a62.825 62.825 0 0 0 2.91-3.924c3.212 1.754 6.498 2.167 9.557.907 3.089-1.288 5.539-4.148 7.232-8.034-3.272-1.84-6.644-2.297-9.766-1.011-1.31.546-2.503 1.376-3.582 2.446a56.304 56.304 0 0 0 2.414-4.97c3.354.914 6.566.543 9.302-1.346 2.883-1.974 4.834-5.342 5.886-9.54-3.495-1.067-6.882-.748-9.733 1.224a12.575 12.575 0 0 0-2.831 2.77c.586-1.83 1.138-3.707 1.577-5.63.028-.072.028-.143.058-.216 3.437.506 6.675-.282 9.266-2.555 2.652-2.34 4.318-5.952 4.986-10.264-3.556-.598-6.878.17-9.561 2.51-1.572 1.396-2.828 3.245-3.702 5.425.439-2.48.729-4.96.906-7.432 3.378-.358 6.344-1.887 8.482-4.673 2.245-2.927 3.286-6.86 3.26-11.25-3.583.255-6.73 1.793-8.97 4.72-1.172 1.523-2.014 3.317-2.54 5.309 0-1.73-.09-3.448-.21-5.158 3.273-1.446 5.83-3.913 7.294-7.354 1.515-3.558 1.662-7.693.698-11.911-3.41 1.425-6.123 3.94-7.634 7.498a16.461 16.461 0 0 0-1.17 4.487 69.437 69.437 0 0 0-1.22-5.979c3.204-1.714 5.65-4.404 6.934-7.986 1.31-3.677 1.223-7.815 0-11.94-3.324 1.707-5.854 4.442-7.164 8.116-.879 2.457-1.147 5.118-.822 7.845-.64-2.042-1.367-4.017-1.981-6.055 2.712-2.465 4.602-5.655 5.221-9.396.664-3.929-.119-7.956-2.012-11.68-2.979 2.51-4.987 5.83-5.655 9.76a17.192 17.192 0 0 0 .2 6.57 60.433 60.433 0 0 0-2.735-5.037c2.24-3.353 3.416-7.185 3.174-11.123-.23-4.01-1.892-7.616-4.544-10.572-2.27 3.384-3.502 7.251-3.234 11.254a16.003 16.003 0 0 0 1.161 5.254 57.749 57.749 0 0 0-3.407-4.212c1.724-3.794 2.304-7.806 1.509-11.646-.805-3.877-2.964-7.075-5.995-9.411-1.783 3.833-2.394 7.9-1.571 11.789a15.344 15.344 0 0 0 2.152 5.252c-.61-.557-1.22-1.1-1.864-1.628-.817-3.89-2.452-7.121-4.952-9.239-2.711-2.278-6.063-2.97-9.618-2.29.762 4.297 2.447 7.868 5.159 10.148 2.683 2.259 6 2.958 9.5 2.306a55.617 55.617 0 0 1 4.57 4.409 9.741 9.741 0 0 0-1.511-.857c-3.059-1.416-6.442-1.1-9.761.604 1.57 3.953 3.931 6.915 6.995 8.33 2.276 1.044 4.745 1.298 7.193.567.99-.3 1.925-.767 2.829-1.33a65.43 65.43 0 0 1 3.41 5.67c-2.536-2.43-5.77-3.397-9.27-3.063.436 4.352 1.93 8.077 4.49 10.608 2.535 2.525 5.795 3.533 9.378 3.197 1.195 3.546 1.931 6.422 2.597 10.197-.666-3.41-1.632-5.295-3.96-7.607-2.336-2.312-5.855-3.536-9.418-3.196.442 4.352 1.925 8.076 4.464 10.606 2.562 2.53 5.85 3.536 9.436 3.197-.03-.157.823 8.826.789 11.356-.292-2.715-1.074-5.198-2.444-7.287-2.046-3.139-5.104-4.985-8.656-5.593-.295 4.373.468 8.397 2.534 11.536 2.01 3.077 4.956 4.91 8.422 5.554-.209 4.329-.874 8.651-1.833 12.822.522-2.945.436-5.865-.406-8.584-1.172-3.748-3.616-6.63-6.855-8.53-1.367 4.05-1.627 8.177-.463 11.924 1.108 3.511 3.145 6.72 6.207 8.244.205.108.43.205.643.295a58.555 58.555 0 0 1-1.991 6.061c-.346.723-.637 1.49-.896 2.293a84.905 84.905 0 0 1-1.372 3.05c.935-2.374 1.372-4.894 1.224-7.463-.266-4-1.92-7.606-4.572-10.55-2.278 3.404-3.471 7.275-3.235 11.273.23 3.516 1.54 6.73 3.67 9.454.615.802.582.775.904 1.172-1.807 3.212-3.818 6.19-6.038 8.911a16.201 16.201 0 0 0 2.513-6.622c.584-3.95-.293-7.946-2.276-11.602-2.91 2.61-4.835 6-5.423 9.952-.552 3.937.33 7.923 2.304 11.572a58.092 58.092 0 0 1-6.52 5.88 14.763 14.763 0 0 0 2.3-3.918c1.43-3.614 1.485-7.752.375-11.93-3.378 1.553-6.003 4.168-7.433 7.78-1.364 3.506-1.451 7.508-.436 11.561a46.456 46.456 0 0 1-7.25 3.454 11.905 11.905 0 0 0 3.29-3.223c2.15-3.046 3.058-7.031 2.887-11.416-3.586.45-6.68 2.156-8.804 5.203-2.012 2.857-2.944 6.542-2.888 10.607-.394.057-4.33.127-4.719.2.026.66-.2 1.05 0 1.365 1.72-.336 7.351-.447 9.1-.426z"/><path fill="none" stroke="#b3711e" stroke-miterlimit="20" stroke-width=".75" d="M152.183 159.045c1.602 3.388 3.84 5.902 6.64 7.135 3.092 1.359 6.47.982 9.76-.784-1.633-3.922-4.02-6.84-7.113-8.199a9.725 9.725 0 0 0-4.485-.805 48.51 48.51 0 0 0 4.838-2.649c2.36 3.22 5.27 5.245 8.483 5.59 3.288.348 6.468-1.07 9.263-3.806-2.36-3.288-5.304-5.36-8.566-5.707-1.54-.163-3.034.058-4.52.621a55.668 55.668 0 0 0 4.72-4.166c2.859 2.426 6.006 3.573 9.155 3.045 3.265-.54 6.115-2.78 8.36-6.206-2.915-2.566-6.147-3.796-9.409-3.255-1.258.209-2.452.669-3.585 1.351a62.825 62.825 0 0 0 2.91-3.924c3.212 1.754 6.498 2.167 9.557.907 3.089-1.288 5.539-4.148 7.232-8.034-3.272-1.84-6.644-2.297-9.766-1.011-1.31.546-2.503 1.376-3.582 2.446a56.304 56.304 0 0 0 2.414-4.97c3.354.914 6.566.543 9.302-1.346 2.883-1.974 4.834-5.342 5.886-9.54-3.495-1.067-6.882-.748-9.733 1.224a12.575 12.575 0 0 0-2.831 2.77c.586-1.83 1.138-3.707 1.577-5.63.028-.072.028-.143.058-.216 3.437.506 6.675-.282 9.266-2.555 2.652-2.34 4.318-5.952 4.986-10.264-3.556-.598-6.878.17-9.561 2.51-1.572 1.396-2.828 3.245-3.702 5.425.439-2.48.729-4.96.906-7.432 3.378-.358 6.344-1.887 8.482-4.673 2.245-2.927 3.286-6.86 3.26-11.25-3.583.255-6.73 1.793-8.97 4.72-1.172 1.523-2.014 3.317-2.54 5.309 0-1.73-.09-3.448-.21-5.158 3.273-1.446 5.83-3.913 7.294-7.354 1.515-3.558 1.662-7.693.698-11.911-3.41 1.425-6.123 3.94-7.634 7.498a16.461 16.461 0 0 0-1.17 4.487 69.437 69.437 0 0 0-1.22-5.979c3.204-1.714 5.65-4.404 6.934-7.986 1.31-3.677 1.223-7.815 0-11.94-3.324 1.707-5.854 4.442-7.164 8.116-.879 2.457-1.147 5.118-.822 7.845-.64-2.042-1.367-4.017-1.981-6.055 2.712-2.465 4.602-5.655 5.221-9.396.664-3.929-.119-7.956-2.012-11.68-2.979 2.51-4.987 5.83-5.655 9.76a17.192 17.192 0 0 0 .2 6.57 60.433 60.433 0 0 0-2.735-5.037c2.24-3.353 3.416-7.185 3.174-11.123-.23-4.01-1.892-7.616-4.544-10.572-2.27 3.384-3.502 7.251-3.234 11.254a16.003 16.003 0 0 0 1.161 5.254 57.749 57.749 0 0 0-3.407-4.212c1.724-3.794 2.304-7.806 1.509-11.646-.805-3.877-2.964-7.075-5.995-9.411-1.783 3.833-2.394 7.9-1.571 11.789a15.344 15.344 0 0 0 2.152 5.252c-.61-.557-1.22-1.1-1.864-1.628-.817-3.89-2.452-7.121-4.952-9.239-2.711-2.278-6.063-2.97-9.618-2.29.762 4.297 2.447 7.868 5.159 10.148 2.683 2.259 6 2.958 9.5 2.306a55.617 55.617 0 0 1 4.57 4.409 9.741 9.741 0 0 0-1.511-.857c-3.059-1.416-6.442-1.1-9.761.604 1.57 3.953 3.931 6.915 6.995 8.33 2.276 1.044 4.745 1.298 7.193.567.99-.3 1.925-.767 2.829-1.33a65.43 65.43 0 0 1 3.41 5.67c-2.536-2.43-5.77-3.397-9.27-3.063.436 4.352 1.93 8.077 4.49 10.608 2.535 2.525 5.795 3.533 9.378 3.197 1.195 3.546 1.931 6.422 2.597 10.197-.666-3.41-1.632-5.295-3.96-7.607-2.336-2.312-5.855-3.536-9.418-3.196.442 4.352 1.925 8.076 4.464 10.606 2.562 2.53 5.85 3.536 9.436 3.197-.03-.157.823 8.826.789 11.356-.292-2.715-1.074-5.198-2.444-7.287-2.046-3.139-5.104-4.985-8.656-5.593-.295 4.373.468 8.397 2.534 11.536 2.01 3.077 4.956 4.91 8.422 5.554-.209 4.329-.874 8.651-1.833 12.822.522-2.945.436-5.865-.406-8.584-1.172-3.748-3.616-6.63-6.855-8.53-1.367 4.05-1.627 8.177-.463 11.924 1.108 3.511 3.145 6.72 6.207 8.244.205.108.43.205.643.295a58.555 58.555 0 0 1-1.991 6.061c-.346.723-.637 1.49-.896 2.293a84.905 84.905 0 0 1-1.372 3.05c.935-2.374 1.372-4.894 1.224-7.463-.266-4-1.92-7.606-4.572-10.55-2.278 3.404-3.471 7.275-3.235 11.273.23 3.516 1.54 6.73 3.67 9.454.615.802.582.775.904 1.172-1.807 3.212-3.818 6.19-6.038 8.911a16.201 16.201 0 0 0 2.513-6.622c.584-3.95-.293-7.946-2.276-11.602-2.91 2.61-4.835 6-5.423 9.952-.552 3.937.33 7.923 2.304 11.572a58.092 58.092 0 0 1-6.52 5.88 14.763 14.763 0 0 0 2.3-3.918c1.43-3.614 1.485-7.752.375-11.93-3.378 1.553-6.003 4.168-7.433 7.78-1.364 3.506-1.451 7.508-.436 11.561a46.456 46.456 0 0 1-7.25 3.454 11.905 11.905 0 0 0 3.29-3.223c2.15-3.046 3.058-7.031 2.887-11.416-3.586.45-6.68 2.156-8.804 5.203-2.012 2.857-2.944 6.542-2.888 10.607-.394.057-4.33.127-4.719.2.026.66-.2 1.05 0 1.365 1.72-.336 7.351-.447 9.1-.426z"/></g><g><path fill="url(#ghnob)" d="M51.817 159.045c-1.602 3.388-3.84 5.902-6.64 7.135-3.092 1.359-6.47.982-9.76-.784 1.633-3.922 4.02-6.84 7.113-8.199a9.725 9.725 0 0 1 4.485-.805 48.51 48.51 0 0 1-4.838-2.649c-2.36 3.22-5.27 5.245-8.483 5.59-3.288.348-6.468-1.07-9.263-3.806 2.36-3.288 5.304-5.36 8.566-5.707 1.54-.163 3.034.058 4.52.621a55.668 55.668 0 0 1-4.72-4.166c-2.859 2.426-6.006 3.573-9.155 3.045-3.265-.54-6.115-2.78-8.36-6.206 2.915-2.566 6.147-3.796 9.409-3.255 1.258.209 2.452.669 3.585 1.351a62.825 62.825 0 0 1-2.91-3.924c-3.212 1.754-6.498 2.167-9.557.907-3.089-1.288-5.539-4.148-7.232-8.034 3.272-1.84 6.644-2.297 9.766-1.011 1.31.546 2.503 1.376 3.582 2.446a56.304 56.304 0 0 1-2.414-4.97c-3.354.914-6.566.543-9.302-1.346-2.883-1.974-4.834-5.342-5.886-9.54 3.495-1.067 6.882-.748 9.733 1.224a12.575 12.575 0 0 1 2.831 2.77c-.586-1.83-1.138-3.707-1.577-5.63-.028-.072-.028-.143-.058-.216-3.437.506-6.675-.282-9.266-2.555-2.652-2.34-4.318-5.952-4.986-10.264 3.556-.598 6.878.17 9.561 2.51 1.572 1.396 2.828 3.245 3.702 5.425a72.318 72.318 0 0 1-.906-7.432c-3.378-.358-6.344-1.887-8.482-4.673-2.245-2.927-3.286-6.86-3.26-11.25 3.583.255 6.73 1.793 8.97 4.72 1.172 1.523 2.014 3.317 2.54 5.309 0-1.73.09-3.448.21-5.158-3.273-1.446-5.83-3.913-7.294-7.354-1.515-3.558-1.662-7.693-.698-11.911 3.41 1.425 6.123 3.94 7.634 7.498a16.461 16.461 0 0 1 1.17 4.487 69.437 69.437 0 0 1 1.22-5.979c-3.204-1.714-5.65-4.404-6.934-7.986-1.31-3.677-1.223-7.815 0-11.94 3.324 1.707 5.854 4.442 7.164 8.116.879 2.457 1.147 5.118.822 7.845.64-2.042 1.367-4.017 1.981-6.055-2.712-2.465-4.602-5.655-5.22-9.396-.665-3.929.118-7.956 2.01-11.68 2.98 2.51 4.988 5.83 5.656 9.76.35 2.182.296 4.395-.2 6.57a60.433 60.433 0 0 1 2.735-5.037c-2.24-3.353-3.416-7.185-3.174-11.123.23-4.01 1.892-7.616 4.544-10.572 2.27 3.384 3.502 7.251 3.234 11.254a16.003 16.003 0 0 1-1.161 5.254 57.749 57.749 0 0 1 3.407-4.212c-1.724-3.794-2.304-7.806-1.509-11.646.805-3.877 2.964-7.075 5.995-9.411 1.783 3.833 2.394 7.9 1.571 11.789a15.344 15.344 0 0 1-2.152 5.252c.61-.557 1.22-1.1 1.864-1.628.817-3.89 2.452-7.121 4.952-9.239 2.711-2.278 6.063-2.97 9.618-2.29-.762 4.297-2.447 7.868-5.159 10.148-2.683 2.259-6 2.958-9.5 2.306a55.617 55.617 0 0 0-4.57 4.409 9.741 9.741 0 0 1 1.511-.857c3.059-1.416 6.442-1.1 9.761.604-1.57 3.953-3.931 6.915-6.995 8.33-2.276 1.044-4.745 1.298-7.193.567-.99-.3-1.925-.767-2.829-1.33a65.43 65.43 0 0 0-3.41 5.67c2.536-2.43 5.77-3.397 9.27-3.063-.436 4.352-1.93 8.077-4.49 10.608-2.535 2.525-5.795 3.533-9.378 3.197-1.195 3.546-1.931 6.422-2.597 10.197.666-3.41 1.632-5.295 3.96-7.607 2.336-2.312 5.855-3.536 9.418-3.196-.442 4.352-1.925 8.076-4.464 10.606-2.562 2.53-5.85 3.536-9.436 3.197.03-.157-.823 8.826-.789 11.356.292-2.715 1.074-5.198 2.444-7.287 2.046-3.139 5.104-4.985 8.656-5.593.295 4.373-.468 8.397-2.534 11.536-2.01 3.077-4.956 4.91-8.422 5.554.209 4.329.874 8.651 1.833 12.822-.522-2.945-.436-5.865.406-8.584 1.172-3.748 3.616-6.63 6.855-8.53 1.367 4.05 1.627 8.177.463 11.924-1.108 3.511-3.145 6.72-6.207 8.244-.205.108-.43.205-.643.295a58.555 58.555 0 0 0 1.991 6.061c.346.723.637 1.49.896 2.293a84.905 84.905 0 0 0 1.372 3.05c-.935-2.374-1.372-4.894-1.224-7.463.266-4 1.92-7.606 4.572-10.55 2.278 3.404 3.471 7.275 3.235 11.273-.23 3.516-1.54 6.73-3.67 9.454-.615.802-.582.775-.904 1.172 1.807 3.212 3.818 6.19 6.038 8.911a16.201 16.201 0 0 1-2.513-6.622c-.584-3.95.293-7.946 2.276-11.602 2.91 2.61 4.835 6 5.423 9.952.552 3.937-.33 7.923-2.304 11.572a58.092 58.092 0 0 0 6.52 5.88 14.763 14.763 0 0 1-2.3-3.918c-1.43-3.614-1.485-7.752-.375-11.93 3.378 1.553 6.003 4.168 7.433 7.78 1.364 3.506 1.451 7.508.436 11.561a46.456 46.456 0 0 0 7.25 3.454 11.905 11.905 0 0 1-3.29-3.223c-2.15-3.046-3.058-7.031-2.887-11.416 3.586.45 6.68 2.156 8.804 5.203 2.012 2.857 2.944 6.542 2.888 10.607.394.057 4.33.127 4.719.2-.026.66.2 1.05 0 1.365-1.72-.336-7.351-.447-9.1-.426z"/><path fill="none" stroke="#b3711e" stroke-miterlimit="20" stroke-width=".75" d="M51.817 159.045c-1.602 3.388-3.84 5.902-6.64 7.135-3.092 1.359-6.47.982-9.76-.784 1.633-3.922 4.02-6.84 7.113-8.199a9.725 9.725 0 0 1 4.485-.805 48.51 48.51 0 0 1-4.838-2.649c-2.36 3.22-5.27 5.245-8.483 5.59-3.288.348-6.468-1.07-9.263-3.806 2.36-3.288 5.304-5.36 8.566-5.707 1.54-.163 3.034.058 4.52.621a55.668 55.668 0 0 1-4.72-4.166c-2.859 2.426-6.006 3.573-9.155 3.045-3.265-.54-6.115-2.78-8.36-6.206 2.915-2.566 6.147-3.796 9.409-3.255 1.258.209 2.452.669 3.585 1.351a62.825 62.825 0 0 1-2.91-3.924c-3.212 1.754-6.498 2.167-9.557.907-3.089-1.288-5.539-4.148-7.232-8.034 3.272-1.84 6.644-2.297 9.766-1.011 1.31.546 2.503 1.376 3.582 2.446a56.304 56.304 0 0 1-2.414-4.97c-3.354.914-6.566.543-9.302-1.346-2.883-1.974-4.834-5.342-5.886-9.54 3.495-1.067 6.882-.748 9.733 1.224a12.575 12.575 0 0 1 2.831 2.77c-.586-1.83-1.138-3.707-1.577-5.63-.028-.072-.028-.143-.058-.216-3.437.506-6.675-.282-9.266-2.555-2.652-2.34-4.318-5.952-4.986-10.264 3.556-.598 6.878.17 9.561 2.51 1.572 1.396 2.828 3.245 3.702 5.425a72.318 72.318 0 0 1-.906-7.432c-3.378-.358-6.344-1.887-8.482-4.673-2.245-2.927-3.286-6.86-3.26-11.25 3.583.255 6.73 1.793 8.97 4.72 1.172 1.523 2.014 3.317 2.54 5.309 0-1.73.09-3.448.21-5.158-3.273-1.446-5.83-3.913-7.294-7.354-1.515-3.558-1.662-7.693-.698-11.911 3.41 1.425 6.123 3.94 7.634 7.498a16.461 16.461 0 0 1 1.17 4.487 69.437 69.437 0 0 1 1.22-5.979c-3.204-1.714-5.65-4.404-6.934-7.986-1.31-3.677-1.223-7.815 0-11.94 3.324 1.707 5.854 4.442 7.164 8.116.879 2.457 1.147 5.118.822 7.845.64-2.042 1.367-4.017 1.981-6.055-2.712-2.465-4.602-5.655-5.22-9.396-.665-3.929.118-7.956 2.01-11.68 2.98 2.51 4.988 5.83 5.656 9.76.35 2.182.296 4.395-.2 6.57a60.433 60.433 0 0 1 2.735-5.037c-2.24-3.353-3.416-7.185-3.174-11.123.23-4.01 1.892-7.616 4.544-10.572 2.27 3.384 3.502 7.251 3.234 11.254a16.003 16.003 0 0 1-1.161 5.254 57.749 57.749 0 0 1 3.407-4.212c-1.724-3.794-2.304-7.806-1.509-11.646.805-3.877 2.964-7.075 5.995-9.411 1.783 3.833 2.394 7.9 1.571 11.789a15.344 15.344 0 0 1-2.152 5.252c.61-.557 1.22-1.1 1.864-1.628.817-3.89 2.452-7.121 4.952-9.239 2.711-2.278 6.063-2.97 9.618-2.29-.762 4.297-2.447 7.868-5.159 10.148-2.683 2.259-6 2.958-9.5 2.306a55.617 55.617 0 0 0-4.57 4.409 9.741 9.741 0 0 1 1.511-.857c3.059-1.416 6.442-1.1 9.761.604-1.57 3.953-3.931 6.915-6.995 8.33-2.276 1.044-4.745 1.298-7.193.567-.99-.3-1.925-.767-2.829-1.33a65.43 65.43 0 0 0-3.41 5.67c2.536-2.43 5.77-3.397 9.27-3.063-.436 4.352-1.93 8.077-4.49 10.608-2.535 2.525-5.795 3.533-9.378 3.197-1.195 3.546-1.931 6.422-2.597 10.197.666-3.41 1.632-5.295 3.96-7.607 2.336-2.312 5.855-3.536 9.418-3.196-.442 4.352-1.925 8.076-4.464 10.606-2.562 2.53-5.85 3.536-9.436 3.197.03-.157-.823 8.826-.789 11.356.292-2.715 1.074-5.198 2.444-7.287 2.046-3.139 5.104-4.985 8.656-5.593.295 4.373-.468 8.397-2.534 11.536-2.01 3.077-4.956 4.91-8.422 5.554.209 4.329.874 8.651 1.833 12.822-.522-2.945-.436-5.865.406-8.584 1.172-3.748 3.616-6.63 6.855-8.53 1.367 4.05 1.627 8.177.463 11.924-1.108 3.511-3.145 6.72-6.207 8.244-.205.108-.43.205-.643.295a58.555 58.555 0 0 0 1.991 6.061c.346.723.637 1.49.896 2.293a84.905 84.905 0 0 0 1.372 3.05c-.935-2.374-1.372-4.894-1.224-7.463.266-4 1.92-7.606 4.572-10.55 2.278 3.404 3.471 7.275 3.235 11.273-.23 3.516-1.54 6.73-3.67 9.454-.615.802-.582.775-.904 1.172 1.807 3.212 3.818 6.19 6.038 8.911a16.201 16.201 0 0 1-2.513-6.622c-.584-3.95.293-7.946 2.276-11.602 2.91 2.61 4.835 6 5.423 9.952.552 3.937-.33 7.923-2.304 11.572a58.092 58.092 0 0 0 6.52 5.88 14.763 14.763 0 0 1-2.3-3.918c-1.43-3.614-1.485-7.752-.375-11.93 3.378 1.553 6.003 4.168 7.433 7.78 1.364 3.506 1.451 7.508.436 11.561a46.456 46.456 0 0 0 7.25 3.454 11.905 11.905 0 0 1-3.29-3.223c-2.15-3.046-3.058-7.031-2.887-11.416 3.586.45 6.68 2.156 8.804 5.203 2.012 2.857 2.944 6.542 2.888 10.607.394.057 4.33.127 4.719.2-.026.66.2 1.05 0 1.365-1.72-.336-7.351-.447-9.1-.426z"/></g><g><path fill="url(#ghnoc)" d="M67.12 28a.716.716 0 0 1-.419-.136l-4.7-3.388-4.7 3.388a.716.716 0 0 1-.84 0 .705.705 0 0 1-.26-.791l1.796-5.483-4.702-3.388a.705.705 0 0 1-.26-.792.714.714 0 0 1 .68-.49h5.81l1.796-5.482c.191-.584 1.166-.584 1.358 0l1.795 5.482h5.811c.31 0 .584.198.68.49a.703.703 0 0 1-.26.792l-4.7 3.388 1.795 5.483a.703.703 0 0 1-.26.791.716.716 0 0 1-.42.136zm80 0a.716.716 0 0 1-.419-.136l-4.7-3.388-4.7 3.388a.716.716 0 0 1-.84 0 .705.705 0 0 1-.26-.791l1.796-5.483-4.702-3.388a.705.705 0 0 1-.26-.792.714.714 0 0 1 .68-.49h5.81l1.796-5.482c.191-.584 1.166-.584 1.358 0l1.795 5.482h5.811c.31 0 .584.198.68.49a.703.703 0 0 1-.26.792l-4.7 3.388 1.795 5.483a.703.703 0 0 1-.26.791.716.716 0 0 1-.42.136zm-20-6a.716.716 0 0 1-.419-.136l-4.7-3.388-4.7 3.388a.716.716 0 0 1-.84 0 .705.705 0 0 1-.26-.791l1.796-5.483-4.702-3.388a.705.705 0 0 1-.26-.792.714.714 0 0 1 .68-.49h5.81l1.796-5.482c.191-.584 1.166-.584 1.358 0l1.795 5.482h5.811c.31 0 .584.198.68.49a.703.703 0 0 1-.26.792l-4.7 3.388 1.795 5.483a.703.703 0 0 1-.26.791.716.716 0 0 1-.42.136zm-40 0a.716.716 0 0 1-.419-.136l-4.7-3.388-4.7 3.388a.716.716 0 0 1-.84 0 .705.705 0 0 1-.26-.791l1.796-5.483-4.702-3.388a.705.705 0 0 1-.26-.792.714.714 0 0 1 .68-.49h5.81l1.796-5.482c.191-.584 1.166-.584 1.358 0l1.795 5.482h5.811c.31 0 .584.198.68.49a.703.703 0 0 1-.26.792l-4.7 3.388 1.795 5.483a.703.703 0 0 1-.26.791.716.716 0 0 1-.42.136zm20-4a.716.716 0 0 1-.419-.136l-4.7-3.388-4.7 3.388a.716.716 0 0 1-.84 0 .705.705 0 0 1-.26-.791l1.796-5.483-4.702-3.388a.705.705 0 0 1-.26-.792.714.714 0 0 1 .68-.49h5.81l1.796-5.482c.191-.584 1.166-.584 1.358 0l1.795 5.482h5.811c.31 0 .584.198.68.49a.703.703 0 0 1-.26.792l-4.7 3.388 1.795 5.483a.703.703 0 0 1-.26.791.716.716 0 0 1-.42.136z"/><path fill="none" stroke="#b3711e" stroke-miterlimit="20" stroke-width=".75" d="M67.12 28a.716.716 0 0 1-.419-.136l-4.7-3.388-4.7 3.388a.716.716 0 0 1-.84 0 .705.705 0 0 1-.26-.791l1.796-5.483-4.702-3.388a.705.705 0 0 1-.26-.792.714.714 0 0 1 .68-.49h5.81l1.796-5.482c.191-.584 1.166-.584 1.358 0l1.795 5.482h5.811c.31 0 .584.198.68.49a.703.703 0 0 1-.26.792l-4.7 3.388 1.795 5.483a.703.703 0 0 1-.26.791.716.716 0 0 1-.42.136zm80 0a.716.716 0 0 1-.419-.136l-4.7-3.388-4.7 3.388a.716.716 0 0 1-.84 0 .705.705 0 0 1-.26-.791l1.796-5.483-4.702-3.388a.705.705 0 0 1-.26-.792.714.714 0 0 1 .68-.49h5.81l1.796-5.482c.191-.584 1.166-.584 1.358 0l1.795 5.482h5.811c.31 0 .584.198.68.49a.703.703 0 0 1-.26.792l-4.7 3.388 1.795 5.483a.703.703 0 0 1-.26.791.716.716 0 0 1-.42.136zm-20-6a.716.716 0 0 1-.419-.136l-4.7-3.388-4.7 3.388a.716.716 0 0 1-.84 0 .705.705 0 0 1-.26-.791l1.796-5.483-4.702-3.388a.705.705 0 0 1-.26-.792.714.714 0 0 1 .68-.49h5.81l1.796-5.482c.191-.584 1.166-.584 1.358 0l1.795 5.482h5.811c.31 0 .584.198.68.49a.703.703 0 0 1-.26.792l-4.7 3.388 1.795 5.483a.703.703 0 0 1-.26.791.716.716 0 0 1-.42.136zm-40 0a.716.716 0 0 1-.419-.136l-4.7-3.388-4.7 3.388a.716.716 0 0 1-.84 0 .705.705 0 0 1-.26-.791l1.796-5.483-4.702-3.388a.705.705 0 0 1-.26-.792.714.714 0 0 1 .68-.49h5.81l1.796-5.482c.191-.584 1.166-.584 1.358 0l1.795 5.482h5.811c.31 0 .584.198.68.49a.703.703 0 0 1-.26.792l-4.7 3.388 1.795 5.483a.703.703 0 0 1-.26.791.716.716 0 0 1-.42.136zm20-4a.716.716 0 0 1-.419-.136l-4.7-3.388-4.7 3.388a.716.716 0 0 1-.84 0 .705.705 0 0 1-.26-.791l1.796-5.483-4.702-3.388a.705.705 0 0 1-.26-.792.714.714 0 0 1 .68-.49h5.81l1.796-5.482c.191-.584 1.166-.584 1.358 0l1.795 5.482h5.811c.31 0 .584.198.68.49a.703.703 0 0 1-.26.792l-4.7 3.388 1.795 5.483a.703.703 0 0 1-.26.791.716.716 0 0 1-.42.136z"/></g><g><path fill="#252529" d="M150.52 81V60.32h8.2V53h-25.84v7.32h8.2V81zm-32.96.64c2.8 0 5.18-.42 7.14-1.26 1.96-.84 3.433-1.973 4.42-3.4.987-1.427 1.48-3.02 1.48-4.78 0-2.027-.54-3.627-1.62-4.8a9.394 9.394 0 0 0-3.82-2.54c-1.467-.52-3.267-.98-5.4-1.38-1.653-.32-2.84-.62-3.56-.9-.72-.28-1.08-.7-1.08-1.26 0-1.173 1.213-1.76 3.64-1.76 2.453 0 5.053.693 7.8 2.08l2.84-6.84c-1.413-.8-3.047-1.407-4.9-1.82a25.923 25.923 0 0 0-5.66-.62c-2.8 0-5.18.413-7.14 1.24s-3.433 1.96-4.42 3.4a8.303 8.303 0 0 0-1.48 4.8c0 2.027.533 3.633 1.6 4.82 1.067 1.187 2.32 2.04 3.76 2.56s3.24 1.007 5.4 1.46c1.68.347 2.887.667 3.62.96.733.293 1.1.733 1.1 1.32 0 .507-.28.887-.84 1.14-.56.253-1.493.38-2.8.38-1.52 0-3.107-.233-4.76-.7-1.653-.467-3.147-1.087-4.48-1.86l-3.04 6.88c1.413.88 3.22 1.58 5.42 2.1 2.2.52 4.46.78 6.78.78zM101.48 81v-7.12h-14V70.2h11.84v-6.8H87.48v-3.28h13.48V53H78.2v28zm-46.92-6.6V70h5.68c2.08 0 3.12.733 3.12 2.2s-1.04 2.2-3.12 2.2zm0-10.64V59.6h4.4c2.053 0 3.08.693 3.08 2.08s-1.027 2.08-3.08 2.08zM61.04 81c3.84 0 6.773-.673 8.8-2.02 2.027-1.347 3.04-3.247 3.04-5.7 0-1.653-.453-3.067-1.36-4.24s-2.187-2.067-3.84-2.68c1.28-.64 2.247-1.48 2.9-2.52s.98-2.213.98-3.52c0-2.213-.953-3.987-2.86-5.32-1.907-1.333-4.727-2-8.46-2H45.28v28z"/><path fill="url(#ghnod)" d="M150.52 81V60.32h8.2V53h-25.84v7.32h8.2V81zm-32.96.64c2.8 0 5.18-.42 7.14-1.26 1.96-.84 3.433-1.973 4.42-3.4.987-1.427 1.48-3.02 1.48-4.78 0-2.027-.54-3.627-1.62-4.8a9.394 9.394 0 0 0-3.82-2.54c-1.467-.52-3.267-.98-5.4-1.38-1.653-.32-2.84-.62-3.56-.9-.72-.28-1.08-.7-1.08-1.26 0-1.173 1.213-1.76 3.64-1.76 2.453 0 5.053.693 7.8 2.08l2.84-6.84c-1.413-.8-3.047-1.407-4.9-1.82a25.923 25.923 0 0 0-5.66-.62c-2.8 0-5.18.413-7.14 1.24s-3.433 1.96-4.42 3.4a8.303 8.303 0 0 0-1.48 4.8c0 2.027.533 3.633 1.6 4.82 1.067 1.187 2.32 2.04 3.76 2.56s3.24 1.007 5.4 1.46c1.68.347 2.887.667 3.62.96.733.293 1.1.733 1.1 1.32 0 .507-.28.887-.84 1.14-.56.253-1.493.38-2.8.38-1.52 0-3.107-.233-4.76-.7-1.653-.467-3.147-1.087-4.48-1.86l-3.04 6.88c1.413.88 3.22 1.58 5.42 2.1 2.2.52 4.46.78 6.78.78zM101.48 81v-7.12h-14V70.2h11.84v-6.8H87.48v-3.28h13.48V53H78.2v28zm-46.92-6.6V70h5.68c2.08 0 3.12.733 3.12 2.2s-1.04 2.2-3.12 2.2zm0-10.64V59.6h4.4c2.053 0 3.08.693 3.08 2.08s-1.027 2.08-3.08 2.08zM61.04 81c3.84 0 6.773-.673 8.8-2.02 2.027-1.347 3.04-3.247 3.04-5.7 0-1.653-.453-3.067-1.36-4.24s-2.187-2.067-3.84-2.68c1.28-.64 2.247-1.48 2.9-2.52s.98-2.213.98-3.52c0-2.213-.953-3.987-2.86-5.32-1.907-1.333-4.727-2-8.46-2H45.28v28z"/><path fill="none" stroke="#b3711e" stroke-miterlimit="20" stroke-width=".75" d="M150.52 81V60.32h8.2V53h-25.84v7.32h8.2V81zm-32.96.64c2.8 0 5.18-.42 7.14-1.26 1.96-.84 3.433-1.973 4.42-3.4.987-1.427 1.48-3.02 1.48-4.78 0-2.027-.54-3.627-1.62-4.8a9.394 9.394 0 0 0-3.82-2.54c-1.467-.52-3.267-.98-5.4-1.38-1.653-.32-2.84-.62-3.56-.9-.72-.28-1.08-.7-1.08-1.26 0-1.173 1.213-1.76 3.64-1.76 2.453 0 5.053.693 7.8 2.08l2.84-6.84c-1.413-.8-3.047-1.407-4.9-1.82a25.923 25.923 0 0 0-5.66-.62c-2.8 0-5.18.413-7.14 1.24s-3.433 1.96-4.42 3.4a8.303 8.303 0 0 0-1.48 4.8c0 2.027.533 3.633 1.6 4.82 1.067 1.187 2.32 2.04 3.76 2.56s3.24 1.007 5.4 1.46c1.68.347 2.887.667 3.62.96.733.293 1.1.733 1.1 1.32 0 .507-.28.887-.84 1.14-.56.253-1.493.38-2.8.38-1.52 0-3.107-.233-4.76-.7-1.653-.467-3.147-1.087-4.48-1.86l-3.04 6.88c1.413.88 3.22 1.58 5.42 2.1 2.2.52 4.46.78 6.78.78zM101.48 81v-7.12h-14V70.2h11.84v-6.8H87.48v-3.28h13.48V53H78.2v28zm-46.92-6.6V70h5.68c2.08 0 3.12.733 3.12 2.2s-1.04 2.2-3.12 2.2zm0-10.64V59.6h4.4c2.053 0 3.08.693 3.08 2.08s-1.027 2.08-3.08 2.08zM61.04 81c3.84 0 6.773-.673 8.8-2.02 2.027-1.347 3.04-3.247 3.04-5.7 0-1.653-.453-3.067-1.36-4.24s-2.187-2.067-3.84-2.68c1.28-.64 2.247-1.48 2.9-2.52s.98-2.213.98-3.52c0-2.213-.953-3.987-2.86-5.32-1.907-1.333-4.727-2-8.46-2H45.28v28z"/></g><g><path fill="#252529" d="M147.24 124.79c-1.033-.3-1.863-.69-2.49-1.17l1.1-2.44c.6.44 1.313.793 2.14 1.06.827.267 1.653.4 2.48.4.92 0 1.6-.137 2.04-.41.44-.273.66-.637.66-1.09 0-.333-.13-.61-.39-.83-.26-.22-.593-.397-1-.53-.407-.133-.957-.28-1.65-.44-1.067-.253-1.94-.507-2.62-.76a4.257 4.257 0 0 1-1.75-1.22c-.487-.56-.73-1.307-.73-2.24 0-.813.22-1.55.66-2.21.44-.66 1.103-1.183 1.99-1.57s1.97-.58 3.25-.58c.893 0 1.767.107 2.62.32.853.213 1.6.52 2.24.92l-1 2.46c-1.293-.733-2.587-1.1-3.88-1.1-.907 0-1.577.147-2.01.44-.433.293-.65.68-.65 1.16 0 .48.25.837.75 1.07.5.233 1.263.463 2.29.69 1.067.253 1.94.507 2.62.76.68.253 1.263.653 1.75 1.2.487.547.73 1.287.73 2.22 0 .8-.223 1.53-.67 2.19-.447.66-1.117 1.183-2.01 1.57-.893.387-1.98.58-3.26.58-1.107 0-2.177-.15-3.21-.45zm-15.81.21v-14h10.58v2.6h-7.36v3.04h6.5v2.52h-6.5v3.24h7.62v2.6zm-12.83-.69a6.94 6.94 0 0 1-2.72-2.58c-.66-1.1-.99-2.343-.99-3.73s.33-2.63.99-3.73a6.94 6.94 0 0 1 2.72-2.58c1.153-.62 2.45-.93 3.89-.93 1.213 0 2.31.213 3.29.64a6.59 6.59 0 0 1 2.47 1.84l-2.08 1.92c-.947-1.093-2.12-1.64-3.52-1.64-.867 0-1.64.19-2.32.57-.68.38-1.21.91-1.59 1.59-.38.68-.57 1.453-.57 2.32 0 .867.19 1.64.57 2.32.38.68.91 1.21 1.59 1.59.68.38 1.453.57 2.32.57 1.4 0 2.573-.553 3.52-1.66l2.08 1.92a6.483 6.483 0 0 1-2.48 1.86c-.987.427-2.087.64-3.3.64-1.427 0-2.717-.31-3.87-.93zm-10.39.69v-14h3.24v14zm-11.42 0l-6.04-14h3.5l4.26 10 4.32-10h3.22l-6.06 14zm-14.02-6.48c.973 0 1.713-.213 2.22-.64.507-.427.76-1.027.76-1.8 0-.787-.253-1.39-.76-1.81-.507-.42-1.247-.63-2.22-.63h-2.64v4.88zM76.89 125v-14h6.06c1.24 0 2.317.207 3.23.62.913.413 1.617 1 2.11 1.76.493.76.74 1.66.74 2.7 0 1.04-.25 1.937-.75 2.69-.5.753-1.21 1.33-2.13 1.73l3.14 4.5h-3.48l-2.7-3.9h-2.98v3.9zm-14.42 0v-14h10.58v2.6h-7.36v3.04h6.5v2.52h-6.5v3.24h7.62v2.6zm-12.37-.21c-1.033-.3-1.863-.69-2.49-1.17l1.1-2.44c.6.44 1.313.793 2.14 1.06.827.267 1.653.4 2.48.4.92 0 1.6-.137 2.04-.41.44-.273.66-.637.66-1.09 0-.333-.13-.61-.39-.83-.26-.22-.593-.397-1-.53-.407-.133-.957-.28-1.65-.44-1.067-.253-1.94-.507-2.62-.76a4.257 4.257 0 0 1-1.75-1.22c-.487-.56-.73-1.307-.73-2.24 0-.813.22-1.55.66-2.21.44-.66 1.103-1.183 1.99-1.57s1.97-.58 3.25-.58c.893 0 1.767.107 2.62.32.853.213 1.6.52 2.24.92l-1 2.46c-1.293-.733-2.587-1.1-3.88-1.1-.907 0-1.577.147-2.01.44-.433.293-.65.68-.65 1.16 0 .48.25.837.75 1.07.5.233 1.263.463 2.29.69 1.067.253 1.94.507 2.62.76.68.253 1.263.653 1.75 1.2.487.547.73 1.287.73 2.22 0 .8-.223 1.53-.67 2.19-.447.66-1.117 1.183-2.01 1.57-.893.387-1.98.58-3.26.58-1.107 0-2.177-.15-3.21-.45z"/><path fill="url(#ghnoe)" d="M147.24 124.79c-1.033-.3-1.863-.69-2.49-1.17l1.1-2.44c.6.44 1.313.793 2.14 1.06.827.267 1.653.4 2.48.4.92 0 1.6-.137 2.04-.41.44-.273.66-.637.66-1.09 0-.333-.13-.61-.39-.83-.26-.22-.593-.397-1-.53-.407-.133-.957-.28-1.65-.44-1.067-.253-1.94-.507-2.62-.76a4.257 4.257 0 0 1-1.75-1.22c-.487-.56-.73-1.307-.73-2.24 0-.813.22-1.55.66-2.21.44-.66 1.103-1.183 1.99-1.57s1.97-.58 3.25-.58c.893 0 1.767.107 2.62.32.853.213 1.6.52 2.24.92l-1 2.46c-1.293-.733-2.587-1.1-3.88-1.1-.907 0-1.577.147-2.01.44-.433.293-.65.68-.65 1.16 0 .48.25.837.75 1.07.5.233 1.263.463 2.29.69 1.067.253 1.94.507 2.62.76.68.253 1.263.653 1.75 1.2.487.547.73 1.287.73 2.22 0 .8-.223 1.53-.67 2.19-.447.66-1.117 1.183-2.01 1.57-.893.387-1.98.58-3.26.58-1.107 0-2.177-.15-3.21-.45zm-15.81.21v-14h10.58v2.6h-7.36v3.04h6.5v2.52h-6.5v3.24h7.62v2.6zm-12.83-.69a6.94 6.94 0 0 1-2.72-2.58c-.66-1.1-.99-2.343-.99-3.73s.33-2.63.99-3.73a6.94 6.94 0 0 1 2.72-2.58c1.153-.62 2.45-.93 3.89-.93 1.213 0 2.31.213 3.29.64a6.59 6.59 0 0 1 2.47 1.84l-2.08 1.92c-.947-1.093-2.12-1.64-3.52-1.64-.867 0-1.64.19-2.32.57-.68.38-1.21.91-1.59 1.59-.38.68-.57 1.453-.57 2.32 0 .867.19 1.64.57 2.32.38.68.91 1.21 1.59 1.59.68.38 1.453.57 2.32.57 1.4 0 2.573-.553 3.52-1.66l2.08 1.92a6.483 6.483 0 0 1-2.48 1.86c-.987.427-2.087.64-3.3.64-1.427 0-2.717-.31-3.87-.93zm-10.39.69v-14h3.24v14zm-11.42 0l-6.04-14h3.5l4.26 10 4.32-10h3.22l-6.06 14zm-14.02-6.48c.973 0 1.713-.213 2.22-.64.507-.427.76-1.027.76-1.8 0-.787-.253-1.39-.76-1.81-.507-.42-1.247-.63-2.22-.63h-2.64v4.88zM76.89 125v-14h6.06c1.24 0 2.317.207 3.23.62.913.413 1.617 1 2.11 1.76.493.76.74 1.66.74 2.7 0 1.04-.25 1.937-.75 2.69-.5.753-1.21 1.33-2.13 1.73l3.14 4.5h-3.48l-2.7-3.9h-2.98v3.9zm-14.42 0v-14h10.58v2.6h-7.36v3.04h6.5v2.52h-6.5v3.24h7.62v2.6zm-12.37-.21c-1.033-.3-1.863-.69-2.49-1.17l1.1-2.44c.6.44 1.313.793 2.14 1.06.827.267 1.653.4 2.48.4.92 0 1.6-.137 2.04-.41.44-.273.66-.637.66-1.09 0-.333-.13-.61-.39-.83-.26-.22-.593-.397-1-.53-.407-.133-.957-.28-1.65-.44-1.067-.253-1.94-.507-2.62-.76a4.257 4.257 0 0 1-1.75-1.22c-.487-.56-.73-1.307-.73-2.24 0-.813.22-1.55.66-2.21.44-.66 1.103-1.183 1.99-1.57s1.97-.58 3.25-.58c.893 0 1.767.107 2.62.32.853.213 1.6.52 2.24.92l-1 2.46c-1.293-.733-2.587-1.1-3.88-1.1-.907 0-1.577.147-2.01.44-.433.293-.65.68-.65 1.16 0 .48.25.837.75 1.07.5.233 1.263.463 2.29.69 1.067.253 1.94.507 2.62.76.68.253 1.263.653 1.75 1.2.487.547.73 1.287.73 2.22 0 .8-.223 1.53-.67 2.19-.447.66-1.117 1.183-2.01 1.57-.893.387-1.98.58-3.26.58-1.107 0-2.177-.15-3.21-.45z"/><path fill="none" stroke="#b3711e" stroke-miterlimit="20" stroke-width=".75" d="M147.24 124.79c-1.033-.3-1.863-.69-2.49-1.17l1.1-2.44c.6.44 1.313.793 2.14 1.06.827.267 1.653.4 2.48.4.92 0 1.6-.137 2.04-.41.44-.273.66-.637.66-1.09 0-.333-.13-.61-.39-.83-.26-.22-.593-.397-1-.53-.407-.133-.957-.28-1.65-.44-1.067-.253-1.94-.507-2.62-.76a4.257 4.257 0 0 1-1.75-1.22c-.487-.56-.73-1.307-.73-2.24 0-.813.22-1.55.66-2.21.44-.66 1.103-1.183 1.99-1.57s1.97-.58 3.25-.58c.893 0 1.767.107 2.62.32.853.213 1.6.52 2.24.92l-1 2.46c-1.293-.733-2.587-1.1-3.88-1.1-.907 0-1.577.147-2.01.44-.433.293-.65.68-.65 1.16 0 .48.25.837.75 1.07.5.233 1.263.463 2.29.69 1.067.253 1.94.507 2.62.76.68.253 1.263.653 1.75 1.2.487.547.73 1.287.73 2.22 0 .8-.223 1.53-.67 2.19-.447.66-1.117 1.183-2.01 1.57-.893.387-1.98.58-3.26.58-1.107 0-2.177-.15-3.21-.45zm-15.81.21v-14h10.58v2.6h-7.36v3.04h6.5v2.52h-6.5v3.24h7.62v2.6zm-12.83-.69a6.94 6.94 0 0 1-2.72-2.58c-.66-1.1-.99-2.343-.99-3.73s.33-2.63.99-3.73a6.94 6.94 0 0 1 2.72-2.58c1.153-.62 2.45-.93 3.89-.93 1.213 0 2.31.213 3.29.64a6.59 6.59 0 0 1 2.47 1.84l-2.08 1.92c-.947-1.093-2.12-1.64-3.52-1.64-.867 0-1.64.19-2.32.57-.68.38-1.21.91-1.59 1.59-.38.68-.57 1.453-.57 2.32 0 .867.19 1.64.57 2.32.38.68.91 1.21 1.59 1.59.68.38 1.453.57 2.32.57 1.4 0 2.573-.553 3.52-1.66l2.08 1.92a6.483 6.483 0 0 1-2.48 1.86c-.987.427-2.087.64-3.3.64-1.427 0-2.717-.31-3.87-.93zm-10.39.69v-14h3.24v14zm-11.42 0l-6.04-14h3.5l4.26 10 4.32-10h3.22l-6.06 14zm-14.02-6.48c.973 0 1.713-.213 2.22-.64.507-.427.76-1.027.76-1.8 0-.787-.253-1.39-.76-1.81-.507-.42-1.247-.63-2.22-.63h-2.64v4.88zM76.89 125v-14h6.06c1.24 0 2.317.207 3.23.62.913.413 1.617 1 2.11 1.76.493.76.74 1.66.74 2.7 0 1.04-.25 1.937-.75 2.69-.5.753-1.21 1.33-2.13 1.73l3.14 4.5h-3.48l-2.7-3.9h-2.98v3.9zm-14.42 0v-14h10.58v2.6h-7.36v3.04h6.5v2.52h-6.5v3.24h7.62v2.6zm-12.37-.21c-1.033-.3-1.863-.69-2.49-1.17l1.1-2.44c.6.44 1.313.793 2.14 1.06.827.267 1.653.4 2.48.4.92 0 1.6-.137 2.04-.41.44-.273.66-.637.66-1.09 0-.333-.13-.61-.39-.83-.26-.22-.593-.397-1-.53-.407-.133-.957-.28-1.65-.44-1.067-.253-1.94-.507-2.62-.76a4.257 4.257 0 0 1-1.75-1.22c-.487-.56-.73-1.307-.73-2.24 0-.813.22-1.55.66-2.21.44-.66 1.103-1.183 1.99-1.57s1.97-.58 3.25-.58c.893 0 1.767.107 2.62.32.853.213 1.6.52 2.24.92l-1 2.46c-1.293-.733-2.587-1.1-3.88-1.1-.907 0-1.577.147-2.01.44-.433.293-.65.68-.65 1.16 0 .48.25.837.75 1.07.5.233 1.263.463 2.29.69 1.067.253 1.94.507 2.62.76.68.253 1.263.653 1.75 1.2.487.547.73 1.287.73 2.22 0 .8-.223 1.53-.67 2.19-.447.66-1.117 1.183-2.01 1.57-.893.387-1.98.58-3.26.58-1.107 0-2.177-.15-3.21-.45z"/></g><g><path fill="#252529" d="M151.24 103.24c1.28 0 2.367-.193 3.26-.58.893-.387 1.563-.91 2.01-1.57.447-.66.67-1.39.67-2.19 0-.933-.243-1.673-.73-2.22a4.339 4.339 0 0 0-1.75-1.2c-.68-.253-1.553-.507-2.62-.76-1.027-.227-1.79-.457-2.29-.69-.5-.233-.75-.59-.75-1.07 0-.48.217-.867.65-1.16.433-.293 1.103-.44 2.01-.44 1.293 0 2.587.367 3.88 1.1l1-2.46c-.64-.4-1.387-.707-2.24-.92a10.762 10.762 0 0 0-2.62-.32c-1.28 0-2.363.193-3.25.58-.887.387-1.55.91-1.99 1.57-.44.66-.66 1.397-.66 2.21 0 .933.243 1.68.73 2.24.487.56 1.07.967 1.75 1.22.68.253 1.553.507 2.62.76.693.16 1.243.307 1.65.44.407.133.74.31 1 .53.26.22.39.497.39.83 0 .453-.22.817-.66 1.09-.44.273-1.12.41-2.04.41a8.038 8.038 0 0 1-2.48-.4c-.827-.267-1.54-.62-2.14-1.06l-1.1 2.44c.627.48 1.457.87 2.49 1.17 1.033.3 2.103.45 3.21.45zm-13.76 0c1.28 0 2.367-.193 3.26-.58.893-.387 1.563-.91 2.01-1.57.447-.66.67-1.39.67-2.19 0-.933-.243-1.673-.73-2.22a4.339 4.339 0 0 0-1.75-1.2c-.68-.253-1.553-.507-2.62-.76-1.027-.227-1.79-.457-2.29-.69-.5-.233-.75-.59-.75-1.07 0-.48.217-.867.65-1.16.433-.293 1.103-.44 2.01-.44 1.293 0 2.587.367 3.88 1.1l1-2.46c-.64-.4-1.387-.707-2.24-.92a10.762 10.762 0 0 0-2.62-.32c-1.28 0-2.363.193-3.25.58-.887.387-1.55.91-1.99 1.57-.44.66-.66 1.397-.66 2.21 0 .933.243 1.68.73 2.24.487.56 1.07.967 1.75 1.22.68.253 1.553.507 2.62.76.693.16 1.243.307 1.65.44.407.133.74.31 1 .53.26.22.39.497.39.83 0 .453-.22.817-.66 1.09-.44.273-1.12.41-2.04.41a8.038 8.038 0 0 1-2.48-.4c-.827-.267-1.54-.62-2.14-1.06l-1.1 2.44c.627.48 1.457.87 2.49 1.17 1.033.3 2.103.45 3.21.45zm-8.18-.24v-2.6h-7.62v-3.24h6.5v-2.52h-6.5V91.6h7.36V89h-10.58v14zm-24.8 0v-8.5l6.98 8.5h2.66V89h-3.2v8.5l-6.96-8.5h-2.68v14zm-7.52 0V89h-3.24v14zm-12.4.24c1.28 0 2.367-.193 3.26-.58.893-.387 1.563-.91 2.01-1.57.447-.66.67-1.39.67-2.19 0-.933-.243-1.673-.73-2.22a4.339 4.339 0 0 0-1.75-1.2c-.68-.253-1.553-.507-2.62-.76-1.027-.227-1.79-.457-2.29-.69-.5-.233-.75-.59-.75-1.07 0-.48.217-.867.65-1.16.433-.293 1.103-.44 2.01-.44 1.293 0 2.587.367 3.88 1.1l1-2.46c-.64-.4-1.387-.707-2.24-.92a10.762 10.762 0 0 0-2.62-.32c-1.28 0-2.363.193-3.25.58-.887.387-1.55.91-1.99 1.57-.44.66-.66 1.397-.66 2.21 0 .933.243 1.68.73 2.24.487.56 1.07.967 1.75 1.22.68.253 1.553.507 2.62.76.693.16 1.243.307 1.65.44.407.133.74.31 1 .53.26.22.39.497.39.83 0 .453-.22.817-.66 1.09-.44.273-1.12.41-2.04.41a8.038 8.038 0 0 1-2.48-.4c-.827-.267-1.54-.62-2.14-1.06l-1.1 2.44c.627.48 1.457.87 2.49 1.17 1.033.3 2.103.45 3.21.45zm-15.14 0c2 0 3.557-.553 4.67-1.66 1.113-1.107 1.67-2.687 1.67-4.74V89h-3.2v7.72c0 1.293-.267 2.243-.8 2.85-.533.607-1.307.91-2.32.91-2.08 0-3.12-1.253-3.12-3.76V89H63.1v7.84c0 2.053.557 3.633 1.67 4.74 1.113 1.107 2.67 1.66 4.67 1.66zm-19.3-2.68V97.1h3.78c1.72 0 2.58.58 2.58 1.74 0 .587-.217 1.02-.65 1.3-.433.28-1.077.42-1.93.42zm0-5.82v-3.3h3.22c.8 0 1.407.137 1.82.41.413.273.62.683.62 1.23 0 .547-.207.96-.62 1.24-.413.28-1.02.42-1.82.42zm4.02 8.26c1.827 0 3.217-.33 4.17-.99.953-.66 1.43-1.603 1.43-2.83 0-.867-.227-1.597-.68-2.19-.453-.593-1.08-1.017-1.88-1.27a3.432 3.432 0 0 0 1.37-1.26c.327-.533.49-1.14.49-1.82 0-1.12-.457-2.007-1.37-2.66S55.467 89 53.76 89h-6.84v14z"/><path fill="url(#ghnof)" d="M151.24 103.24c1.28 0 2.367-.193 3.26-.58.893-.387 1.563-.91 2.01-1.57.447-.66.67-1.39.67-2.19 0-.933-.243-1.673-.73-2.22a4.339 4.339 0 0 0-1.75-1.2c-.68-.253-1.553-.507-2.62-.76-1.027-.227-1.79-.457-2.29-.69-.5-.233-.75-.59-.75-1.07 0-.48.217-.867.65-1.16.433-.293 1.103-.44 2.01-.44 1.293 0 2.587.367 3.88 1.1l1-2.46c-.64-.4-1.387-.707-2.24-.92a10.762 10.762 0 0 0-2.62-.32c-1.28 0-2.363.193-3.25.58-.887.387-1.55.91-1.99 1.57-.44.66-.66 1.397-.66 2.21 0 .933.243 1.68.73 2.24.487.56 1.07.967 1.75 1.22.68.253 1.553.507 2.62.76.693.16 1.243.307 1.65.44.407.133.74.31 1 .53.26.22.39.497.39.83 0 .453-.22.817-.66 1.09-.44.273-1.12.41-2.04.41a8.038 8.038 0 0 1-2.48-.4c-.827-.267-1.54-.62-2.14-1.06l-1.1 2.44c.627.48 1.457.87 2.49 1.17 1.033.3 2.103.45 3.21.45zm-13.76 0c1.28 0 2.367-.193 3.26-.58.893-.387 1.563-.91 2.01-1.57.447-.66.67-1.39.67-2.19 0-.933-.243-1.673-.73-2.22a4.339 4.339 0 0 0-1.75-1.2c-.68-.253-1.553-.507-2.62-.76-1.027-.227-1.79-.457-2.29-.69-.5-.233-.75-.59-.75-1.07 0-.48.217-.867.65-1.16.433-.293 1.103-.44 2.01-.44 1.293 0 2.587.367 3.88 1.1l1-2.46c-.64-.4-1.387-.707-2.24-.92a10.762 10.762 0 0 0-2.62-.32c-1.28 0-2.363.193-3.25.58-.887.387-1.55.91-1.99 1.57-.44.66-.66 1.397-.66 2.21 0 .933.243 1.68.73 2.24.487.56 1.07.967 1.75 1.22.68.253 1.553.507 2.62.76.693.16 1.243.307 1.65.44.407.133.74.31 1 .53.26.22.39.497.39.83 0 .453-.22.817-.66 1.09-.44.273-1.12.41-2.04.41a8.038 8.038 0 0 1-2.48-.4c-.827-.267-1.54-.62-2.14-1.06l-1.1 2.44c.627.48 1.457.87 2.49 1.17 1.033.3 2.103.45 3.21.45zm-8.18-.24v-2.6h-7.62v-3.24h6.5v-2.52h-6.5V91.6h7.36V89h-10.58v14zm-24.8 0v-8.5l6.98 8.5h2.66V89h-3.2v8.5l-6.96-8.5h-2.68v14zm-7.52 0V89h-3.24v14zm-12.4.24c1.28 0 2.367-.193 3.26-.58.893-.387 1.563-.91 2.01-1.57.447-.66.67-1.39.67-2.19 0-.933-.243-1.673-.73-2.22a4.339 4.339 0 0 0-1.75-1.2c-.68-.253-1.553-.507-2.62-.76-1.027-.227-1.79-.457-2.29-.69-.5-.233-.75-.59-.75-1.07 0-.48.217-.867.65-1.16.433-.293 1.103-.44 2.01-.44 1.293 0 2.587.367 3.88 1.1l1-2.46c-.64-.4-1.387-.707-2.24-.92a10.762 10.762 0 0 0-2.62-.32c-1.28 0-2.363.193-3.25.58-.887.387-1.55.91-1.99 1.57-.44.66-.66 1.397-.66 2.21 0 .933.243 1.68.73 2.24.487.56 1.07.967 1.75 1.22.68.253 1.553.507 2.62.76.693.16 1.243.307 1.65.44.407.133.74.31 1 .53.26.22.39.497.39.83 0 .453-.22.817-.66 1.09-.44.273-1.12.41-2.04.41a8.038 8.038 0 0 1-2.48-.4c-.827-.267-1.54-.62-2.14-1.06l-1.1 2.44c.627.48 1.457.87 2.49 1.17 1.033.3 2.103.45 3.21.45zm-15.14 0c2 0 3.557-.553 4.67-1.66 1.113-1.107 1.67-2.687 1.67-4.74V89h-3.2v7.72c0 1.293-.267 2.243-.8 2.85-.533.607-1.307.91-2.32.91-2.08 0-3.12-1.253-3.12-3.76V89H63.1v7.84c0 2.053.557 3.633 1.67 4.74 1.113 1.107 2.67 1.66 4.67 1.66zm-19.3-2.68V97.1h3.78c1.72 0 2.58.58 2.58 1.74 0 .587-.217 1.02-.65 1.3-.433.28-1.077.42-1.93.42zm0-5.82v-3.3h3.22c.8 0 1.407.137 1.82.41.413.273.62.683.62 1.23 0 .547-.207.96-.62 1.24-.413.28-1.02.42-1.82.42zm4.02 8.26c1.827 0 3.217-.33 4.17-.99.953-.66 1.43-1.603 1.43-2.83 0-.867-.227-1.597-.68-2.19-.453-.593-1.08-1.017-1.88-1.27a3.432 3.432 0 0 0 1.37-1.26c.327-.533.49-1.14.49-1.82 0-1.12-.457-2.007-1.37-2.66S55.467 89 53.76 89h-6.84v14z"/><path fill="none" stroke="#b3711e" stroke-miterlimit="20" stroke-width=".75" d="M151.24 103.24c1.28 0 2.367-.193 3.26-.58.893-.387 1.563-.91 2.01-1.57.447-.66.67-1.39.67-2.19 0-.933-.243-1.673-.73-2.22a4.339 4.339 0 0 0-1.75-1.2c-.68-.253-1.553-.507-2.62-.76-1.027-.227-1.79-.457-2.29-.69-.5-.233-.75-.59-.75-1.07 0-.48.217-.867.65-1.16.433-.293 1.103-.44 2.01-.44 1.293 0 2.587.367 3.88 1.1l1-2.46c-.64-.4-1.387-.707-2.24-.92a10.762 10.762 0 0 0-2.62-.32c-1.28 0-2.363.193-3.25.58-.887.387-1.55.91-1.99 1.57-.44.66-.66 1.397-.66 2.21 0 .933.243 1.68.73 2.24.487.56 1.07.967 1.75 1.22.68.253 1.553.507 2.62.76.693.16 1.243.307 1.65.44.407.133.74.31 1 .53.26.22.39.497.39.83 0 .453-.22.817-.66 1.09-.44.273-1.12.41-2.04.41a8.038 8.038 0 0 1-2.48-.4c-.827-.267-1.54-.62-2.14-1.06l-1.1 2.44c.627.48 1.457.87 2.49 1.17 1.033.3 2.103.45 3.21.45zm-13.76 0c1.28 0 2.367-.193 3.26-.58.893-.387 1.563-.91 2.01-1.57.447-.66.67-1.39.67-2.19 0-.933-.243-1.673-.73-2.22a4.339 4.339 0 0 0-1.75-1.2c-.68-.253-1.553-.507-2.62-.76-1.027-.227-1.79-.457-2.29-.69-.5-.233-.75-.59-.75-1.07 0-.48.217-.867.65-1.16.433-.293 1.103-.44 2.01-.44 1.293 0 2.587.367 3.88 1.1l1-2.46c-.64-.4-1.387-.707-2.24-.92a10.762 10.762 0 0 0-2.62-.32c-1.28 0-2.363.193-3.25.58-.887.387-1.55.91-1.99 1.57-.44.66-.66 1.397-.66 2.21 0 .933.243 1.68.73 2.24.487.56 1.07.967 1.75 1.22.68.253 1.553.507 2.62.76.693.16 1.243.307 1.65.44.407.133.74.31 1 .53.26.22.39.497.39.83 0 .453-.22.817-.66 1.09-.44.273-1.12.41-2.04.41a8.038 8.038 0 0 1-2.48-.4c-.827-.267-1.54-.62-2.14-1.06l-1.1 2.44c.627.48 1.457.87 2.49 1.17 1.033.3 2.103.45 3.21.45zm-8.18-.24v-2.6h-7.62v-3.24h6.5v-2.52h-6.5V91.6h7.36V89h-10.58v14zm-24.8 0v-8.5l6.98 8.5h2.66V89h-3.2v8.5l-6.96-8.5h-2.68v14zm-7.52 0V89h-3.24v14zm-12.4.24c1.28 0 2.367-.193 3.26-.58.893-.387 1.563-.91 2.01-1.57.447-.66.67-1.39.67-2.19 0-.933-.243-1.673-.73-2.22a4.339 4.339 0 0 0-1.75-1.2c-.68-.253-1.553-.507-2.62-.76-1.027-.227-1.79-.457-2.29-.69-.5-.233-.75-.59-.75-1.07 0-.48.217-.867.65-1.16.433-.293 1.103-.44 2.01-.44 1.293 0 2.587.367 3.88 1.1l1-2.46c-.64-.4-1.387-.707-2.24-.92a10.762 10.762 0 0 0-2.62-.32c-1.28 0-2.363.193-3.25.58-.887.387-1.55.91-1.99 1.57-.44.66-.66 1.397-.66 2.21 0 .933.243 1.68.73 2.24.487.56 1.07.967 1.75 1.22.68.253 1.553.507 2.62.76.693.16 1.243.307 1.65.44.407.133.74.31 1 .53.26.22.39.497.39.83 0 .453-.22.817-.66 1.09-.44.273-1.12.41-2.04.41a8.038 8.038 0 0 1-2.48-.4c-.827-.267-1.54-.62-2.14-1.06l-1.1 2.44c.627.48 1.457.87 2.49 1.17 1.033.3 2.103.45 3.21.45zm-15.14 0c2 0 3.557-.553 4.67-1.66 1.113-1.107 1.67-2.687 1.67-4.74V89h-3.2v7.72c0 1.293-.267 2.243-.8 2.85-.533.607-1.307.91-2.32.91-2.08 0-3.12-1.253-3.12-3.76V89H63.1v7.84c0 2.053.557 3.633 1.67 4.74 1.113 1.107 2.67 1.66 4.67 1.66zm-19.3-2.68V97.1h3.78c1.72 0 2.58.58 2.58 1.74 0 .587-.217 1.02-.65 1.3-.433.28-1.077.42-1.93.42zm0-5.82v-3.3h3.22c.8 0 1.407.137 1.82.41.413.273.62.683.62 1.23 0 .547-.207.96-.62 1.24-.413.28-1.02.42-1.82.42zm4.02 8.26c1.827 0 3.217-.33 4.17-.99.953-.66 1.43-1.603 1.43-2.83 0-.867-.227-1.597-.68-2.19-.453-.593-1.08-1.017-1.88-1.27a3.432 3.432 0 0 0 1.37-1.26c.327-.533.49-1.14.49-1.82 0-1.12-.457-2.007-1.37-2.66S55.467 89 53.76 89h-6.84v14z"/></g><g><path fill="#eec670" d="M121.044 148.478c.341-.513.512-1.307.512-2.38s-.17-1.867-.512-2.38c-.342-.513-.812-.77-1.411-.77-.59 0-1.055.257-1.397.77-.341.513-.512 1.307-.512 2.38s.17 1.867.512 2.38c.342.513.807.77 1.397.77.599 0 1.07-.257 1.41-.77zm-3.586 2.086c-.635-.401-1.132-.982-1.491-1.743-.36-.76-.539-1.668-.539-2.723s.18-1.962.539-2.723c.36-.76.856-1.342 1.491-1.743.635-.401 1.358-.602 2.17-.602.812 0 1.535.2 2.17.602.635.401 1.132.982 1.491 1.743.36.76.539 1.668.539 2.723s-.18 1.962-.539 2.723c-.36.76-.856 1.342-1.491 1.743-.635.401-1.358.602-2.17.602-.812 0-1.535-.2-2.17-.602zm-15.345.434v-1.47l3.784-3.57c.402-.383.673-.712.813-.987.14-.275.21-.548.21-.819 0-.392-.132-.693-.399-.903-.266-.21-.656-.315-1.17-.315-.43 0-.818.082-1.164.245a2.227 2.227 0 0 0-.869.735l-1.654-1.064c.383-.57.911-1.015 1.584-1.337.673-.322 1.444-.483 2.313-.483.729 0 1.367.119 1.913.357.547.238.972.574 1.276 1.008.304.434.456.945.456 1.533 0 .532-.113 1.031-.337 1.498-.224.467-.659.999-1.303 1.596l-2.257 2.128h4.219v1.848zm-8.732-2.52c.34-.513.511-1.307.511-2.38s-.17-1.867-.511-2.38c-.34-.513-.81-.77-1.407-.77-.588 0-1.052.257-1.393.77-.34.513-.511 1.307-.511 2.38s.17 1.867.511 2.38c.34.513.805.77 1.393.77.597 0 1.066-.257 1.407-.77zm-3.577 2.086c-.635-.401-1.132-.982-1.491-1.743-.36-.76-.539-1.668-.539-2.723s.18-1.962.539-2.723c.36-.76.856-1.342 1.491-1.743.635-.401 1.358-.602 2.17-.602.812 0 1.535.2 2.17.602.635.401 1.132.982 1.491 1.743.36.76.539 1.668.539 2.723s-.18 1.962-.539 2.723c-.36.76-.856 1.342-1.491 1.743-.635.401-1.358.602-2.17.602-.812 0-1.535-.2-2.17-.602zm-15.346.434v-1.47l3.78-3.57c.401-.383.672-.712.812-.987s.21-.548.21-.819c0-.392-.133-.693-.399-.903-.266-.21-.656-.315-1.169-.315-.43 0-.817.082-1.162.245a2.225 2.225 0 0 0-.868.735l-1.652-1.064c.383-.57.91-1.015 1.582-1.337.672-.322 1.442-.483 2.31-.483.728 0 1.365.119 1.911.357s.97.574 1.274 1.008c.303.434.455.945.455 1.533 0 .532-.112 1.031-.336 1.498-.224.467-.658.999-1.302 1.596l-2.254 2.128h4.214v1.848z"/></g></g></g></svg>