<svg xmlns="http://www.w3.org/2000/svg" width="204" height="168" viewBox="0 0 204 168"><defs><linearGradient id="hy69a" x1="181.76" x2="163.98" y1="27" y2="193.16" gradientUnits="userSpaceOnUse"><stop offset="0" stop-color="#ffd84f"/><stop offset=".22" stop-color="#faf7ca"/><stop offset=".65" stop-color="#bb8d31"/><stop offset=".84" stop-color="#e6cf85"/><stop offset="1" stop-color="#e9c037"/></linearGradient><linearGradient id="hy69b" x1="39.76" x2="21.98" y1="27" y2="193.16" gradientUnits="userSpaceOnUse"><stop offset="0" stop-color="#ffd84f"/><stop offset=".22" stop-color="#faf7ca"/><stop offset=".65" stop-color="#bb8d31"/><stop offset=".84" stop-color="#e6cf85"/><stop offset="1" stop-color="#e9c037"/></linearGradient><linearGradient id="hy69c" x1="116.32" x2="59.87" y1="1" y2="39.34" gradientUnits="userSpaceOnUse"><stop offset="0" stop-color="#ffd84f"/><stop offset=".22" stop-color="#faf7ca"/><stop offset=".65" stop-color="#bb8d31"/><stop offset=".84" stop-color="#e6cf85"/><stop offset="1" stop-color="#e9c037"/></linearGradient><linearGradient id="hy69d" x1="120.87" x2="49.26" y1="93.82" y2="118.76" gradientUnits="userSpaceOnUse"><stop offset="0" stop-color="#ffd84f"/><stop offset=".22" stop-color="#faf7ca"/><stop offset=".65" stop-color="#bb8d31"/><stop offset=".84" stop-color="#e6cf85"/><stop offset="1" stop-color="#e9c037"/></linearGradient><linearGradient id="hy69e" x1="121.48" x2="50.01" y1="72.03" y2="86.43" gradientUnits="userSpaceOnUse"><stop offset="0" stop-color="#ffd84f"/><stop offset=".22" stop-color="#faf7ca"/><stop offset=".65" stop-color="#bb8d31"/><stop offset=".84" stop-color="#e6cf85"/><stop offset="1" stop-color="#e9c037"/></linearGradient></defs><g><g><g><path fill="url(#hy69a)" d="M152.183 159.045c1.602 3.388 3.84 5.902 6.64 7.135 3.092 1.359 6.47.982 9.76-.784-1.633-3.922-4.02-6.84-7.113-8.199a9.725 9.725 0 0 0-4.485-.805 48.51 48.51 0 0 0 4.838-2.649c2.36 3.22 5.27 5.245 8.483 5.59 3.288.348 6.468-1.07 9.263-3.806-2.36-3.288-5.304-5.36-8.566-5.707-1.54-.163-3.034.058-4.52.621a55.668 55.668 0 0 0 4.72-4.166c2.859 2.426 6.006 3.573 9.155 3.045 3.265-.54 6.115-2.78 8.36-6.206-2.915-2.566-6.147-3.796-9.409-3.255-1.258.209-2.452.669-3.585 1.351a62.825 62.825 0 0 0 2.91-3.924c3.212 1.754 6.498 2.167 9.557.907 3.089-1.288 5.539-4.148 7.232-8.034-3.272-1.84-6.644-2.297-9.766-1.011-1.31.546-2.503 1.376-3.582 2.446a56.304 56.304 0 0 0 2.414-4.97c3.354.914 6.566.543 9.302-1.346 2.883-1.974 4.834-5.342 5.886-9.54-3.495-1.067-6.882-.748-9.733 1.224a12.575 12.575 0 0 0-2.831 2.77c.586-1.83 1.138-3.707 1.577-5.63.028-.072.028-.143.058-.216 3.437.506 6.675-.282 9.266-2.555 2.652-2.34 4.318-5.952 4.986-10.264-3.556-.598-6.878.17-9.561 2.51-1.572 1.396-2.828 3.245-3.702 5.425.439-2.48.729-4.96.906-7.432 3.378-.358 6.344-1.887 8.482-4.673 2.245-2.927 3.286-6.86 3.26-11.25-3.583.255-6.73 1.793-8.97 4.72-1.172 1.523-2.014 3.317-2.54 5.309 0-1.73-.09-3.448-.21-5.158 3.273-1.446 5.83-3.913 7.294-7.354 1.515-3.558 1.662-7.693.698-11.911-3.41 1.425-6.123 3.94-7.634 7.498a16.461 16.461 0 0 0-1.17 4.487 69.437 69.437 0 0 0-1.22-5.979c3.204-1.714 5.65-4.404 6.934-7.986 1.31-3.677 1.223-7.815 0-11.94-3.324 1.707-5.854 4.442-7.164 8.116-.879 2.457-1.147 5.118-.822 7.845-.64-2.042-1.367-4.017-1.981-6.055 2.712-2.465 4.602-5.655 5.221-9.396.664-3.929-.119-7.956-2.012-11.68-2.979 2.51-4.987 5.83-5.655 9.76a17.192 17.192 0 0 0 .2 6.57 60.433 60.433 0 0 0-2.735-5.037c2.24-3.353 3.416-7.185 3.174-11.123-.23-4.01-1.892-7.616-4.544-10.572-2.27 3.384-3.502 7.251-3.234 11.254a16.003 16.003 0 0 0 1.161 5.254 57.749 57.749 0 0 0-3.407-4.212c1.724-3.794 2.304-7.806 1.509-11.646-.805-3.877-2.964-7.075-5.995-9.411-1.783 3.833-2.394 7.9-1.571 11.789a15.344 15.344 0 0 0 2.152 5.252c-.61-.557-1.22-1.1-1.864-1.628-.817-3.89-2.452-7.121-4.952-9.239-2.711-2.278-6.063-2.97-9.618-2.29.762 4.297 2.447 7.868 5.159 10.148 2.683 2.259 6 2.958 9.5 2.306a55.617 55.617 0 0 1 4.57 4.409 9.741 9.741 0 0 0-1.511-.857c-3.059-1.416-6.442-1.1-9.761.604 1.57 3.953 3.931 6.915 6.995 8.33 2.276 1.044 4.745 1.298 7.193.567.99-.3 1.925-.767 2.829-1.33a65.43 65.43 0 0 1 3.41 5.67c-2.536-2.43-5.77-3.397-9.27-3.063.436 4.352 1.93 8.077 4.49 10.608 2.535 2.525 5.795 3.533 9.378 3.197 1.195 3.546 1.931 6.422 2.597 10.197-.666-3.41-1.632-5.295-3.96-7.607-2.336-2.312-5.855-3.536-9.418-3.196.442 4.352 1.925 8.076 4.464 10.606 2.562 2.53 5.85 3.536 9.436 3.197-.03-.157.823 8.826.789 11.356-.292-2.715-1.074-5.198-2.444-7.287-2.046-3.139-5.104-4.985-8.656-5.593-.295 4.373.468 8.397 2.534 11.536 2.01 3.077 4.956 4.91 8.422 5.554-.209 4.329-.874 8.651-1.833 12.822.522-2.945.436-5.865-.406-8.584-1.172-3.748-3.616-6.63-6.855-8.53-1.367 4.05-1.627 8.177-.463 11.924 1.108 3.511 3.145 6.72 6.207 8.244.205.108.43.205.643.295a58.555 58.555 0 0 1-1.991 6.061c-.346.723-.637 1.49-.896 2.293a84.905 84.905 0 0 1-1.372 3.05c.935-2.374 1.372-4.894 1.224-7.463-.266-4-1.92-7.606-4.572-10.55-2.278 3.404-3.471 7.275-3.235 11.273.23 3.516 1.54 6.73 3.67 9.454.615.802.582.775.904 1.172-1.807 3.212-3.818 6.19-6.038 8.911a16.201 16.201 0 0 0 2.513-6.622c.584-3.95-.293-7.946-2.276-11.602-2.91 2.61-4.835 6-5.423 9.952-.552 3.937.33 7.923 2.304 11.572a58.092 58.092 0 0 1-6.52 5.88 14.763 14.763 0 0 0 2.3-3.918c1.43-3.614 1.485-7.752.375-11.93-3.378 1.553-6.003 4.168-7.433 7.78-1.364 3.506-1.451 7.508-.436 11.561a46.456 46.456 0 0 1-7.25 3.454 11.905 11.905 0 0 0 3.29-3.223c2.15-3.046 3.058-7.031 2.887-11.416-3.586.45-6.68 2.156-8.804 5.203-2.012 2.857-2.944 6.542-2.888 10.607-.394.057-4.33.127-4.719.2.026.66-.2 1.05 0 1.365 1.72-.336 7.351-.447 9.1-.426z"/><path fill="none" stroke="#b3711e" stroke-miterlimit="20" stroke-width=".75" d="M152.183 159.045c1.602 3.388 3.84 5.902 6.64 7.135 3.092 1.359 6.47.982 9.76-.784-1.633-3.922-4.02-6.84-7.113-8.199a9.725 9.725 0 0 0-4.485-.805 48.51 48.51 0 0 0 4.838-2.649c2.36 3.22 5.27 5.245 8.483 5.59 3.288.348 6.468-1.07 9.263-3.806-2.36-3.288-5.304-5.36-8.566-5.707-1.54-.163-3.034.058-4.52.621a55.668 55.668 0 0 0 4.72-4.166c2.859 2.426 6.006 3.573 9.155 3.045 3.265-.54 6.115-2.78 8.36-6.206-2.915-2.566-6.147-3.796-9.409-3.255-1.258.209-2.452.669-3.585 1.351a62.825 62.825 0 0 0 2.91-3.924c3.212 1.754 6.498 2.167 9.557.907 3.089-1.288 5.539-4.148 7.232-8.034-3.272-1.84-6.644-2.297-9.766-1.011-1.31.546-2.503 1.376-3.582 2.446a56.304 56.304 0 0 0 2.414-4.97c3.354.914 6.566.543 9.302-1.346 2.883-1.974 4.834-5.342 5.886-9.54-3.495-1.067-6.882-.748-9.733 1.224a12.575 12.575 0 0 0-2.831 2.77c.586-1.83 1.138-3.707 1.577-5.63.028-.072.028-.143.058-.216 3.437.506 6.675-.282 9.266-2.555 2.652-2.34 4.318-5.952 4.986-10.264-3.556-.598-6.878.17-9.561 2.51-1.572 1.396-2.828 3.245-3.702 5.425.439-2.48.729-4.96.906-7.432 3.378-.358 6.344-1.887 8.482-4.673 2.245-2.927 3.286-6.86 3.26-11.25-3.583.255-6.73 1.793-8.97 4.72-1.172 1.523-2.014 3.317-2.54 5.309 0-1.73-.09-3.448-.21-5.158 3.273-1.446 5.83-3.913 7.294-7.354 1.515-3.558 1.662-7.693.698-11.911-3.41 1.425-6.123 3.94-7.634 7.498a16.461 16.461 0 0 0-1.17 4.487 69.437 69.437 0 0 0-1.22-5.979c3.204-1.714 5.65-4.404 6.934-7.986 1.31-3.677 1.223-7.815 0-11.94-3.324 1.707-5.854 4.442-7.164 8.116-.879 2.457-1.147 5.118-.822 7.845-.64-2.042-1.367-4.017-1.981-6.055 2.712-2.465 4.602-5.655 5.221-9.396.664-3.929-.119-7.956-2.012-11.68-2.979 2.51-4.987 5.83-5.655 9.76a17.192 17.192 0 0 0 .2 6.57 60.433 60.433 0 0 0-2.735-5.037c2.24-3.353 3.416-7.185 3.174-11.123-.23-4.01-1.892-7.616-4.544-10.572-2.27 3.384-3.502 7.251-3.234 11.254a16.003 16.003 0 0 0 1.161 5.254 57.749 57.749 0 0 0-3.407-4.212c1.724-3.794 2.304-7.806 1.509-11.646-.805-3.877-2.964-7.075-5.995-9.411-1.783 3.833-2.394 7.9-1.571 11.789a15.344 15.344 0 0 0 2.152 5.252c-.61-.557-1.22-1.1-1.864-1.628-.817-3.89-2.452-7.121-4.952-9.239-2.711-2.278-6.063-2.97-9.618-2.29.762 4.297 2.447 7.868 5.159 10.148 2.683 2.259 6 2.958 9.5 2.306a55.617 55.617 0 0 1 4.57 4.409 9.741 9.741 0 0 0-1.511-.857c-3.059-1.416-6.442-1.1-9.761.604 1.57 3.953 3.931 6.915 6.995 8.33 2.276 1.044 4.745 1.298 7.193.567.99-.3 1.925-.767 2.829-1.33a65.43 65.43 0 0 1 3.41 5.67c-2.536-2.43-5.77-3.397-9.27-3.063.436 4.352 1.93 8.077 4.49 10.608 2.535 2.525 5.795 3.533 9.378 3.197 1.195 3.546 1.931 6.422 2.597 10.197-.666-3.41-1.632-5.295-3.96-7.607-2.336-2.312-5.855-3.536-9.418-3.196.442 4.352 1.925 8.076 4.464 10.606 2.562 2.53 5.85 3.536 9.436 3.197-.03-.157.823 8.826.789 11.356-.292-2.715-1.074-5.198-2.444-7.287-2.046-3.139-5.104-4.985-8.656-5.593-.295 4.373.468 8.397 2.534 11.536 2.01 3.077 4.956 4.91 8.422 5.554-.209 4.329-.874 8.651-1.833 12.822.522-2.945.436-5.865-.406-8.584-1.172-3.748-3.616-6.63-6.855-8.53-1.367 4.05-1.627 8.177-.463 11.924 1.108 3.511 3.145 6.72 6.207 8.244.205.108.43.205.643.295a58.555 58.555 0 0 1-1.991 6.061c-.346.723-.637 1.49-.896 2.293a84.905 84.905 0 0 1-1.372 3.05c.935-2.374 1.372-4.894 1.224-7.463-.266-4-1.92-7.606-4.572-10.55-2.278 3.404-3.471 7.275-3.235 11.273.23 3.516 1.54 6.73 3.67 9.454.615.802.582.775.904 1.172-1.807 3.212-3.818 6.19-6.038 8.911a16.201 16.201 0 0 0 2.513-6.622c.584-3.95-.293-7.946-2.276-11.602-2.91 2.61-4.835 6-5.423 9.952-.552 3.937.33 7.923 2.304 11.572a58.092 58.092 0 0 1-6.52 5.88 14.763 14.763 0 0 0 2.3-3.918c1.43-3.614 1.485-7.752.375-11.93-3.378 1.553-6.003 4.168-7.433 7.78-1.364 3.506-1.451 7.508-.436 11.561a46.456 46.456 0 0 1-7.25 3.454 11.905 11.905 0 0 0 3.29-3.223c2.15-3.046 3.058-7.031 2.887-11.416-3.586.45-6.68 2.156-8.804 5.203-2.012 2.857-2.944 6.542-2.888 10.607-.394.057-4.33.127-4.719.2.026.66-.2 1.05 0 1.365 1.72-.336 7.351-.447 9.1-.426z"/></g><g><path fill="url(#hy69b)" d="M51.817 159.045c-1.602 3.388-3.84 5.902-6.64 7.135-3.092 1.359-6.47.982-9.76-.784 1.633-3.922 4.02-6.84 7.113-8.199a9.725 9.725 0 0 1 4.485-.805 48.51 48.51 0 0 1-4.838-2.649c-2.36 3.22-5.27 5.245-8.483 5.59-3.288.348-6.468-1.07-9.263-3.806 2.36-3.288 5.304-5.36 8.566-5.707 1.54-.163 3.034.058 4.52.621a55.668 55.668 0 0 1-4.72-4.166c-2.859 2.426-6.006 3.573-9.155 3.045-3.265-.54-6.115-2.78-8.36-6.206 2.915-2.566 6.147-3.796 9.409-3.255 1.258.209 2.452.669 3.585 1.351a62.825 62.825 0 0 1-2.91-3.924c-3.212 1.754-6.498 2.167-9.557.907-3.089-1.288-5.539-4.148-7.232-8.034 3.272-1.84 6.644-2.297 9.766-1.011 1.31.546 2.503 1.376 3.582 2.446a56.304 56.304 0 0 1-2.414-4.97c-3.354.914-6.566.543-9.302-1.346-2.883-1.974-4.834-5.342-5.886-9.54 3.495-1.067 6.882-.748 9.733 1.224a12.575 12.575 0 0 1 2.831 2.77c-.586-1.83-1.138-3.707-1.577-5.63-.028-.072-.028-.143-.058-.216-3.437.506-6.675-.282-9.266-2.555-2.652-2.34-4.318-5.952-4.986-10.264 3.556-.598 6.878.17 9.561 2.51 1.572 1.396 2.828 3.245 3.702 5.425a72.318 72.318 0 0 1-.906-7.432c-3.378-.358-6.344-1.887-8.482-4.673-2.245-2.927-3.286-6.86-3.26-11.25 3.583.255 6.73 1.793 8.97 4.72 1.172 1.523 2.014 3.317 2.54 5.309 0-1.73.09-3.448.21-5.158-3.273-1.446-5.83-3.913-7.294-7.354-1.515-3.558-1.662-7.693-.698-11.911 3.41 1.425 6.123 3.94 7.634 7.498a16.461 16.461 0 0 1 1.17 4.487 69.437 69.437 0 0 1 1.22-5.979c-3.204-1.714-5.65-4.404-6.934-7.986-1.31-3.677-1.223-7.815 0-11.94 3.324 1.707 5.854 4.442 7.164 8.116.879 2.457 1.147 5.118.822 7.845.64-2.042 1.367-4.017 1.981-6.055-2.712-2.465-4.602-5.655-5.22-9.396-.665-3.929.118-7.956 2.01-11.68 2.98 2.51 4.988 5.83 5.656 9.76.35 2.182.296 4.395-.2 6.57a60.433 60.433 0 0 1 2.735-5.037c-2.24-3.353-3.416-7.185-3.174-11.123.23-4.01 1.892-7.616 4.544-10.572 2.27 3.384 3.502 7.251 3.234 11.254a16.003 16.003 0 0 1-1.161 5.254 57.749 57.749 0 0 1 3.407-4.212c-1.724-3.794-2.304-7.806-1.509-11.646.805-3.877 2.964-7.075 5.995-9.411 1.783 3.833 2.394 7.9 1.571 11.789a15.344 15.344 0 0 1-2.152 5.252c.61-.557 1.22-1.1 1.864-1.628.817-3.89 2.452-7.121 4.952-9.239 2.711-2.278 6.063-2.97 9.618-2.29-.762 4.297-2.447 7.868-5.159 10.148-2.683 2.259-6 2.958-9.5 2.306a55.617 55.617 0 0 0-4.57 4.409 9.741 9.741 0 0 1 1.511-.857c3.059-1.416 6.442-1.1 9.761.604-1.57 3.953-3.931 6.915-6.995 8.33-2.276 1.044-4.745 1.298-7.193.567-.99-.3-1.925-.767-2.829-1.33a65.43 65.43 0 0 0-3.41 5.67c2.536-2.43 5.77-3.397 9.27-3.063-.436 4.352-1.93 8.077-4.49 10.608-2.535 2.525-5.795 3.533-9.378 3.197-1.195 3.546-1.931 6.422-2.597 10.197.666-3.41 1.632-5.295 3.96-7.607 2.336-2.312 5.855-3.536 9.418-3.196-.442 4.352-1.925 8.076-4.464 10.606-2.562 2.53-5.85 3.536-9.436 3.197.03-.157-.823 8.826-.789 11.356.292-2.715 1.074-5.198 2.444-7.287 2.046-3.139 5.104-4.985 8.656-5.593.295 4.373-.468 8.397-2.534 11.536-2.01 3.077-4.956 4.91-8.422 5.554.209 4.329.874 8.651 1.833 12.822-.522-2.945-.436-5.865.406-8.584 1.172-3.748 3.616-6.63 6.855-8.53 1.367 4.05 1.627 8.177.463 11.924-1.108 3.511-3.145 6.72-6.207 8.244-.205.108-.43.205-.643.295a58.555 58.555 0 0 0 1.991 6.061c.346.723.637 1.49.896 2.293a84.905 84.905 0 0 0 1.372 3.05c-.935-2.374-1.372-4.894-1.224-7.463.266-4 1.92-7.606 4.572-10.55 2.278 3.404 3.471 7.275 3.235 11.273-.23 3.516-1.54 6.73-3.67 9.454-.615.802-.582.775-.904 1.172 1.807 3.212 3.818 6.19 6.038 8.911a16.201 16.201 0 0 1-2.513-6.622c-.584-3.95.293-7.946 2.276-11.602 2.91 2.61 4.835 6 5.423 9.952.552 3.937-.33 7.923-2.304 11.572a58.092 58.092 0 0 0 6.52 5.88 14.763 14.763 0 0 1-2.3-3.918c-1.43-3.614-1.485-7.752-.375-11.93 3.378 1.553 6.003 4.168 7.433 7.78 1.364 3.506 1.451 7.508.436 11.561a46.456 46.456 0 0 0 7.25 3.454 11.905 11.905 0 0 1-3.29-3.223c-2.15-3.046-3.058-7.031-2.887-11.416 3.586.45 6.68 2.156 8.804 5.203 2.012 2.857 2.944 6.542 2.888 10.607.394.057 4.33.127 4.719.2-.026.66.2 1.05 0 1.365-1.72-.336-7.351-.447-9.1-.426z"/><path fill="none" stroke="#b3711e" stroke-miterlimit="20" stroke-width=".75" d="M51.817 159.045c-1.602 3.388-3.84 5.902-6.64 7.135-3.092 1.359-6.47.982-9.76-.784 1.633-3.922 4.02-6.84 7.113-8.199a9.725 9.725 0 0 1 4.485-.805 48.51 48.51 0 0 1-4.838-2.649c-2.36 3.22-5.27 5.245-8.483 5.59-3.288.348-6.468-1.07-9.263-3.806 2.36-3.288 5.304-5.36 8.566-5.707 1.54-.163 3.034.058 4.52.621a55.668 55.668 0 0 1-4.72-4.166c-2.859 2.426-6.006 3.573-9.155 3.045-3.265-.54-6.115-2.78-8.36-6.206 2.915-2.566 6.147-3.796 9.409-3.255 1.258.209 2.452.669 3.585 1.351a62.825 62.825 0 0 1-2.91-3.924c-3.212 1.754-6.498 2.167-9.557.907-3.089-1.288-5.539-4.148-7.232-8.034 3.272-1.84 6.644-2.297 9.766-1.011 1.31.546 2.503 1.376 3.582 2.446a56.304 56.304 0 0 1-2.414-4.97c-3.354.914-6.566.543-9.302-1.346-2.883-1.974-4.834-5.342-5.886-9.54 3.495-1.067 6.882-.748 9.733 1.224a12.575 12.575 0 0 1 2.831 2.77c-.586-1.83-1.138-3.707-1.577-5.63-.028-.072-.028-.143-.058-.216-3.437.506-6.675-.282-9.266-2.555-2.652-2.34-4.318-5.952-4.986-10.264 3.556-.598 6.878.17 9.561 2.51 1.572 1.396 2.828 3.245 3.702 5.425a72.318 72.318 0 0 1-.906-7.432c-3.378-.358-6.344-1.887-8.482-4.673-2.245-2.927-3.286-6.86-3.26-11.25 3.583.255 6.73 1.793 8.97 4.72 1.172 1.523 2.014 3.317 2.54 5.309 0-1.73.09-3.448.21-5.158-3.273-1.446-5.83-3.913-7.294-7.354-1.515-3.558-1.662-7.693-.698-11.911 3.41 1.425 6.123 3.94 7.634 7.498a16.461 16.461 0 0 1 1.17 4.487 69.437 69.437 0 0 1 1.22-5.979c-3.204-1.714-5.65-4.404-6.934-7.986-1.31-3.677-1.223-7.815 0-11.94 3.324 1.707 5.854 4.442 7.164 8.116.879 2.457 1.147 5.118.822 7.845.64-2.042 1.367-4.017 1.981-6.055-2.712-2.465-4.602-5.655-5.22-9.396-.665-3.929.118-7.956 2.01-11.68 2.98 2.51 4.988 5.83 5.656 9.76.35 2.182.296 4.395-.2 6.57a60.433 60.433 0 0 1 2.735-5.037c-2.24-3.353-3.416-7.185-3.174-11.123.23-4.01 1.892-7.616 4.544-10.572 2.27 3.384 3.502 7.251 3.234 11.254a16.003 16.003 0 0 1-1.161 5.254 57.749 57.749 0 0 1 3.407-4.212c-1.724-3.794-2.304-7.806-1.509-11.646.805-3.877 2.964-7.075 5.995-9.411 1.783 3.833 2.394 7.9 1.571 11.789a15.344 15.344 0 0 1-2.152 5.252c.61-.557 1.22-1.1 1.864-1.628.817-3.89 2.452-7.121 4.952-9.239 2.711-2.278 6.063-2.97 9.618-2.29-.762 4.297-2.447 7.868-5.159 10.148-2.683 2.259-6 2.958-9.5 2.306a55.617 55.617 0 0 0-4.57 4.409 9.741 9.741 0 0 1 1.511-.857c3.059-1.416 6.442-1.1 9.761.604-1.57 3.953-3.931 6.915-6.995 8.33-2.276 1.044-4.745 1.298-7.193.567-.99-.3-1.925-.767-2.829-1.33a65.43 65.43 0 0 0-3.41 5.67c2.536-2.43 5.77-3.397 9.27-3.063-.436 4.352-1.93 8.077-4.49 10.608-2.535 2.525-5.795 3.533-9.378 3.197-1.195 3.546-1.931 6.422-2.597 10.197.666-3.41 1.632-5.295 3.96-7.607 2.336-2.312 5.855-3.536 9.418-3.196-.442 4.352-1.925 8.076-4.464 10.606-2.562 2.53-5.85 3.536-9.436 3.197.03-.157-.823 8.826-.789 11.356.292-2.715 1.074-5.198 2.444-7.287 2.046-3.139 5.104-4.985 8.656-5.593.295 4.373-.468 8.397-2.534 11.536-2.01 3.077-4.956 4.91-8.422 5.554.209 4.329.874 8.651 1.833 12.822-.522-2.945-.436-5.865.406-8.584 1.172-3.748 3.616-6.63 6.855-8.53 1.367 4.05 1.627 8.177.463 11.924-1.108 3.511-3.145 6.72-6.207 8.244-.205.108-.43.205-.643.295a58.555 58.555 0 0 0 1.991 6.061c.346.723.637 1.49.896 2.293a84.905 84.905 0 0 0 1.372 3.05c-.935-2.374-1.372-4.894-1.224-7.463.266-4 1.92-7.606 4.572-10.55 2.278 3.404 3.471 7.275 3.235 11.273-.23 3.516-1.54 6.73-3.67 9.454-.615.802-.582.775-.904 1.172 1.807 3.212 3.818 6.19 6.038 8.911a16.201 16.201 0 0 1-2.513-6.622c-.584-3.95.293-7.946 2.276-11.602 2.91 2.61 4.835 6 5.423 9.952.552 3.937-.33 7.923-2.304 11.572a58.092 58.092 0 0 0 6.52 5.88 14.763 14.763 0 0 1-2.3-3.918c-1.43-3.614-1.485-7.752-.375-11.93 3.378 1.553 6.003 4.168 7.433 7.78 1.364 3.506 1.451 7.508.436 11.561a46.456 46.456 0 0 0 7.25 3.454 11.905 11.905 0 0 1-3.29-3.223c-2.15-3.046-3.058-7.031-2.887-11.416 3.586.45 6.68 2.156 8.804 5.203 2.012 2.857 2.944 6.542 2.888 10.607.394.057 4.33.127 4.719.2-.026.66.2 1.05 0 1.365-1.72-.336-7.351-.447-9.1-.426z"/></g><g><path fill="url(#hy69c)" d="M67.12 28a.716.716 0 0 1-.419-.136l-4.7-3.388-4.7 3.388a.716.716 0 0 1-.84 0 .705.705 0 0 1-.26-.791l1.796-5.483-4.702-3.388a.705.705 0 0 1-.26-.792.714.714 0 0 1 .68-.49h5.81l1.796-5.482c.191-.584 1.166-.584 1.358 0l1.795 5.482h5.811c.31 0 .584.198.68.49a.703.703 0 0 1-.26.792l-4.7 3.388 1.795 5.483a.703.703 0 0 1-.26.791.716.716 0 0 1-.42.136zm80 0a.716.716 0 0 1-.419-.136l-4.7-3.388-4.7 3.388a.716.716 0 0 1-.84 0 .705.705 0 0 1-.26-.791l1.796-5.483-4.702-3.388a.705.705 0 0 1-.26-.792.714.714 0 0 1 .68-.49h5.81l1.796-5.482c.191-.584 1.166-.584 1.358 0l1.795 5.482h5.811c.31 0 .584.198.68.49a.703.703 0 0 1-.26.792l-4.7 3.388 1.795 5.483a.703.703 0 0 1-.26.791.716.716 0 0 1-.42.136zm-20-6a.716.716 0 0 1-.419-.136l-4.7-3.388-4.7 3.388a.716.716 0 0 1-.84 0 .705.705 0 0 1-.26-.791l1.796-5.483-4.702-3.388a.705.705 0 0 1-.26-.792.714.714 0 0 1 .68-.49h5.81l1.796-5.482c.191-.584 1.166-.584 1.358 0l1.795 5.482h5.811c.31 0 .584.198.68.49a.703.703 0 0 1-.26.792l-4.7 3.388 1.795 5.483a.703.703 0 0 1-.26.791.716.716 0 0 1-.42.136zm-40 0a.716.716 0 0 1-.419-.136l-4.7-3.388-4.7 3.388a.716.716 0 0 1-.84 0 .705.705 0 0 1-.26-.791l1.796-5.483-4.702-3.388a.705.705 0 0 1-.26-.792.714.714 0 0 1 .68-.49h5.81l1.796-5.482c.191-.584 1.166-.584 1.358 0l1.795 5.482h5.811c.31 0 .584.198.68.49a.703.703 0 0 1-.26.792l-4.7 3.388 1.795 5.483a.703.703 0 0 1-.26.791.716.716 0 0 1-.42.136zm20-4a.716.716 0 0 1-.419-.136l-4.7-3.388-4.7 3.388a.716.716 0 0 1-.84 0 .705.705 0 0 1-.26-.791l1.796-5.483-4.702-3.388a.705.705 0 0 1-.26-.792.714.714 0 0 1 .68-.49h5.81l1.796-5.482c.191-.584 1.166-.584 1.358 0l1.795 5.482h5.811c.31 0 .584.198.68.49a.703.703 0 0 1-.26.792l-4.7 3.388 1.795 5.483a.703.703 0 0 1-.26.791.716.716 0 0 1-.42.136z"/><path fill="none" stroke="#b3711e" stroke-miterlimit="20" stroke-width=".75" d="M67.12 28a.716.716 0 0 1-.419-.136l-4.7-3.388-4.7 3.388a.716.716 0 0 1-.84 0 .705.705 0 0 1-.26-.791l1.796-5.483-4.702-3.388a.705.705 0 0 1-.26-.792.714.714 0 0 1 .68-.49h5.81l1.796-5.482c.191-.584 1.166-.584 1.358 0l1.795 5.482h5.811c.31 0 .584.198.68.49a.703.703 0 0 1-.26.792l-4.7 3.388 1.795 5.483a.703.703 0 0 1-.26.791.716.716 0 0 1-.42.136zm80 0a.716.716 0 0 1-.419-.136l-4.7-3.388-4.7 3.388a.716.716 0 0 1-.84 0 .705.705 0 0 1-.26-.791l1.796-5.483-4.702-3.388a.705.705 0 0 1-.26-.792.714.714 0 0 1 .68-.49h5.81l1.796-5.482c.191-.584 1.166-.584 1.358 0l1.795 5.482h5.811c.31 0 .584.198.68.49a.703.703 0 0 1-.26.792l-4.7 3.388 1.795 5.483a.703.703 0 0 1-.26.791.716.716 0 0 1-.42.136zm-20-6a.716.716 0 0 1-.419-.136l-4.7-3.388-4.7 3.388a.716.716 0 0 1-.84 0 .705.705 0 0 1-.26-.791l1.796-5.483-4.702-3.388a.705.705 0 0 1-.26-.792.714.714 0 0 1 .68-.49h5.81l1.796-5.482c.191-.584 1.166-.584 1.358 0l1.795 5.482h5.811c.31 0 .584.198.68.49a.703.703 0 0 1-.26.792l-4.7 3.388 1.795 5.483a.703.703 0 0 1-.26.791.716.716 0 0 1-.42.136zm-40 0a.716.716 0 0 1-.419-.136l-4.7-3.388-4.7 3.388a.716.716 0 0 1-.84 0 .705.705 0 0 1-.26-.791l1.796-5.483-4.702-3.388a.705.705 0 0 1-.26-.792.714.714 0 0 1 .68-.49h5.81l1.796-5.482c.191-.584 1.166-.584 1.358 0l1.795 5.482h5.811c.31 0 .584.198.68.49a.703.703 0 0 1-.26.792l-4.7 3.388 1.795 5.483a.703.703 0 0 1-.26.791.716.716 0 0 1-.42.136zm20-4a.716.716 0 0 1-.419-.136l-4.7-3.388-4.7 3.388a.716.716 0 0 1-.84 0 .705.705 0 0 1-.26-.791l1.796-5.483-4.702-3.388a.705.705 0 0 1-.26-.792.714.714 0 0 1 .68-.49h5.81l1.796-5.482c.191-.584 1.166-.584 1.358 0l1.795 5.482h5.811c.31 0 .584.198.68.49a.703.703 0 0 1-.26.792l-4.7 3.388 1.795 5.483a.703.703 0 0 1-.26.791.716.716 0 0 1-.42.136z"/></g><g><path fill="#252529" d="M152.978 110.92c-1.32-.312-2.405-.732-3.254-1.26l1.825-4.128c.8.464 1.697.836 2.69 1.116.993.28 1.945.42 2.858.42.784 0 1.345-.076 1.681-.228.336-.152.504-.38.504-.684 0-.352-.22-.616-.66-.792-.44-.176-1.165-.368-2.174-.576-1.296-.272-2.377-.564-3.242-.876a5.525 5.525 0 0 1-2.257-1.536c-.64-.712-.96-1.676-.96-2.892a4.98 4.98 0 0 1 .888-2.88c.592-.864 1.477-1.544 2.654-2.04 1.176-.496 2.605-.744 4.286-.744 1.153 0 2.286.124 3.399.372 1.112.248 2.093.612 2.942 1.092l-1.706 4.104c-1.649-.832-3.21-1.248-4.683-1.248-1.457 0-2.185.352-2.185 1.056 0 .336.216.588.648.756.433.168 1.145.348 2.138.54 1.28.24 2.361.516 3.242.828a5.64 5.64 0 0 1 2.293 1.524c.649.704.973 1.664.973 2.88a4.925 4.925 0 0 1-.889 2.868c-.592.856-1.477 1.536-2.653 2.04-1.177.504-2.606.756-4.287.756-1.393 0-2.75-.156-4.07-.468zm-14.982-4.33c1.216 0 2.188-.348 2.916-1.044.728-.696 1.092-1.677 1.092-2.942 0-1.265-.364-2.246-1.092-2.942-.728-.696-1.7-1.045-2.916-1.045h-2.376v7.974zm-8.04 4.414v-16.8h8.28c1.872 0 3.524.34 4.956 1.02 1.432.68 2.544 1.652 3.336 2.916.792 1.264 1.188 2.752 1.188 4.464 0 1.712-.396 3.2-1.188 4.464-.792 1.264-1.904 2.236-3.336 2.916-1.432.68-3.084 1.02-4.956 1.02zm-11.152-8.491c.768 0 1.344-.172 1.728-.517.384-.345.576-.83.576-1.455 0-.625-.192-1.11-.576-1.455-.384-.344-.96-.517-1.728-.517h-2.064v3.944zm-7.728 8.491v-16.8h8.088c1.552 0 2.904.256 4.056.768 1.152.512 2.04 1.248 2.664 2.208.624.96.936 2.08.936 3.36 0 1.2-.272 2.248-.816 3.144-.544.896-1.328 1.608-2.352 2.136l3.528 5.184h-6.048l-2.856-4.224h-1.536v4.224zM98.988 99.77l-1.632 4.241h3.264zm-10.08 11.235l7.34-16.8h5.566l7.34 16.8h-5.853l-1.128-2.928h-6.38l-1.128 2.928zm-22.912 0l-5.376-16.8h5.832l2.928 9.552 3.096-9.552h5.208l2.928 9.672 3.096-9.672h5.376l-5.376 16.8h-6.072l-2.712-8.976-2.856 8.976zM50.62 99.77l-1.632 4.241h3.264zm-10.08 11.235l7.344-16.8h5.568l7.344 16.8H54.94l-1.128-2.928h-6.384l-1.128 2.928z"/><path fill="url(#hy69d)" d="M152.978 110.92c-1.32-.312-2.405-.732-3.254-1.26l1.825-4.128c.8.464 1.697.836 2.69 1.116.993.28 1.945.42 2.858.42.784 0 1.345-.076 1.681-.228.336-.152.504-.38.504-.684 0-.352-.22-.616-.66-.792-.44-.176-1.165-.368-2.174-.576-1.296-.272-2.377-.564-3.242-.876a5.525 5.525 0 0 1-2.257-1.536c-.64-.712-.96-1.676-.96-2.892a4.98 4.98 0 0 1 .888-2.88c.592-.864 1.477-1.544 2.654-2.04 1.176-.496 2.605-.744 4.286-.744 1.153 0 2.286.124 3.399.372 1.112.248 2.093.612 2.942 1.092l-1.706 4.104c-1.649-.832-3.21-1.248-4.683-1.248-1.457 0-2.185.352-2.185 1.056 0 .336.216.588.648.756.433.168 1.145.348 2.138.54 1.28.24 2.361.516 3.242.828a5.64 5.64 0 0 1 2.293 1.524c.649.704.973 1.664.973 2.88a4.925 4.925 0 0 1-.889 2.868c-.592.856-1.477 1.536-2.653 2.04-1.177.504-2.606.756-4.287.756-1.393 0-2.75-.156-4.07-.468zm-14.982-4.33c1.216 0 2.188-.348 2.916-1.044.728-.696 1.092-1.677 1.092-2.942 0-1.265-.364-2.246-1.092-2.942-.728-.696-1.7-1.045-2.916-1.045h-2.376v7.974zm-8.04 4.414v-16.8h8.28c1.872 0 3.524.34 4.956 1.02 1.432.68 2.544 1.652 3.336 2.916.792 1.264 1.188 2.752 1.188 4.464 0 1.712-.396 3.2-1.188 4.464-.792 1.264-1.904 2.236-3.336 2.916-1.432.68-3.084 1.02-4.956 1.02zm-11.152-8.491c.768 0 1.344-.172 1.728-.517.384-.345.576-.83.576-1.455 0-.625-.192-1.11-.576-1.455-.384-.344-.96-.517-1.728-.517h-2.064v3.944zm-7.728 8.491v-16.8h8.088c1.552 0 2.904.256 4.056.768 1.152.512 2.04 1.248 2.664 2.208.624.96.936 2.08.936 3.36 0 1.2-.272 2.248-.816 3.144-.544.896-1.328 1.608-2.352 2.136l3.528 5.184h-6.048l-2.856-4.224h-1.536v4.224zM98.988 99.77l-1.632 4.241h3.264zm-10.08 11.235l7.34-16.8h5.566l7.34 16.8h-5.853l-1.128-2.928h-6.38l-1.128 2.928zm-22.912 0l-5.376-16.8h5.832l2.928 9.552 3.096-9.552h5.208l2.928 9.672 3.096-9.672h5.376l-5.376 16.8h-6.072l-2.712-8.976-2.856 8.976zM50.62 99.77l-1.632 4.241h3.264zm-10.08 11.235l7.344-16.8h5.568l7.344 16.8H54.94l-1.128-2.928h-6.384l-1.128 2.928z"/><path fill="none" stroke="#b3711e" stroke-miterlimit="20" stroke-width=".75" d="M152.978 110.92c-1.32-.312-2.405-.732-3.254-1.26l1.825-4.128c.8.464 1.697.836 2.69 1.116.993.28 1.945.42 2.858.42.784 0 1.345-.076 1.681-.228.336-.152.504-.38.504-.684 0-.352-.22-.616-.66-.792-.44-.176-1.165-.368-2.174-.576-1.296-.272-2.377-.564-3.242-.876a5.525 5.525 0 0 1-2.257-1.536c-.64-.712-.96-1.676-.96-2.892a4.98 4.98 0 0 1 .888-2.88c.592-.864 1.477-1.544 2.654-2.04 1.176-.496 2.605-.744 4.286-.744 1.153 0 2.286.124 3.399.372 1.112.248 2.093.612 2.942 1.092l-1.706 4.104c-1.649-.832-3.21-1.248-4.683-1.248-1.457 0-2.185.352-2.185 1.056 0 .336.216.588.648.756.433.168 1.145.348 2.138.54 1.28.24 2.361.516 3.242.828a5.64 5.64 0 0 1 2.293 1.524c.649.704.973 1.664.973 2.88a4.925 4.925 0 0 1-.889 2.868c-.592.856-1.477 1.536-2.653 2.04-1.177.504-2.606.756-4.287.756-1.393 0-2.75-.156-4.07-.468zm-14.982-4.33c1.216 0 2.188-.348 2.916-1.044.728-.696 1.092-1.677 1.092-2.942 0-1.265-.364-2.246-1.092-2.942-.728-.696-1.7-1.045-2.916-1.045h-2.376v7.974zm-8.04 4.414v-16.8h8.28c1.872 0 3.524.34 4.956 1.02 1.432.68 2.544 1.652 3.336 2.916.792 1.264 1.188 2.752 1.188 4.464 0 1.712-.396 3.2-1.188 4.464-.792 1.264-1.904 2.236-3.336 2.916-1.432.68-3.084 1.02-4.956 1.02zm-11.152-8.491c.768 0 1.344-.172 1.728-.517.384-.345.576-.83.576-1.455 0-.625-.192-1.11-.576-1.455-.384-.344-.96-.517-1.728-.517h-2.064v3.944zm-7.728 8.491v-16.8h8.088c1.552 0 2.904.256 4.056.768 1.152.512 2.04 1.248 2.664 2.208.624.96.936 2.08.936 3.36 0 1.2-.272 2.248-.816 3.144-.544.896-1.328 1.608-2.352 2.136l3.528 5.184h-6.048l-2.856-4.224h-1.536v4.224zM98.988 99.77l-1.632 4.241h3.264zm-10.08 11.235l7.34-16.8h5.566l7.34 16.8h-5.853l-1.128-2.928h-6.38l-1.128 2.928zm-22.912 0l-5.376-16.8h5.832l2.928 9.552 3.096-9.552h5.208l2.928 9.672 3.096-9.672h5.376l-5.376 16.8h-6.072l-2.712-8.976-2.856 8.976zM50.62 99.77l-1.632 4.241h3.264zm-10.08 11.235l7.344-16.8h5.568l7.344 16.8H54.94l-1.128-2.928h-6.384l-1.128 2.928z"/></g><g><path fill="#252529" d="M154.35 81.998v-9.8h1.878l3.671 6.09 3.615-6.09h1.864l.028 9.8h-2.13l-.014-5.88-2.886 4.844h-1.023l-2.872-4.718v5.754zm-6.532-7.574l-1.558 3.762h3.117zm-5.478 7.574l4.371-9.8h2.242l4.386 9.8h-2.382l-.869-2.1h-4.553l-.87 2.1zm-6.99-.483a4.861 4.861 0 0 1-1.906-1.806c-.462-.77-.693-1.64-.693-2.611 0-.97.23-1.841.693-2.611a4.861 4.861 0 0 1 1.906-1.806c.808-.434 1.717-.651 2.726-.651.85 0 1.618.15 2.305.448a4.617 4.617 0 0 1 1.73 1.288l-1.457 1.344c-.663-.765-1.485-1.148-2.466-1.148-.607 0-1.15.133-1.626.399a2.838 2.838 0 0 0-1.114 1.113c-.266.476-.4 1.017-.4 1.624 0 .607.134 1.148.4 1.624.267.476.638.847 1.114 1.113.477.266 1.019.399 1.626.399.981 0 1.803-.387 2.466-1.162l1.458 1.344a4.542 4.542 0 0 1-1.738 1.302c-.691.299-1.462.448-2.312.448-1 0-1.904-.217-2.712-.651zm-7.787-1.225c.599 0 1.05-.098 1.354-.294.304-.196.456-.5.456-.91 0-.812-.603-1.218-1.81-1.218h-2.652v2.422zm-.392-4.074c.561 0 .987-.098 1.277-.294.29-.196.435-.485.435-.868s-.145-.67-.435-.861c-.29-.191-.716-.287-1.277-.287h-2.26v2.31zm-4.514 5.782v-9.8h4.793c1.196 0 2.114.229 2.754.686.64.457.96 1.078.96 1.862 0 .476-.114.9-.343 1.274a2.404 2.404 0 0 1-.96.882c.56.177 1 .474 1.317.889.318.415.477.926.477 1.533 0 .859-.334 1.519-1.002 1.981-.668.462-1.642.693-2.922.693zm-9.393 0v-9.8h7.415v1.82h-5.158v2.128h4.556v1.764h-4.556v2.268h5.34v1.82zm-13.913 0l-3.221-9.8h2.353l2.213 6.888 2.311-6.888h2.102l2.24 6.944 2.284-6.944h2.171l-3.207 9.8h-2.438l-2.157-6.636-2.227 6.636zm-12.947 0v-7.952h-3.14v-1.848h8.55v1.848h-3.14v7.952zm-10.489 0v-9.8h2.271v7.952h4.92v1.848zm-9.945-.994c-.78-.775-1.17-1.88-1.17-3.318v-5.488h2.27v5.404c0 1.755.73 2.632 2.187 2.632.71 0 1.252-.212 1.625-.637.374-.425.561-1.09.561-1.995v-5.404h2.242v5.488c0 1.437-.39 2.543-1.17 3.318-.78.775-1.87 1.162-3.272 1.162-1.402 0-2.493-.387-3.273-1.162zm-8.305-.868c.981 0 1.764-.273 2.349-.819.584-.546.876-1.286.876-2.219 0-.933-.292-1.673-.876-2.219-.585-.546-1.368-.819-2.35-.819H55.59v6.076zm-4.344 1.862v-9.8h4.456c1.065 0 2.006.203 2.824.609.817.406 1.452.978 1.906 1.715.453.737.68 1.596.68 2.576s-.227 1.839-.68 2.576c-.453.737-1.089 1.309-1.906 1.715-.818.406-1.759.609-2.824.609zm-6.532-7.574l-1.56 3.762h3.118zm-5.479 7.574l4.372-9.8h2.241l4.386 9.8h-2.382l-.869-2.1h-4.553l-.87 2.1z"/><path fill="url(#hy69e)" d="M154.35 81.998v-9.8h1.878l3.671 6.09 3.615-6.09h1.864l.028 9.8h-2.13l-.014-5.88-2.886 4.844h-1.023l-2.872-4.718v5.754zm-6.532-7.574l-1.558 3.762h3.117zm-5.478 7.574l4.371-9.8h2.242l4.386 9.8h-2.382l-.869-2.1h-4.553l-.87 2.1zm-6.99-.483a4.861 4.861 0 0 1-1.906-1.806c-.462-.77-.693-1.64-.693-2.611 0-.97.23-1.841.693-2.611a4.861 4.861 0 0 1 1.906-1.806c.808-.434 1.717-.651 2.726-.651.85 0 1.618.15 2.305.448a4.617 4.617 0 0 1 1.73 1.288l-1.457 1.344c-.663-.765-1.485-1.148-2.466-1.148-.607 0-1.15.133-1.626.399a2.838 2.838 0 0 0-1.114 1.113c-.266.476-.4 1.017-.4 1.624 0 .607.134 1.148.4 1.624.267.476.638.847 1.114 1.113.477.266 1.019.399 1.626.399.981 0 1.803-.387 2.466-1.162l1.458 1.344a4.542 4.542 0 0 1-1.738 1.302c-.691.299-1.462.448-2.312.448-1 0-1.904-.217-2.712-.651zm-7.787-1.225c.599 0 1.05-.098 1.354-.294.304-.196.456-.5.456-.91 0-.812-.603-1.218-1.81-1.218h-2.652v2.422zm-.392-4.074c.561 0 .987-.098 1.277-.294.29-.196.435-.485.435-.868s-.145-.67-.435-.861c-.29-.191-.716-.287-1.277-.287h-2.26v2.31zm-4.514 5.782v-9.8h4.793c1.196 0 2.114.229 2.754.686.64.457.96 1.078.96 1.862 0 .476-.114.9-.343 1.274a2.404 2.404 0 0 1-.96.882c.56.177 1 .474 1.317.889.318.415.477.926.477 1.533 0 .859-.334 1.519-1.002 1.981-.668.462-1.642.693-2.922.693zm-9.393 0v-9.8h7.415v1.82h-5.158v2.128h4.556v1.764h-4.556v2.268h5.34v1.82zm-13.913 0l-3.221-9.8h2.353l2.213 6.888 2.311-6.888h2.102l2.24 6.944 2.284-6.944h2.171l-3.207 9.8h-2.438l-2.157-6.636-2.227 6.636zm-12.947 0v-7.952h-3.14v-1.848h8.55v1.848h-3.14v7.952zm-10.489 0v-9.8h2.271v7.952h4.92v1.848zm-9.945-.994c-.78-.775-1.17-1.88-1.17-3.318v-5.488h2.27v5.404c0 1.755.73 2.632 2.187 2.632.71 0 1.252-.212 1.625-.637.374-.425.561-1.09.561-1.995v-5.404h2.242v5.488c0 1.437-.39 2.543-1.17 3.318-.78.775-1.87 1.162-3.272 1.162-1.402 0-2.493-.387-3.273-1.162zm-8.305-.868c.981 0 1.764-.273 2.349-.819.584-.546.876-1.286.876-2.219 0-.933-.292-1.673-.876-2.219-.585-.546-1.368-.819-2.35-.819H55.59v6.076zm-4.344 1.862v-9.8h4.456c1.065 0 2.006.203 2.824.609.817.406 1.452.978 1.906 1.715.453.737.68 1.596.68 2.576s-.227 1.839-.68 2.576c-.453.737-1.089 1.309-1.906 1.715-.818.406-1.759.609-2.824.609zm-6.532-7.574l-1.56 3.762h3.118zm-5.479 7.574l4.372-9.8h2.241l4.386 9.8h-2.382l-.869-2.1h-4.553l-.87 2.1z"/><path fill="none" stroke="#b3711e" stroke-miterlimit="20" stroke-width=".75" d="M154.35 81.998v-9.8h1.878l3.671 6.09 3.615-6.09h1.864l.028 9.8h-2.13l-.014-5.88-2.886 4.844h-1.023l-2.872-4.718v5.754zm-6.532-7.574l-1.558 3.762h3.117zm-5.478 7.574l4.371-9.8h2.242l4.386 9.8h-2.382l-.869-2.1h-4.553l-.87 2.1zm-6.99-.483a4.861 4.861 0 0 1-1.906-1.806c-.462-.77-.693-1.64-.693-2.611 0-.97.23-1.841.693-2.611a4.861 4.861 0 0 1 1.906-1.806c.808-.434 1.717-.651 2.726-.651.85 0 1.618.15 2.305.448a4.617 4.617 0 0 1 1.73 1.288l-1.457 1.344c-.663-.765-1.485-1.148-2.466-1.148-.607 0-1.15.133-1.626.399a2.838 2.838 0 0 0-1.114 1.113c-.266.476-.4 1.017-.4 1.624 0 .607.134 1.148.4 1.624.267.476.638.847 1.114 1.113.477.266 1.019.399 1.626.399.981 0 1.803-.387 2.466-1.162l1.458 1.344a4.542 4.542 0 0 1-1.738 1.302c-.691.299-1.462.448-2.312.448-1 0-1.904-.217-2.712-.651zm-7.787-1.225c.599 0 1.05-.098 1.354-.294.304-.196.456-.5.456-.91 0-.812-.603-1.218-1.81-1.218h-2.652v2.422zm-.392-4.074c.561 0 .987-.098 1.277-.294.29-.196.435-.485.435-.868s-.145-.67-.435-.861c-.29-.191-.716-.287-1.277-.287h-2.26v2.31zm-4.514 5.782v-9.8h4.793c1.196 0 2.114.229 2.754.686.64.457.96 1.078.96 1.862 0 .476-.114.9-.343 1.274a2.404 2.404 0 0 1-.96.882c.56.177 1 .474 1.317.889.318.415.477.926.477 1.533 0 .859-.334 1.519-1.002 1.981-.668.462-1.642.693-2.922.693zm-9.393 0v-9.8h7.415v1.82h-5.158v2.128h4.556v1.764h-4.556v2.268h5.34v1.82zm-13.913 0l-3.221-9.8h2.353l2.213 6.888 2.311-6.888h2.102l2.24 6.944 2.284-6.944h2.171l-3.207 9.8h-2.438l-2.157-6.636-2.227 6.636zm-12.947 0v-7.952h-3.14v-1.848h8.55v1.848h-3.14v7.952zm-10.489 0v-9.8h2.271v7.952h4.92v1.848zm-9.945-.994c-.78-.775-1.17-1.88-1.17-3.318v-5.488h2.27v5.404c0 1.755.73 2.632 2.187 2.632.71 0 1.252-.212 1.625-.637.374-.425.561-1.09.561-1.995v-5.404h2.242v5.488c0 1.437-.39 2.543-1.17 3.318-.78.775-1.87 1.162-3.272 1.162-1.402 0-2.493-.387-3.273-1.162zm-8.305-.868c.981 0 1.764-.273 2.349-.819.584-.546.876-1.286.876-2.219 0-.933-.292-1.673-.876-2.219-.585-.546-1.368-.819-2.35-.819H55.59v6.076zm-4.344 1.862v-9.8h4.456c1.065 0 2.006.203 2.824.609.817.406 1.452.978 1.906 1.715.453.737.68 1.596.68 2.576s-.227 1.839-.68 2.576c-.453.737-1.089 1.309-1.906 1.715-.818.406-1.759.609-2.824.609zm-6.532-7.574l-1.56 3.762h3.118zm-5.479 7.574l4.372-9.8h2.241l4.386 9.8h-2.382l-.869-2.1h-4.553l-.87 2.1z"/></g><g><path fill="#eec670" d="M121.044 144.478c.341-.513.512-1.307.512-2.38s-.17-1.867-.512-2.38c-.342-.513-.812-.77-1.411-.77-.59 0-1.055.257-1.397.77-.341.513-.512 1.307-.512 2.38s.17 1.867.512 2.38c.342.513.807.77 1.397.77.599 0 1.07-.257 1.41-.77zm-3.586 2.086c-.635-.401-1.132-.982-1.491-1.743-.36-.76-.539-1.668-.539-2.723s.18-1.962.539-2.723c.36-.76.856-1.342 1.491-1.743.635-.401 1.358-.602 2.17-.602.812 0 1.535.2 2.17.602.635.401 1.132.982 1.491 1.743.36.76.539 1.668.539 2.723s-.18 1.962-.539 2.723c-.36.76-.856 1.342-1.491 1.743-.635.401-1.358.602-2.17.602-.812 0-1.535-.2-2.17-.602zm-15.345.434v-1.47l3.784-3.57c.402-.383.673-.712.813-.987.14-.275.21-.548.21-.819 0-.392-.132-.693-.399-.903-.266-.21-.656-.315-1.17-.315-.43 0-.818.082-1.164.245a2.227 2.227 0 0 0-.869.735l-1.654-1.064c.383-.57.911-1.015 1.584-1.337.673-.322 1.444-.483 2.313-.483.729 0 1.367.119 1.913.357.547.238.972.574 1.276 1.008.304.434.456.945.456 1.533 0 .532-.113 1.031-.337 1.498-.224.467-.659.999-1.303 1.596l-2.257 2.128h4.219v1.848zm-8.732-2.52c.34-.513.511-1.307.511-2.38s-.17-1.867-.511-2.38c-.34-.513-.81-.77-1.407-.77-.588 0-1.052.257-1.393.77-.34.513-.511 1.307-.511 2.38s.17 1.867.511 2.38c.34.513.805.77 1.393.77.597 0 1.066-.257 1.407-.77zm-3.577 2.086c-.635-.401-1.132-.982-1.491-1.743-.36-.76-.539-1.668-.539-2.723s.18-1.962.539-2.723c.36-.76.856-1.342 1.491-1.743.635-.401 1.358-.602 2.17-.602.812 0 1.535.2 2.17.602.635.401 1.132.982 1.491 1.743.36.76.539 1.668.539 2.723s-.18 1.962-.539 2.723c-.36.76-.856 1.342-1.491 1.743-.635.401-1.358.602-2.17.602-.812 0-1.535-.2-2.17-.602zm-15.346.434v-1.47l3.78-3.57c.401-.383.672-.712.812-.987s.21-.548.21-.819c0-.392-.133-.693-.399-.903-.266-.21-.656-.315-1.169-.315-.43 0-.817.082-1.162.245a2.225 2.225 0 0 0-.868.735l-1.652-1.064c.383-.57.91-1.015 1.582-1.337.672-.322 1.442-.483 2.31-.483.728 0 1.365.119 1.911.357s.97.574 1.274 1.008c.303.434.455.945.455 1.533 0 .532-.112 1.031-.336 1.498-.224.467-.658.999-1.302 1.596l-2.254 2.128h4.214v1.848z"/></g></g></g></svg>