<svg xmlns="http://www.w3.org/2000/svg" width="78" height="80" viewBox="0 0 78 80"><g><g><path fill="#19a9ff" d="M51.997 67.026v-8.648a4.335 4.335 0 0 1 4.335-4.326H65c2.39 0 4.335 1.94 4.335 4.326v8.648a4.335 4.335 0 0 1-4.335 4.326h-8.667a4.34 4.34 0 0 1-4.335-4.326zm4.335 0h8.67L65 58.378h-8.667zm-26.002 0v-8.648a4.335 4.335 0 0 1 4.335-4.326h8.666c2.39 0 4.335 1.94 4.335 4.326v8.648a4.335 4.335 0 0 1-4.335 4.326h-8.666a4.34 4.34 0 0 1-4.335-4.326zm4.335-8.648v8.648h8.67l-.004-8.648zM8.666 67.026v-8.648a4.335 4.335 0 0 1 4.335-4.326h8.667c2.39 0 4.335 1.94 4.335 4.326v8.648a4.335 4.335 0 0 1-4.335 4.326H13a4.335 4.335 0 0 1-4.335-4.326zm4.335 0h8.67l-.003-8.648H13zm38.996-21.622v-8.649a4.335 4.335 0 0 1 4.335-4.326H65c2.39 0 4.335 1.94 4.335 4.326v8.649a4.335 4.335 0 0 1-4.335 4.326h-8.667a4.34 4.34 0 0 1-4.335-4.326zm4.335 0h8.67L65 36.755h-8.667zm-26.002 0v-8.649a4.335 4.335 0 0 1 4.335-4.326h8.666c2.39 0 4.335 1.94 4.335 4.326v8.649a4.335 4.335 0 0 1-4.335 4.326h-8.666a4.34 4.34 0 0 1-4.335-4.326zm4.335-8.649v8.649h8.67l-.004-8.649zM78 17.296V69.19C78 75.15 73.141 80 67.166 80H10.834C4.859 80 0 75.151 0 69.189V17.296c0-5.962 4.859-10.81 10.834-10.81h6.498V0h4.336v6.485h34.664V0h4.336v6.485h6.498C73.141 6.485 78 11.338 78 17.296zm-4.331 10.811H4.335V69.19c0 3.577 2.915 6.485 6.499 6.485H67.17c3.584 0 6.499-2.908 6.499-6.485zm0-10.81c0-3.578-2.915-6.486-6.499-6.486h-6.498v4.326h-4.336v-4.326H21.668v4.326h-4.34v-4.326H10.83c-3.584 0-6.499 2.908-6.499 6.485v6.49H73.67z"/></g></g></svg>