<svg xmlns="http://www.w3.org/2000/svg" width="80" height="66" viewBox="0 0 80 66"><g><g><path fill="#19a9ff" d="M31.562 54.118a2.138 2.138 0 0 1-2.136 2.139H12.123a2.138 2.138 0 0 1-2.136-2.14c0-1.18.956-2.138 2.136-2.138h17.303c1.18 0 2.136.957 2.136 2.139zm46.87-52.51A5.426 5.426 0 0 1 80 5.464v33.979a5.408 5.408 0 0 1-5.404 5.347h-4.572v15.797A5.419 5.419 0 0 1 64.62 66H5.405A5.419 5.419 0 0 1 0 60.588V26.663a5.408 5.408 0 0 1 5.405-5.4h4.57V5.464a5.426 5.426 0 0 1 1.587-3.877A5.411 5.411 0 0 1 15.434 0h59.16a5.412 5.412 0 0 1 3.838 1.607zm-2.705 3.857a1.145 1.145 0 0 0-1.132-1.187H15.434a1.131 1.131 0 0 0-1.186 1.187V21.21H64.62a5.408 5.408 0 0 1 5.404 5.4v13.904h4.572c.621 0 1.126-.5 1.132-1.123zM64.619 61.722c.625 0 1.132-.508 1.132-1.134V37.134H4.272v23.454c.006.624.51 1.128 1.133 1.134zM5.404 25.487c-.62 0-1.126.5-1.132 1.123v6.246h61.48V26.61a1.124 1.124 0 0 0-1.133-1.123z"/></g></g></svg>