<svg xmlns="http://www.w3.org/2000/svg" width="80" height="56" viewBox="0 0 80 56"><g><g><path fill="#19a9ff" d="M27.475 12.542C27.475 5.626 33.093 0 40 0s12.525 5.626 12.525 12.542c0 6.916-5.62 12.542-12.525 12.542-6.907 0-12.525-5.627-12.525-12.542zm4.189 0c0 4.602 3.74 8.346 8.336 8.346s8.335-3.744 8.335-8.346c0-4.603-3.74-8.347-8.335-8.347-4.596 0-8.336 3.744-8.336 8.347zm22.763 6.833c0-5.498 4.466-9.97 9.957-9.97 5.49 0 9.957 4.472 9.957 9.97s-4.466 9.97-9.957 9.97c-5.49 0-9.957-4.472-9.957-9.97zm4.19 0c0 3.184 2.587 5.775 5.767 5.775s5.767-2.59 5.767-5.775c0-3.185-2.587-5.775-5.767-5.775s-5.767 2.591-5.767 5.775zM80 46.018v4.642h-4.19v-4.642c0-4.284-3.48-7.769-7.758-7.769h-7.335c-.143 0-.285.004-.426.013a2.06 2.06 0 0 1-1.543-.562 2.107 2.107 0 0 1-.657-1.527c0-1.117.885-2.04 2.015-2.103.202-.01.406-.017.611-.017h7.335C74.64 34.053 80 39.421 80 46.018zM22.997 56V41.714c0-2.907.952-5.663 2.754-7.971 2.484-3.181 6.204-5.006 10.206-5.006h8.088c2.52 0 4.97.734 7.085 2.124a12.956 12.956 0 0 1 5.875 10.853V56h-4.19V41.714c0-4.842-3.935-8.781-8.77-8.781h-8.089c-4.836 0-8.77 3.94-8.77 8.781V56zM4.19 50.66H0v-4.642c0-6.597 5.36-11.965 11.948-11.964h7.335c.373 0 .742.019 1.106.054 1.046.1 1.863 1.018 1.863 2.088 0 .586-.237 1.128-.666 1.524-.441.406-1.044.61-1.65.557a7.54 7.54 0 0 0-.653-.028h-7.335c-4.278 0-7.758 3.485-7.758 7.769zM5.66 19.375c0-5.498 4.467-9.97 9.957-9.97 5.49 0 9.956 4.472 9.956 9.97s-4.465 9.97-9.956 9.97c-5.49 0-9.957-4.472-9.957-9.97zm4.19 0c0 3.184 2.587 5.775 5.767 5.775s5.767-2.59 5.767-5.775c0-3.185-2.587-5.775-5.767-5.775s-5.767 2.591-5.767 5.775z"/></g></g></svg>