<svg xmlns="http://www.w3.org/2000/svg" width="16" height="14" viewBox="0 0 16 14"><g><g opacity=".75"><path fill="#fff" d="M12.208 12.198c-.487-.37-.632-.844-.433-1.422.144-.433.217-.794.217-1.083 0-.29-.194-.52-.583-.69-.388-.172-1.024-.294-1.909-.366v1.462c0 .578-.266.98-.799 1.205-.533.226-1.007.131-1.422-.284l-3.9-3.9A1.254 1.254 0 0 1 3 6.199c0-.361.126-.668.38-.92l3.9-3.9C7.693.98 8.167.89 8.7 1.106c.533.217.799.614.799 1.192v1.544c1.318.054 2.41.216 3.277.487.957.307 1.706.759 2.248 1.354.65.723.975 1.616.975 2.682 0 .812-.203 1.557-.61 2.234A4.962 4.962 0 0 1 14 12.09v.41c0 .417-.146.77-.438 1.063A1.447 1.447 0 0 1 12.5 14h-11c-.417 0-.77-.146-1.063-.437A1.447 1.447 0 0 1 0 12.5v-11C0 1.083.146.73.438.438A1.447 1.447 0 0 1 1.5 0h4.125C5.875 0 6 .125 6 .375V.5c0 .188-.083.313-.25.375-.417.167-.813.354-1.188.563a.336.336 0 0 1-.187.062H1.687c-.125 0-.187.063-.187.188v10.625c0 .125.063.187.188.187h10.624c.102 0 .163-.042.182-.125a1.707 1.707 0 0 1-.286-.177zM14.7 8.366c0-.47-.086-.89-.257-1.26a2.115 2.115 0 0 0-.772-.893 6.196 6.196 0 0 0-1.083-.57 5.724 5.724 0 0 0-1.382-.338 21.168 21.168 0 0 0-1.462-.149 25.21 25.21 0 0 0-1.544-.04V2.299l-3.9 3.9 3.9 3.9V7.282c.47.018.89.036 1.26.055.37.018.74.058 1.11.121.37.064.695.14.975.23s.537.204.772.34c.234.135.424.302.568.5.145.199.253.424.325.677.073.253.09.546.055.88-.032.29-.097.605-.197.943.127-.05.25-.112.37-.184a.402.402 0 0 1 .125-.058c.758-.647 1.137-1.454 1.137-2.42z"/></g></g></svg>