<svg xmlns="http://www.w3.org/2000/svg" width="87" height="16" viewBox="0 0 87 16"><g><g><g opacity=".32"><path fill="#c5d0de" d="M31.275 10.31l-1.455 2.095v.686A2.91 2.91 0 0 0 32.73 16h3.635v-1.455H32.73l-.108-.004a1.455 1.455 0 0 1-1.346-1.45zm23.362 5.247a6.494 6.494 0 0 1-1.733-1.012h-3.448V16h3.637c.567 0 1.097-.162 1.544-.443zM53.201 1.459a1.455 1.455 0 0 1 1.346 1.45v.57c.461-.188.948-.324 1.455-.403V2.91A2.91 2.91 0 0 0 53.092 0H32.73a2.91 2.91 0 0 0-2.909 2.91v1.677l1.635-2.381a1.454 1.454 0 0 1 1.274-.751h20.364z"/></g><g><path fill="#ffb027" d="M38.986 16v-1.452a85.04 85.04 0 0 0 3.196-2.648h.002s.962-.766 1.457-1.224c.266-.246 1.11-.972 1.556-1.59.03-.04.057-.08.083-.12a2.91 2.91 0 1 0-3.319 1.058 61.645 61.645 0 0 1-1.226 1.032 4.364 4.364 0 1 1 6.05-1.766 1.314 1.314 0 0 1-.09.165 4.37 4.37 0 0 1-.325.482c-1.085 1.474-2.984 2.97-5.06 4.61h5.604V16z"/></g><g><path fill="#fff" d="M27.583 14.542V10.44l-3.83-5.6h1.413l3.014 4.51 3.015-4.51h1.412l-3.815 5.6v4.102zm-8.295-4.844c0-2.269-1.396-3.942-3.563-3.942-2.182 0-3.564 1.673-3.564 3.942 0 2.255 1.382 3.942 3.564 3.942 2.167 0 3.563-1.687 3.563-3.942zm-8.378 0c0-2.865 1.935-5.018 4.815-5.018 2.865 0 4.814 2.153 4.814 5.018 0 2.866-1.949 5.018-4.814 5.018-2.88 0-4.815-2.152-4.815-5.018zM.51 13.596l.625-.916c.422.51.99.96 1.833.96 1.193 0 1.95-.83 1.95-2.036V4.84h1.207v6.778c0 2.11-1.353 3.098-3.084 3.098-1.033 0-1.862-.334-2.531-1.12z"/></g><g><path fill="#fff" d="M77.37 14.542V4.84h1.732l3.01 7.302 3.026-7.302h1.731v9.702h-1.207V6.556l-3.302 7.986h-.495l-3.287-7.986v7.986zM68.538 6.09l-2.06 5.222h4.106zm-4.65 8.45l3.898-9.701h1.499l3.912 9.702h-1.381l-.859-2.153h-4.829l-.858 2.153zM51.8 9.699c0-2.982 2.196-5.018 4.99-5.018 1.715 0 2.908.83 3.68 1.92l-1.02.567a3.273 3.273 0 0 0-2.66-1.41c-2.125 0-3.74 1.628-3.74 3.941 0 2.298 1.615 3.942 3.74 3.942 1.105 0 2.108-.582 2.66-1.41l1.034.566c-.815 1.106-1.979 1.92-3.695 1.92-2.793 0-4.989-2.036-4.989-5.018z"/></g></g></g></svg>