<svg xmlns="http://www.w3.org/2000/svg" width="64" height="80" viewBox="0 0 64 80"><g><g><path fill="#19a9ff" d="M29.929 48a2.444 2.444 0 0 1-1.719-.703l-9.723-9.6a2.376 2.376 0 0 1 0-3.392 2.45 2.45 0 0 1 3.437 0l7.885 7.784 15.304-17.268c.887-1 2.42-1.1 3.43-.226a2.38 2.38 0 0 1 .23 3.386L31.76 47.18a2.43 2.43 0 0 1-1.748.819c-.029.002-.056.002-.082.002zM33.478.327l8.977 2.495c10.852 3.024 15.09 3.99 18.978 4.074l.567.006c1.105 0 2 .906 2 2.025V40l-.007.61c-.372 16.11-15.354 35.93-31.585 39.348a1.996 1.996 0 0 1-.908-.02C17.125 76.216 0 54.498 0 39.998V8.927l.013-.236A2.01 2.01 0 0 1 2 6.901c3.669 0 7.488-.804 17.43-3.53l7.795-2.156 4.269-1.15c.33-.088.684-.086 1.023.003zm-2.581 4.084l-10.47 2.882C12.314 9.521 8.656 10.371 5.1 10.762l-1.1.11v29.127l.01.547c.423 12.684 15.338 31.607 27.913 35.31l.255.006.594-.151C46.632 71.972 60 53.739 60 39.999V10.874l-.785-.072c-3.72-.366-7.377-1.192-15.466-3.423l-7.531-2.103-4.094-1.124h-.256z"/></g></g></svg>