<svg xmlns="http://www.w3.org/2000/svg" width="48" height="40" viewBox="0 0 48 40"><g><g><path fill="#e4eaf0" d="M34.462 39.549c-.206-.3-.206-.552 0-.752C39.487 33.784 42 27.87 42 21.053c0-2.807-.513-4.863-1.538-6.166-.924 1.504-2.821 2.256-5.693 2.256-2.461 0-4.436-.777-5.923-2.331-1.487-1.554-2.23-3.584-2.23-6.09 0-2.707.897-4.837 2.692-6.391C31.103.777 33.538 0 36.615 0 40.205 0 43 1.353 45 4.06s3 6.567 3 11.58c0 4.51-1.026 8.696-3.077 12.555-2.051 3.86-5.128 7.745-9.23 11.655-.103.1-.257.15-.462.15-.308 0-.564-.15-.77-.451zm-26.616 0c-.205-.3-.205-.552 0-.752 5.026-5.013 7.539-10.927 7.539-17.744 0-2.807-.513-4.863-1.539-6.166-.923 1.504-2.82 2.256-5.692 2.256-2.462 0-4.436-.777-5.923-2.331C.744 13.258 0 11.228 0 8.722 0 6.015.897 3.885 2.692 2.33 4.487.777 6.923 0 10 0c3.59 0 6.385 1.353 8.385 4.06s3 6.567 3 11.58c0 4.51-1.026 8.696-3.077 12.555-2.052 3.86-5.129 7.745-9.231 11.655-.103.1-.256.15-.462.15-.307 0-.564-.15-.769-.451z"/></g></g></svg>