<svg xmlns="http://www.w3.org/2000/svg" width="76" height="80" viewBox="0 0 76 80"><g><g><path fill="#19a9ff" d="M49.5 26.855a2.005 2.005 0 0 1-2-1.597l-1.42-6.755-6.28-2.649a2.02 2.02 0 0 1-1.233-1.734c-.051-.769.334-1.5.993-1.886l6-3.458L46 1.88A2.02 2.02 0 0 1 47.25.145a1.983 1.983 0 0 1 2.09.38l5.1 4.652 6.64-1.618a1.987 1.987 0 0 1 2.011.67 2.04 2.04 0 0 1 .289 2.12l-2.78 6.29 3.58 5.885c.416.67.408 1.525-.023 2.186a1.991 1.991 0 0 1-1.977.887l-6.8-.707-4.44 5.257a1.992 1.992 0 0 1-1.44.708zM45.08 13.67l3.54 1.476c.61.25 1.058.787 1.2 1.436l.8 3.802 2.5-2.952a1.99 1.99 0 0 1 1.72-.708l3.82.404-2-3.296a2.042 2.042 0 0 1-.12-1.88L58 8.411l-3.74.91a1.984 1.984 0 0 1-1.8-.465L49.68 6.27l-.3 3.862a2.024 2.024 0 0 1-1 1.598zM18 80H2c-1.105 0-2-.905-2-2.022V53.71c0-1.117.895-2.023 2-2.023h16c1.105 0 2 .906 2 2.023v24.267A2.011 2.011 0 0 1 18 80zM4 75.955h12V55.733H4zM74 80H58c-1.105 0-2-.905-2-2.022V29.444c0-1.117.895-2.023 2-2.023h16c1.105 0 2 .906 2 2.023v48.534A2.011 2.011 0 0 1 74 80zm-14-4.044h12v-44.49H60zM46 80H30c-1.105 0-2-.905-2-2.022v-36.4c0-1.118.895-2.023 2-2.023h16c1.105 0 2 .905 2 2.022v36.4A2.011 2.011 0 0 1 46 80zm-14-4.044h12V43.599H32z"/></g></g></svg>