<svg xmlns="http://www.w3.org/2000/svg" width="80" height="74" viewBox="0 0 80 74"><g><g><path fill="#19a9ff" d="M74.826 4.938l.257.166c.635.44.89.87.89 1.377v2.494H65.525l.002-2.494.012-.187c.066-.488.403-.912 1.135-1.356.964-.584 2.471-.953 4.076-.953 1.606 0 3.113.369 4.076.953zM34.394 11.67l-.21.022c-.965.158-1.753 1.085-1.706 2.064.05 1.05 1.046 1.95 2.104 1.9h13.56l.21-.01c.978-.102 1.823-.995 1.823-1.983 0-1.059-.97-2.008-2.037-1.993zm-14.471 0l-.21.022c-.966.158-1.755 1.085-1.708 2.064.05 1.05 1.047 1.95 2.106 1.9h6.329l.211-.01c.979-.102 1.824-.995 1.824-1.983 0-1.059-.97-2.008-2.038-1.993zm56.05 4.487H65.525V12.96h10.448zm-41.58 2.694l-.208.022c-.966.158-1.754 1.085-1.707 2.064.05 1.05 1.046 1.95 2.104 1.9h13.56l.21-.01c.978-.103 1.823-.995 1.823-1.983 0-1.059-.97-2.008-2.037-1.993zm-14.47 0l-.21.022c-.966.158-1.755 1.085-1.708 2.064.05 1.05 1.047 1.95 2.106 1.9h6.329l.211-.01c.979-.103 1.824-.995 1.824-1.983 0-1.059-.97-2.008-2.038-1.993zm14.47 15.26l-.21.022c-.963.159-1.75 1.085-1.703 2.064.05 1.049 1.044 1.948 2.1 1.899h13.552l.211-.01c.977-.103 1.82-.995 1.82-1.983 0-1.058-.968-2.006-2.033-1.992zm-14.474 0l-.21.022c-.963.16-1.748 1.085-1.702 2.064.05 1.049 1.044 1.948 2.1 1.899h6.316l.211-.01c.977-.103 1.82-.995 1.82-1.983 0-1.058-.968-2.006-2.033-1.992zm14.474 7.18l-.21.023c-.963.159-1.75 1.085-1.703 2.064.05 1.049 1.044 1.948 2.1 1.899h13.552l.211-.01c.977-.102 1.822-.995 1.822-1.983 0-1.058-.97-2.007-2.035-1.992zm-14.472 0l-.21.023c-.964.159-1.75 1.085-1.704 2.064.05 1.049 1.045 1.948 2.102 1.899h6.323l.21-.01c.978-.102 1.823-.995 1.823-1.983 0-1.058-.97-2.007-2.036-1.992zm56.052 10.77H65.525V20.14h10.448zm-21.71 9.865H12.157V3.985h42.106zm16.492 5.21l-4.981-11.09h9.96zM8.14 63.928l.013.208c.115.962 1.008 1.784 1.995 1.784l35.974-.001v4.093H4.016v-57.95h4.122zM64.574 1.544c-1.87 1.133-3.063 2.946-3.063 4.937v49.37l.024.28c.03.184.085.363.164.532l7.235 16.154.123.22a2.061 2.061 0 0 0 1.698.933c.762 0 1.498-.465 1.82-1.15l7.238-16.16.1-.258c.054-.177.084-.363.087-.549V6.481l-.014-.371c-.138-1.844-1.296-3.504-3.05-4.566C75.259.527 73.117 0 70.757 0c-2.362 0-4.503.527-6.182 1.544zM9.961 0l-.226.035L9.517.1c-.784.277-1.38 1.058-1.376 1.895L8.14 8.077l-6.3.002-.23.035C.705 8.313-.004 9.16 0 10.072v61.935l.012.208C.127 73.178 1.022 74 2.008 74h46.133l.21-.012.22-.04c.872-.211 1.578-1.037 1.578-1.94l-.001-6.088 6.134.001.21-.012c.97-.114 1.798-1.001 1.798-1.98V1.993l-.012-.208C58.163.822 57.268 0 56.282 0z"/></g></g></svg>