<svg xmlns="http://www.w3.org/2000/svg" width="19" height="10" viewBox="0 0 19 10"><g><g opacity=".75"><g opacity=".75"/><g opacity=".75"><path fill="#fff" d="M14.448 9.94c1.353 0 2.406-.38 3.157-1.141.751-.76 1.127-1.85 1.127-3.269V0H16.94v5.46c0 1.923-.826 2.884-2.478 2.884-1.661 0-2.492-.961-2.492-2.884V0h-1.82v5.53c0 1.419.378 2.508 1.134 3.269.756.76 1.81 1.141 3.164 1.141zM1.82 5.446V1.54h2.128c.793 0 1.395.168 1.806.504.41.336.616.817.616 1.442s-.205 1.108-.616 1.449c-.41.34-1.013.511-1.806.511zm0 4.354V6.944h2.33c.11-.003.197-.007.26-.014L6.412 9.8h1.96L6.118 6.58c.672-.261 1.188-.658 1.547-1.19.36-.532.539-1.167.539-1.904 0-.719-.168-1.34-.504-1.862C7.364 1.101 6.881.7 6.251.42 5.621.14 4.881 0 4.032 0H0v9.8z"/></g></g></g></svg>