<svg xmlns="http://www.w3.org/2000/svg" width="80" height="80" viewBox="0 0 80 80"><g><g><path fill="#19a9ff" d="M40.817 0h-.103c-5.707.05-10.892 3.346-13.39 8.528-.46.842-.421 1.87.103 2.675a2.581 2.581 0 0 0 2.396 1.164 2.588 2.588 0 0 0 2.032-1.337l.127-.263a9.847 9.847 0 0 1 8.806-5.603c5.29.044 9.637 4.202 9.937 9.514a9.949 9.949 0 0 1-6.28 9.591l-.423.156a8.332 8.332 0 0 0-5.736 7.455l-.014.43v6.003a2.601 2.601 0 0 0 1.245 2.377c.822.498 1.85.498 2.671 0a2.604 2.604 0 0 0 1.246-2.111l-.001-6.12a3.166 3.166 0 0 1 1.55-2.796c.146-.086.297-.164.548-.25l.209-.065-.058.027c6.969-2.377 11.198-9.472 9.99-16.762C54.464 5.323 48.176-.015 40.817 0zm.039 47.761a2.612 2.612 0 0 0-2.609 2.613c-.003 1.267.893 2.336 2.079 2.574l.258.038.23.013.278-.012a2.611 2.611 0 0 0 1.594-.751c.492-.492.77-1.16.773-1.856a2.614 2.614 0 0 0-2.337-2.605zm25.315-27.508l-.245.011C64.838 20.376 64 21.31 64 22.432c0 1.125.838 2.048 1.912 2.167l.233.012h1.732l.404.012c4.025.219 7.22 3.487 7.428 7.532l.01.407v17.975l-.012.408c-.227 4.066-3.457 7.291-7.452 7.495l-.402.01H59l-.245.012c-1.01.104-1.805.916-1.914 1.93l-.012.238v11.975L43.528 59.122l-.2-.186a2.13 2.13 0 0 0-1.046-.464l-.288-.022h-29.86l-.404-.011c-4.025-.219-7.221-3.487-7.429-7.532l-.01-.407V32.548l.011-.408c.216-4.071 3.444-7.308 7.443-7.518l.402-.01h11.058l.245-.012c1.088-.112 1.926-1.046 1.926-2.168 0-1.124-.838-2.048-1.911-2.166l-.234-.013H12.157l-.455.009C5.34 20.499.247 25.683.01 32.102l-.009.46v17.95l.01.46C.253 57.414 5.37 62.559 11.693 62.8l.453.009h28.755l.36.15 16.176 16.384.195.178a2.119 2.119 0 0 0 2.161.314 2.175 2.175 0 0 0 1.311-1.756l.015-.263V62.81h6.733l.454-.01c6.353-.241 11.435-5.412 11.683-11.818l.01-.46v-17.95l-.008-.46c-.235-6.452-5.354-11.607-11.685-11.849l-.454-.009z"/></g></g></svg>