<svg xmlns="http://www.w3.org/2000/svg" width="80" height="74" viewBox="0 0 80 74"><g><g><path fill="#19a9ff" d="M38.776 71.466c0-1.4 1.142-2.534 2.55-2.534a2.543 2.543 0 0 1 2.552 2.534c0 1.4-1.143 2.534-2.551 2.534a2.543 2.543 0 0 1-2.551-2.534zm-6.123 0c0-1.4 1.142-2.534 2.551-2.534a2.543 2.543 0 0 1 2.551 2.534c0 1.4-1.142 2.534-2.55 2.534a2.543 2.543 0 0 1-2.552-2.534zm41.35-35.717l.071 2.55 1.948-2.903.15-.241c.43-.61 1.093-.942 1.799-.92a2.094 2.094 0 0 1 1.838 1.209l.094.243.063.25c.077.419.023.853-.156 1.24l-.073.137h-.03l-6.062 9.033-.115.157-.087.08-.147.128-.082.058-.087.053-.06.028-.023.002-.313.062-.23.078a1.843 1.843 0 0 1-1.18-.078l-.313-.062-.03-.002-.14-.082-.124-.091-.144-.133-.081-.084-.07-.095-5.831-8.69-.164-.23c-.396-.629-.446-1.365-.151-2.002a2.094 2.094 0 0 1 1.837-1.21c.794-.024 1.534.4 1.91 1.096l.48.71 1.582 2.304-.091-2.788-.03-.679C69.08 18.405 55.918 5.133 39.275 4.08 22.404 3.013 7.476 14.85 4.786 31.43c-2.69 16.58 7.736 32.477 24.09 36.73 1.265.165 2.087 1.215 1.942 2.367a2.113 2.113 0 0 1-2.361 1.825c-.23.012-.392.017-.525.014l-.24-.015C9.296 67.648-2.548 49.706.467 30.963 3.483 12.221 20.365-1.16 39.43.08c19.065 1.24 34.046 16.696 34.573 35.67zM41.13 20.92v15.616l-.016.276a2.074 2.074 0 0 1-.59 1.205l-9.899 9.833-.209.184a2.102 2.102 0 0 1-2.765-.181 2.073 2.073 0 0 1-.005-2.957l9.298-9.208V20.92l.012-.227a2.088 2.088 0 0 1 2.081-1.852c1.156 0 2.093.93 2.093 2.08z"/></g></g></svg>